<?xml version="1.0" encoding="UTF-8"?>
<svg width="24px" height="24px" viewBox="0 0 24 24" version="1.1" xmlns="http://www.w3.org/2000/svg" xmlns:xlink="http://www.w3.org/1999/xlink">
    <title>linux</title>
    <g id="页面-1" stroke="none" stroke-width="1" fill="none" fill-rule="evenodd">
        <g id="TADS首页" transform="translate(-297.000000, -264.000000)" fill-rule="nonzero">
            <g id="编组-30" transform="translate(84.000000, 147.000000)">
                <g id="编组-5" transform="translate(213.000000, 113.000000)">
                    <g id="linux" transform="translate(0.000000, 4.000000)">
                        <rect id="矩形" fill="#000000" opacity="0" x="0" y="0" width="24" height="24"></rect>
                        <path d="M12.309375,4.64765625 C12.1078125,4.77890625 11.953125,4.97109375 11.8664063,5.19609375 C11.7773438,5.48671875 11.7914063,5.79609375 11.9015625,6.0796875 C11.9929688,6.37734375 12.1757813,6.6375 12.421875,6.825 C12.5484375,6.9140625 12.69375,6.9703125 12.8484375,6.9890625 C13.003125,7.0078125 13.1578125,6.98203125 13.2960938,6.91171875 C13.4601563,6.8203125 13.5914063,6.67734375 13.66875,6.50625 C13.74375,6.3328125 13.7859375,6.14765625 13.790625,5.96015625 C13.8070313,5.72109375 13.7765625,5.48203125 13.7015625,5.2546875 C13.6195313,5.00625 13.4601563,4.79296875 13.2445313,4.64765625 C13.134375,4.57734375 13.0125,4.53046875 12.8835938,4.51171875 C12.7546875,4.49296875 12.6234375,4.50703125 12.5015625,4.55390625 C12.4335938,4.58203125 12.3679688,4.6171875 12.3070313,4.659375" id="路径" fill="#FFFFFF"></path>
                        <path d="M18.9890625,14.2148437 C18.8695312,13.5515625 18.6820312,12.9023437 18.43125,12.2789062 C18.2601563,11.8148437 18.028125,11.3742187 17.7398437,10.9710937 C17.4492188,10.584375 17.08125,10.2585937 16.7976562,9.8671875 C16.6476563,9.66328125 16.5210937,9.4359375 16.3640625,9.23671875 C16.3007812,9.10546875 16.2398438,8.97421875 16.1789063,8.84296875 C15.9914063,8.4328125 15.8203125,8.01328125 15.5976562,7.62421875 C15.5625,7.56328125 15.525,7.50234375 15.4898438,7.44375 C15.4617187,7.06875 15.421875,6.69375 15.4007813,6.31875 C15.4171875,5.56640625 15.3539063,4.81171875 15.2109375,4.07109375 C15.1125,3.7171875 14.9625,3.37734375 14.765625,3.06796875 C14.5359375,2.70234375 14.240625,2.38359375 13.89375,2.128125 C13.3289062,1.72734375 12.6539063,1.51171875 11.9625,1.509375 C11.4539062,1.49765625 10.95,1.6125 10.4976563,1.846875 C10.021875,2.10703125 9.6375,2.5078125 9.39609375,2.99296875 C9.17109375,3.4828125 9.0515625,4.0125 9.04453125,4.5515625 C9.02578125,5.08125 9.075,5.60625 9.09609375,6.1359375 C9.1171875,6.684375 9.10546875,7.23515625 9.15,7.78359375 C9.1640625,7.959375 9.18515625,8.13515625 9.18515625,8.31328125 C9.18515625,8.40234375 9.18046875,8.49140625 9.178125,8.578125 L9.17109375,8.596875 C8.93203125,9.00234375 8.6671875,9.39375 8.37890625,9.76640625 C8.17734375,10.021875 7.97578125,10.275 7.771875,10.5257812 C7.50703125,10.8234375 7.28203125,11.1539062 7.10390625,11.5101562 C6.984375,11.8195312 6.88828125,12.1382812 6.81328125,12.4617187 L6.80625,12.4875 C6.69375,12.8601562 6.553125,13.2210937 6.384375,13.5703125 C6.36796875,13.603125 6.3515625,13.6382812 6.3375,13.66875 C6.23671875,13.8773437 6.13125,14.0859375 6.02109375,14.2898437 L5.89453125,14.5265625 C5.81484375,14.6695313 5.74453125,14.8171875 5.68359375,14.9671875 C5.6484375,15.0585937 5.6203125,15.1523437 5.60390625,15.2484375 C5.5734375,15.4523437 5.5875,15.6585937 5.64140625,15.8554687 C5.653125,15.9046875 5.66953125,15.9539062 5.6859375,16.003125 C5.7375,16.1484375 5.7984375,16.2914062 5.87109375,16.4273437 C5.90390625,16.490625 5.9390625,16.5515625 5.971875,16.6148437 L6.00234375,16.659375 C6.03515625,16.7179687 6.0703125,16.7765625 6.10546875,16.8328125 L6.11015625,16.8398437 C6.15,16.9054687 6.19453125,16.96875 6.23671875,17.0320312 L6.24375,17.0414062 C6.28828125,17.1023437 6.3328125,17.165625 6.3796875,17.2265625 C6.553125,17.9039062 6.871875,18.534375 7.31015625,19.078125 C7.2421875,19.1976562 7.18125,19.3148437 7.11328125,19.4320312 C6.87421875,19.7789062 6.67734375,20.1515625 6.525,20.5429687 C6.46171875,20.7445312 6.4453125,20.9578125 6.48046875,21.1664062 C6.51328125,21.3773437 6.62109375,21.5671875 6.78515625,21.7054687 C6.8953125,21.7898437 7.021875,21.8484375 7.15546875,21.8765625 C7.2890625,21.9046875 7.42734375,21.91875 7.565625,21.9117187 C8.0859375,21.871875 8.6015625,21.76875 9.0984375,21.609375 C9.3984375,21.5296875 9.6984375,21.459375 10.003125,21.3984375 C10.3195312,21.3257812 10.640625,21.28125 10.9640625,21.2671875 C11.04375,21.2695312 11.1234375,21.2648437 11.2007813,21.2601562 C11.4210938,21.2835937 11.6414062,21.2929687 11.8640625,21.2835937 L11.9460937,21.2789062 C12.0023438,21.2859375 12.0609375,21.2882812 12.1195313,21.2929687 C12.5085938,21.3140625 12.8953125,21.3539062 13.2796875,21.4125 C13.6171875,21.4640625 13.9546875,21.5296875 14.2875,21.6117187 C14.8007812,21.7664062 15.328125,21.8695312 15.8648437,21.9140625 C16.0054687,21.9210937 16.1460937,21.909375 16.2867187,21.88125 C16.425,21.853125 16.55625,21.7921875 16.66875,21.7078125 C16.8328125,21.571875 16.940625,21.3820312 16.9757813,21.1710937 C17.0109375,20.9625 16.9945312,20.7492187 16.93125,20.5476562 C16.7765625,20.15625 16.5773437,19.7835937 16.3335937,19.4390625 C16.2492188,19.2960937 16.1695312,19.1484375 16.0851563,19.0054687 C16.4484375,18.6 16.7695312,18.1546875 17.0390625,17.68125 C17.203125,17.690625 17.3648437,17.671875 17.521875,17.6203125 C17.9320313,17.4820312 18.2882813,17.2148438 18.5367187,16.8585937 C18.6117188,16.753125 18.6703125,16.6359375 18.7054688,16.5117188 C18.8671875,16.2609375 18.9773438,15.9796875 19.0289062,15.684375 C19.1039063,15.196875 19.0921875,14.6976562 18.99375,14.2148437 L18.9890625,14.2148437 Z" id="路径" fill="#020204"></path>
                        <path d="M9.975,7.575 C9.90234375,7.66875 9.85078125,7.77890625 9.825,7.89375 C9.79921875,8.00859375 9.7828125,8.128125 9.78046875,8.2453125 C9.7875,8.48203125 9.76875,8.71875 9.721875,8.95078125 C9.63984375,9.1921875 9.515625,9.41484375 9.35625,9.6140625 C9.08203125,9.95859375 8.86640625,10.3453125 8.71875,10.7578125 C8.64375,11.0132813 8.61796875,11.2804688 8.64609375,11.5476563 C8.3625,11.9671875 8.11640625,12.4125 7.9125,12.8765625 C7.5984375,13.5773438 7.396875,14.325 7.31484375,15.0890625 C7.2140625,16.0289063 7.35234375,16.978125 7.71328125,17.85 C7.978125,18.478125 8.38125,19.040625 8.8921875,19.4929688 C9.1546875,19.7203125 9.44296875,19.9125 9.75234375,20.0648438 C10.846875,20.5992188 12.1289063,20.5875 13.2117188,20.0320313 C13.753125,19.715625 14.2476563,19.3242188 14.6789063,18.871875 C14.9578125,18.61875 15.20625,18.3351563 15.4242188,18.0257813 C15.7875,17.3953125 16.0007813,16.6875 16.0453125,15.9609375 C16.2703125,14.7046875 16.1320313,13.4109375 15.6492188,12.2296875 C15.459375,11.8359375 15.2085938,11.475 14.9039063,11.1609375 C14.821876,10.6100561 14.662491,10.0735125 14.4304688,9.5671875 C14.2617188,9.20390625 14.0578125,8.85703125 13.9007813,8.484375 C13.8375,8.33203125 13.78125,8.17734375 13.7109375,8.0296875 C13.6429688,7.8796875 13.5492188,7.74140625 13.434375,7.62421875 C13.3101563,7.509375 13.1625,7.42265625 13.0007813,7.3734375 C12.8390625,7.321875 12.6726563,7.29375 12.5039063,7.2890625 C12.1664063,7.27265625 11.8265625,7.31484375 11.49375,7.303125 C11.2242188,7.29140625 10.959375,7.24453125 10.6898438,7.2609375 C10.55625,7.26796875 10.4226563,7.29375 10.2984375,7.34296875 C10.171875,7.3921875 10.0617188,7.471875 9.975,7.57734375 M10.0828125,4.6453125 C9.95625,4.6546875 9.83671875,4.70859375 9.7453125,4.7953125 C9.65390625,4.88203125 9.5859375,4.9921875 9.5484375,5.11171875 C9.48515625,5.35546875 9.46875,5.6109375 9.50390625,5.86171875 C9.50859375,6.0890625 9.5484375,6.31640625 9.6234375,6.53203125 C9.665625,6.6375 9.7265625,6.7359375 9.80625,6.81796875 C9.8859375,6.9 9.98671875,6.9609375 10.096875,6.9890625 C10.2023437,7.01484375 10.3125,7.01015625 10.4132812,6.97734375 C10.5140625,6.94453125 10.6078125,6.88828125 10.6828125,6.81328125 C10.7929687,6.70078125 10.8726562,6.5625 10.9125,6.4125 C10.9523437,6.2625 10.9710937,6.10546875 10.9664062,5.9484375 C10.9664062,5.75390625 10.9359375,5.559375 10.8773437,5.371875 C10.81875,5.184375 10.7179687,5.01328125 10.5820312,4.8703125 C10.5164062,4.80234375 10.4414062,4.74375 10.3570312,4.7015625 C10.2703125,4.66171875 10.1765625,4.640625 10.0828125,4.6453125 M12.309375,4.6453125 C12.1078125,4.7765625 11.953125,4.96875 11.8664063,5.19375 C11.7773438,5.484375 11.7914063,5.79375 11.9015625,6.07734375 C11.9929688,6.375 12.1757813,6.63515625 12.421875,6.82265625 C12.5484375,6.91171875 12.69375,6.96796875 12.8484375,6.98671875 C13.003125,7.00546875 13.1578125,6.9796875 13.2960938,6.909375 C13.4601563,6.81796875 13.5914063,6.675 13.66875,6.50390625 C13.74375,6.33046875 13.7859375,6.1453125 13.790625,5.9578125 C13.8070313,5.71875 13.7765625,5.4796875 13.7015625,5.25234375 C13.6195313,5.00390625 13.4601563,4.790625 13.2445313,4.6453125 C13.134375,4.575 13.0125,4.528125 12.8835938,4.509375 C12.7546875,4.490625 12.6234375,4.5046875 12.5015625,4.5515625 C12.4335938,4.5796875 12.3679688,4.61484375 12.3070313,4.65703125" id="形状" fill="#FFFFFF"></path>
                        <path d="M12.7617188,5.240625 C12.6867187,5.2453125 12.6164062,5.26875 12.553125,5.30859375 C12.4898438,5.3484375 12.4359375,5.40234375 12.39375,5.46328125 C12.3140625,5.5875 12.2695313,5.7328125 12.2671875,5.8828125 C12.2601563,5.99296875 12.2765625,6.10546875 12.3117188,6.2109375 C12.346875,6.31640625 12.4125,6.41015625 12.496875,6.48046875 C12.5859375,6.553125 12.69375,6.5953125 12.8085938,6.60234375 C12.9234375,6.60703125 13.0359375,6.5765625 13.1296875,6.5109375 C13.2046875,6.45703125 13.265625,6.3890625 13.3078125,6.30703125 C13.35,6.22734375 13.3757813,6.13828125 13.3875,6.04921875 C13.4109375,5.88984375 13.3828125,5.72578125 13.3125,5.5828125 C13.2398437,5.4375 13.115625,5.32734375 12.965625,5.26875 C12.9,5.24296875 12.8320312,5.23359375 12.7617188,5.2359375" id="路径" fill="#020204"></path>
                        <path d="M10.0828125,4.64765625 C9.95625,4.65703125 9.83671875,4.7109375 9.7453125,4.79765625 C9.65390625,4.884375 9.5859375,4.99453125 9.5484375,5.1140625 C9.48515625,5.3578125 9.46875,5.61328125 9.50390625,5.8640625 C9.50859375,6.09140625 9.5484375,6.31875 9.6234375,6.534375 C9.665625,6.6421875 9.7265625,6.73828125 9.80625,6.8203125 C9.8859375,6.90234375 9.98671875,6.96328125 10.096875,6.99140625 C10.2023438,7.0171875 10.3125,7.0125 10.4132813,6.9796875 C10.5140625,6.946875 10.6078125,6.890625 10.6828125,6.815625 C10.7929688,6.703125 10.8726563,6.56484375 10.9125,6.41484375 C10.9523438,6.26484375 10.9710938,6.1078125 10.9664063,5.95078125 C10.9664063,5.75625 10.9359375,5.56171875 10.8773438,5.37421875 C10.81875,5.18671875 10.7179688,5.015625 10.5820313,4.87265625 C10.5164063,4.8046875 10.4414063,4.74609375 10.3570313,4.70390625 C10.2703125,4.6640625 10.1765625,4.64296875 10.0828125,4.64765625" id="路径" fill="#FFFFFF"></path>
                        <path d="M9.78046875,5.690625 C9.75,5.84765625 9.75703125,6.01171875 9.80625,6.1640625 C9.84375,6.26484375 9.9,6.35625 9.975,6.43359375 C10.021875,6.48515625 10.0757812,6.5296875 10.1390625,6.56015625 C10.2023437,6.59296875 10.2726562,6.60234375 10.3429687,6.5859375 C10.40625,6.56953125 10.4601562,6.53203125 10.5,6.48046875 C10.5398437,6.42890625 10.5679687,6.3703125 10.5867187,6.309375 C10.640625,6.1265625 10.6359375,5.93203125 10.5773437,5.74921875 C10.5398437,5.615625 10.4671875,5.49375 10.3640625,5.40234375 C10.3148437,5.36015625 10.2539062,5.32734375 10.190625,5.3109375 C10.125,5.29453125 10.0570312,5.29921875 9.99375,5.32734375 C9.928125,5.36015625 9.87421875,5.4140625 9.84140625,5.4796875 C9.80859375,5.5453125 9.7875,5.615625 9.778125,5.68828125" id="路径" fill="#020204"></path>
                        <path d="M9.4828125,7.66171875 C9.4875,7.6828125 9.49453125,7.70390625 9.50625,7.7203125 C9.52734375,7.753125 9.553125,7.77890625 9.5859375,7.8 C9.61640625,7.82109375 9.646875,7.83984375 9.67734375,7.85859375 C9.8390625,7.96875 9.98203125,8.1046875 10.096875,8.2640625 C10.2375,8.484375 10.4132812,8.68125 10.6125,8.85 C10.7648437,8.95546875 10.9429687,9.01875 11.128125,9.03515625 C11.34375,9.0515625 11.5617187,9.02578125 11.7703125,8.96015625 C11.9625,8.90390625 12.1476562,8.82421875 12.3210937,8.71875 C12.61875,8.4796875 12.9375,8.26875 13.275,8.09296875 C13.3546875,8.06484375 13.434375,8.04375 13.509375,8.00859375 C13.5867187,7.97578125 13.6523438,7.91953125 13.6921875,7.84453125 C13.7179687,7.76953125 13.734375,7.68984375 13.7367187,7.61015625 C13.7484375,7.52578125 13.7765625,7.44375 13.790625,7.359375 C13.809375,7.275 13.8023437,7.18828125 13.771875,7.10625 C13.7390625,7.04296875 13.6875,6.99140625 13.6242187,6.95859375 C13.5609375,6.928125 13.490625,6.909375 13.4203125,6.90703125 C13.2773437,6.91171875 13.1367187,6.92578125 12.9984375,6.94921875 C12.8109375,6.965625 12.6234375,6.9421875 12.4359375,6.94921875 C12.2039062,6.95625 11.971875,7.0078125 11.7375,7.0171875 C11.4703125,7.03125 11.2054687,6.9890625 10.9382812,6.97734375 C10.8234375,6.9703125 10.70625,6.975 10.5914062,6.99375 C10.4765625,7.01015625 10.3664062,7.05234375 10.2703125,7.11796875 C10.18125,7.18828125 10.0992187,7.26328125 10.0195312,7.34296875 C9.97734375,7.38046875 9.93046875,7.41328125 9.88125,7.4390625 C9.8296875,7.46484375 9.77578125,7.47890625 9.7171875,7.4765625 C9.6890625,7.471875 9.65859375,7.471875 9.63046875,7.4765625 C9.6140625,7.48359375 9.59765625,7.49296875 9.5859375,7.5046875 L9.55078125,7.546875 C9.52734375,7.58203125 9.50625,7.61953125 9.48984375,7.65703125" id="路径" fill="#D99A03"></path>
                        <path d="M10.0710938,7.07109375 C9.97734375,7.12734375 9.8859375,7.18828125 9.79453125,7.2515625 C9.7453125,7.28203125 9.70546875,7.321875 9.675,7.37109375 C9.65859375,7.40859375 9.6515625,7.4484375 9.65390625,7.48828125 C9.65625,7.528125 9.65625,7.56796875 9.65390625,7.6078125 C9.6515625,7.63359375 9.6421875,7.66171875 9.6421875,7.68984375 C9.6421875,7.70390625 9.6421875,7.71796875 9.646875,7.7296875 C9.6515625,7.74375 9.65625,7.75546875 9.665625,7.76484375 C9.67734375,7.7765625 9.69375,7.7859375 9.7125,7.790625 C9.72890625,7.7953125 9.74765625,7.79765625 9.76640625,7.80234375 C9.8484375,7.82578125 9.9234375,7.8703125 9.984375,7.92890625 C10.0476563,7.98515625 10.1039063,8.05078125 10.171875,8.1046875 C10.359375,8.2453125 10.5867188,8.31796875 10.81875,8.315625 C11.0507813,8.3109375 11.2804688,8.278125 11.503125,8.21953125 C11.6789063,8.18203125 11.8523438,8.13515625 12.0210938,8.0765625 C12.2835938,7.978125 12.525,7.83515625 12.7335938,7.65 C12.825,7.5609375 12.9210938,7.48125 13.0242188,7.40859375 C13.1179688,7.35 13.228125,7.31015625 13.321875,7.25390625 C13.33125,7.24921875 13.3382813,7.2421875 13.3476563,7.2375 C13.3546875,7.23046875 13.3617188,7.2234375 13.3664063,7.2140625 C13.3734375,7.19765625 13.3734375,7.17890625 13.3664063,7.1625 C13.3617188,7.14609375 13.3546875,7.13203125 13.3453125,7.1203125 C13.3335938,7.10625 13.3195313,7.0921875 13.3054688,7.08046875 C13.1976563,7.00078125 13.06875,6.95625 12.9351563,6.9515625 C12.7992188,6.9421875 12.6703125,6.9515625 12.5390625,6.92578125 C12.4171875,6.9 12.2976563,6.86484375 12.1804688,6.82265625 C12.05625,6.7828125 11.9296875,6.75234375 11.7984375,6.73125 C11.49375,6.68203125 11.184375,6.6890625 10.8820313,6.7546875 C10.5984375,6.81796875 10.3242188,6.92578125 10.0710938,7.07109375" id="路径" fill="#604405"></path>
                        <path d="M10.040625,6.75234375 C9.9046875,6.84375 9.7828125,6.95625 9.67734375,7.0828125 C9.61640625,7.153125 9.5671875,7.23515625 9.534375,7.32421875 C9.51328125,7.39453125 9.49921875,7.4671875 9.4875,7.53984375 C9.48046875,7.565625 9.47578125,7.59375 9.47578125,7.621875 C9.47578125,7.6359375 9.478125,7.65 9.4828125,7.66171875 C9.4875,7.67578125 9.49453125,7.6875 9.50390625,7.696875 C9.5203125,7.71328125 9.54140625,7.72265625 9.56484375,7.72734375 C9.5859375,7.73203125 9.609375,7.73203125 9.6328125,7.734375 C9.7359375,7.75078125 9.83203125,7.79296875 9.91640625,7.85390625 C10.0007813,7.9125 10.0804688,7.98046875 10.1671875,8.03671875 C10.3640625,8.15390625 10.5890625,8.2171875 10.81875,8.221875 C11.0484375,8.2265625 11.2757813,8.203125 11.4984375,8.15390625 C11.6765625,8.12109375 11.8523438,8.071875 12.0234375,8.00625 C12.2789063,7.89609375 12.5179688,7.753125 12.7359375,7.5796875 C12.8367187,7.5046875 12.9351563,7.425 13.0265625,7.33828125 C13.0570312,7.3078125 13.0875,7.27734375 13.1203125,7.24921875 C13.153125,7.22109375 13.190625,7.2 13.2304688,7.1859375 C13.29375,7.16953125 13.359375,7.1671875 13.425,7.18359375 C13.471875,7.1953125 13.5210938,7.2 13.5703125,7.2 C13.5960938,7.2 13.6195313,7.1953125 13.6429688,7.18828125 C13.6664063,7.17890625 13.6875,7.16484375 13.7015625,7.14609375 C13.7226562,7.1203125 13.7320313,7.08984375 13.7320313,7.05703125 C13.7320313,7.02421875 13.7226562,6.99375 13.70625,6.965625 C13.6710938,6.91171875 13.6171875,6.86953125 13.5585938,6.84609375 C13.4765625,6.81328125 13.3921875,6.7875 13.3054688,6.77109375 C13.040625,6.7078125 12.7828125,6.6140625 12.5390625,6.4921875 C12.4171875,6.43125 12.3023438,6.365625 12.1804688,6.30234375 C12.0585938,6.234375 11.9320313,6.17578125 11.8007813,6.13359375 C11.4984375,6.0515625 11.1773438,6.065625 10.884375,6.17578125 C10.55625,6.290625 10.2632813,6.48984375 10.0382813,6.7546875" id="路径" fill="#F5BD0C"></path>
                        <path d="M11.5664062,6.70890682 C11.5828125,7.02478457 11.6671875,6.96984931 11.7164062,7.10718746 C11.765625,7.24452561 11.79375,7.5054681 11.840625,7.53293573 C11.8898437,7.56040336 11.9578125,7.43679902 11.9648437,7.17585653 C11.9742187,6.81877734 11.8851562,6.5990363 11.8289062,6.47543197 C11.7539062,6.26942474 11.6695312,6.25569093 11.5945312,6.44796434 C11.578125,6.48916578 11.5617187,6.61277012 11.5664062,6.70890682 L11.5664062,6.70890682 Z M10.7601562,6.54410104 C10.696875,6.42049671 10.59375,7.06598601 10.6242187,7.40933139 C10.6335937,7.5054681 10.6617187,7.61533862 10.6804687,7.56040336 C10.6992187,7.5054681 10.734375,7.13465509 10.7648437,7.01105075 C10.7882812,6.90118023 10.7835937,6.58530249 10.7601562,6.54410104 L10.7601562,6.54410104 Z" id="形状" fill="#CD8907"></path>
                        <path d="M20.8054687,19.4484375 C20.7585937,19.5703125 20.690625,19.6828125 20.60625,19.7835938 C20.409375,19.9945313 20.1703125,20.1632813 19.9078125,20.2804688 C19.4625,20.4867188 19.0289062,20.7164063 18.6070312,20.9671875 C18.3328125,21.15 18.0773437,21.35625 17.840625,21.5859375 C17.6460937,21.7898438 17.4375,21.9773438 17.2171875,22.153125 C16.9875,22.321875 16.7226562,22.4367188 16.4414062,22.48125 C16.096875,22.5257813 15.7476562,22.471875 15.43125,22.3289063 C15.2039062,22.2421875 15.0070312,22.0898438 14.86875,21.8882813 C14.7515625,21.6726563 14.6976562,21.43125 14.709375,21.1875 C14.7234375,20.7585938 14.775,20.3320313 14.8640625,19.9101563 C14.925,19.5585938 14.9859375,19.2070313 15.0234375,18.853125 C15.0890625,18.20625 15.0960937,17.5570313 15.046875,16.9101563 C15.0351562,16.8023438 15.0351562,16.6921875 15.046875,16.584375 C15.0609375,16.3640625 15.2460937,16.1953125 15.46875,16.1976563 C15.5695312,16.1953125 15.6703125,16.2046875 15.76875,16.2234375 C16.003125,16.2515625 16.2375,16.2914063 16.4671875,16.3453125 C16.6101562,16.3828125 16.753125,16.434375 16.8960937,16.4742188 C17.1351562,16.5445313 17.3882812,16.565625 17.6367187,16.5421875 C17.896875,16.48125 18.1617187,16.4414063 18.4289062,16.4179688 C18.5390625,16.4226563 18.6492187,16.4414063 18.7523437,16.4742188 C18.8601562,16.5046875 18.9609375,16.5585938 19.0429687,16.6359375 C19.1015625,16.6992188 19.1484375,16.771875 19.1789062,16.8515625 C19.2234375,16.9710938 19.2515625,17.0953125 19.2609375,17.221875 C19.265625,17.334375 19.275,17.446875 19.2890625,17.559375 C19.3289062,17.7398438 19.415625,17.9085938 19.5375,18.0492188 C19.6617187,18.1851563 19.7953125,18.3117188 19.940625,18.4242188 C20.0789062,18.5460938 20.2242187,18.6585938 20.3765625,18.7617188 C20.4492187,18.8109375 20.521875,18.8554688 20.5898437,18.909375 C20.6601562,18.9609375 20.71875,19.0265625 20.7632812,19.1015625 C20.8195312,19.2046875 20.8382812,19.3242188 20.8101562,19.4390625" id="路径" fill="#F5BD0C"></path>
                        <path d="M20.8054687,19.4484375 C20.7585937,19.5703125 20.690625,19.6828125 20.60625,19.7835938 C20.409375,19.9945313 20.1703125,20.1632813 19.9078125,20.2804688 C19.4625,20.4867188 19.0289062,20.7164063 18.6070312,20.9671875 C18.3328125,21.15 18.0773437,21.35625 17.840625,21.5859375 C17.6460937,21.7898438 17.4375,21.9773438 17.2171875,22.153125 C16.9875,22.321875 16.7226562,22.4367188 16.4414062,22.48125 C16.096875,22.5257813 15.7476562,22.471875 15.43125,22.3289063 C15.2039062,22.2421875 15.0070312,22.0898438 14.86875,21.8882813 C14.7515625,21.6726563 14.6976562,21.43125 14.709375,21.1875 C14.7234375,20.7585938 14.775,20.3320313 14.8640625,19.9101563 C14.925,19.5585938 14.9859375,19.2070313 15.0234375,18.853125 C15.0890625,18.20625 15.0960937,17.5570313 15.046875,16.9101563 C15.0351562,16.8023438 15.0351562,16.6921875 15.046875,16.584375 C15.0609375,16.3640625 15.2460937,16.1953125 15.46875,16.1976563 C15.5695312,16.1953125 15.6703125,16.2046875 15.76875,16.2234375 C16.003125,16.2515625 16.2375,16.2914063 16.4671875,16.3453125 C16.6101562,16.3828125 16.753125,16.434375 16.8960937,16.4742188 C17.1351562,16.5445313 17.3882812,16.565625 17.6367187,16.5421875 C17.896875,16.48125 18.1617187,16.4414063 18.4289062,16.4179688 C18.5390625,16.4226563 18.6492187,16.4414063 18.7523437,16.4742188 C18.8601562,16.5046875 18.9609375,16.5585938 19.0429687,16.6359375 C19.1015625,16.6992188 19.1484375,16.771875 19.1789062,16.8515625 C19.2234375,16.9710938 19.2515625,17.0953125 19.2609375,17.221875 C19.265625,17.334375 19.275,17.446875 19.2890625,17.559375 C19.3289062,17.7398438 19.415625,17.9085938 19.5375,18.0492188 C19.6617187,18.1851563 19.7953125,18.3117188 19.940625,18.4242188 C20.0789062,18.5460938 20.2242187,18.6585938 20.3765625,18.7617188 C20.4492187,18.8109375 20.521875,18.8554688 20.5898437,18.909375 C20.6601562,18.9609375 20.71875,19.0265625 20.7632812,19.1015625 C20.8195312,19.2046875 20.8382812,19.3242188 20.8101562,19.4390625 M6.0796875,15.8507813 C6.19453125,15.80625 6.31875,15.7945313 6.440625,15.8179688 C6.5625,15.8414063 6.67734375,15.890625 6.778125,15.9609375 C6.97265625,16.1085938 7.14140625,16.2914063 7.275,16.4953125 C7.60546875,16.95 7.921875,17.4140625 8.21015625,17.896875 C8.44453125,18.2882813 8.6578125,18.6914063 8.92734375,19.059375 C9.103125,19.2984375 9.30234375,19.5210938 9.48046875,19.7601563 C9.665625,19.9945313 9.80625,20.2617188 9.89296875,20.5453125 C9.99609375,20.9226563 9.95390625,21.3234375 9.778125,21.6726563 C9.6515625,21.9164063 9.46171875,22.1203125 9.2296875,22.2609375 C8.9953125,22.4015625 8.72578125,22.471875 8.4515625,22.4648438 C8.0203125,22.40625 7.603125,22.275 7.21875,22.0757813 C6.40078125,21.75 5.5125,21.646875 4.66875,21.39375 C4.40859375,21.3164063 4.15546875,21.2226563 3.89296875,21.1523438 C3.77578125,21.1242188 3.6609375,21.0890625 3.5484375,21.0421875 C3.43828125,20.9953125 3.3421875,20.915625 3.27890625,20.8148438 C3.23203125,20.7328125 3.20859375,20.6390625 3.2109375,20.5453125 C3.21328125,20.4515625 3.23203125,20.3601563 3.26484375,20.2757813 C3.328125,20.1 3.43125,19.9429688 3.49921875,19.7695313 C3.60234375,19.4835938 3.6421875,19.1765625 3.61640625,18.8742188 C3.60234375,18.571875 3.5484375,18.2695313 3.53203125,17.9671875 C3.51796875,17.83125 3.52265625,17.6953125 3.54609375,17.5617188 C3.58125,17.2945313 3.78984375,17.08125 4.059375,17.0414063 C4.18359375,17.0203125 4.3078125,17.0109375 4.43203125,17.0179688 C4.55625,17.025 4.6828125,17.025 4.80703125,17.0179688 C4.93125,17.0109375 5.05546875,16.9757813 5.165625,16.9171875 C5.26640625,16.85625 5.35546875,16.771875 5.4234375,16.6734375 C5.49140625,16.575 5.55234375,16.4742188 5.60859375,16.36875 C5.66484375,16.2632813 5.728125,16.1648438 5.803125,16.0710938 C5.8734375,15.975 5.96953125,15.9023438 6.0796875,15.8507813" id="形状" fill="#F5BD0C"></path>
                        <path d="M6.0796875,15.853125 C6.19453125,15.8085938 6.31875,15.796875 6.440625,15.8203125 C6.5625,15.84375 6.67734375,15.8929688 6.778125,15.9632813 C6.97265625,16.1109375 7.14140625,16.29375 7.275,16.4976562 C7.60546875,16.9523438 7.921875,17.4164063 8.21015625,17.8992187 C8.44453125,18.290625 8.6578125,18.69375 8.92734375,19.0617188 C9.103125,19.3007812 9.30234375,19.5234375 9.48046875,19.7625 C9.665625,19.996875 9.80625,20.2640625 9.89296875,20.5476563 C9.99609375,20.925 9.95390625,21.3257813 9.778125,21.675 C9.6515625,21.91875 9.46171875,22.1226563 9.2296875,22.2632813 C8.9953125,22.4039063 8.72578125,22.4742188 8.4515625,22.4671875 C8.0203125,22.4085938 7.603125,22.2773438 7.21875,22.078125 C6.40078125,21.7523438 5.5125,21.6492188 4.66875,21.3960938 C4.40859375,21.31875 4.15546875,21.225 3.89296875,21.1546875 C3.77578125,21.1265625 3.6609375,21.0914063 3.5484375,21.0445313 C3.43828125,20.9976563 3.3421875,20.9179688 3.27890625,20.8171875 C3.23203125,20.7351563 3.20859375,20.6414063 3.2109375,20.5476563 C3.21328125,20.4539063 3.23203125,20.3625 3.26484375,20.278125 C3.328125,20.1023437 3.43125,19.9453125 3.49921875,19.771875 C3.60234375,19.4859375 3.6421875,19.1789063 3.61640625,18.8765625 C3.60234375,18.5742188 3.5484375,18.2742187 3.53203125,17.9695312 C3.51796875,17.8335937 3.52265625,17.6976562 3.54609375,17.5640625 C3.58125,17.296875 3.78984375,17.0835937 4.059375,17.04375 C4.18359375,17.0226562 4.3078125,17.0132812 4.43203125,17.0203125 C4.55625,17.0273437 4.6828125,17.0273437 4.80703125,17.0203125 C4.93125,17.0132812 5.05546875,16.978125 5.165625,16.9195312 C5.26640625,16.8585937 5.35546875,16.7742187 5.4234375,16.6757812 C5.49140625,16.5773437 5.55234375,16.4765625 5.60859375,16.3710937 C5.66484375,16.265625 5.728125,16.1671875 5.803125,16.0734375 C5.8734375,15.9773437 5.96953125,15.9023437 6.0796875,15.853125" id="路径" fill="#F5BD0C"></path>
                        <path d="M6.26015625,16.05 C6.36328125,16.0101562 6.478125,16.003125 6.5859375,16.0289062 C6.69375,16.0546875 6.79453125,16.1039063 6.88125,16.1742188 C7.04765625,16.3195313 7.18828125,16.4929687 7.29375,16.6875 C7.575,17.1421875 7.84921875,17.6015625 8.1046875,18.0703125 C8.28984375,18.4289062 8.4984375,18.7757813 8.728125,19.10625 C8.8875,19.321875 9.0703125,19.51875 9.234375,19.7296875 C9.40546875,19.9382812 9.534375,20.175 9.6140625,20.4304687 C9.7078125,20.765625 9.66796875,21.1242188 9.50859375,21.4359375 C9.39140625,21.65625 9.215625,21.8414062 9,21.965625 C8.784375,22.0921875 8.5359375,22.153125 8.2875,22.1414062 C7.89609375,22.0804687 7.51640625,21.9632812 7.1578125,21.7921875 C6.4453125,21.5320312 5.66953125,21.4992188 4.93828125,21.2953125 C4.67578125,21.225 4.4203125,21.1289062 4.15546875,21.0632812 C4.03828125,21.0375 3.92109375,21.0046875 3.80859375,20.9625 C3.69609375,20.9203125 3.59765625,20.840625 3.53203125,20.7398437 C3.48984375,20.6601562 3.46875,20.5710937 3.4734375,20.4820312 C3.478125,20.3929688 3.496875,20.3039063 3.5296875,20.2195312 C3.59296875,20.053125 3.69375,19.9007812 3.75703125,19.734375 C3.84609375,19.4765625 3.8765625,19.2046875 3.8484375,18.9328125 C3.8296875,18.6632812 3.78046875,18.3960937 3.76640625,18.1242187 C3.75703125,18.0046875 3.76171875,17.8828125 3.7828125,17.7632812 C3.80390625,17.64375 3.86015625,17.5335938 3.94453125,17.4445312 C4.04296875,17.3554688 4.16484375,17.296875 4.29609375,17.2804687 C4.42734375,17.2640625 4.55859375,17.2640625 4.6875,17.2804687 C4.81875,17.296875 4.95,17.3015625 5.08125,17.2992187 C5.3390625,17.2992187 5.5734375,17.1492187 5.68359375,16.9148437 C5.7375,16.809375 5.784375,16.6992187 5.821875,16.5890625 C5.86171875,16.4765625 5.915625,16.3710938 5.97890625,16.2703125 C6.04453125,16.1695312 6.13828125,16.0898437 6.2484375,16.0429687" id="路径" fill="#F5BD0C"></path>
                    </g>
                </g>
            </g>
        </g>
    </g>
</svg>