<?xml version="1.0" encoding="UTF-8"?>
<svg width="156px" height="44px" viewBox="0 0 156 44" version="1.1" xmlns="http://www.w3.org/2000/svg" xmlns:xlink="http://www.w3.org/1999/xlink">
    <title>编组 75</title>
    <g id="页面-1" stroke="none" stroke-width="1" fill="none" fill-rule="evenodd">
        <g id="编组-75">
            <rect id="矩形" stroke="#FFA903" fill="#FFF6E5" x="0.5" y="0.5" width="155" height="43" rx="4"></rect>
            <path d="M4,0 L44,0 L44,0 L44,44 L4,44 C1.790861,44 2.04689834e-15,42.209139 0,40 L0,4 C-2.705415e-16,1.790861 1.790861,2.18216909e-15 4,0 Z" id="矩形备份-22" fill="#FFA903"></path>
            <g id="通知" transform="translate(8.000000, 8.000000)" fill-rule="nonzero">
                <rect id="矩形" fill="#000000" opacity="0" x="0" y="0" width="28" height="28"></rect>
                <path d="M22.5449219,22.6050781 L6.06210937,22.6050781 C5.5890625,22.6050781 5.14882812,22.3699219 4.88359375,21.9789063 C4.61835937,21.5851563 4.56640625,21.0902344 4.74414062,20.65 L6.08945312,17.3277344 L6.08945312,12.2800781 C6.08945312,11.2164063 6.3,10.1828125 6.715625,9.20664063 C7.11484375,8.26601563 7.68632812,7.42109375 8.41367187,6.69375 C9.14101562,5.96640625 9.9859375,5.39492188 10.9265625,4.99570313 C11.9027344,4.58007813 12.9363281,4.36953125 14,4.36953125 L14.0191406,4.36953125 C15.0828125,4.36953125 16.1164062,4.58007813 17.0925781,4.99570313 C18.0332031,5.39492188 18.878125,5.96640625 19.6054687,6.69375 C20.3328125,7.42109375 20.9042969,8.26601563 21.3035156,9.20664063 C21.7191406,10.1828125 21.9296875,11.2164063 21.9296875,12.2800781 L21.9296875,17.2648438 L23.7753906,20.475 C24.0324219,20.9207031 24.0296875,21.4511719 23.7726562,21.896875 C23.5183594,22.3398438 23.05625,22.6050781 22.5449219,22.6050781 Z M6.54882812,20.8550781 L21.9761719,20.8550781 L20.1796875,17.7324219 L20.1796875,12.2800781 C20.1796875,10.6421875 19.5371094,9.09726563 18.3695312,7.9296875 C17.2019531,6.76210938 15.6570312,6.11953125 14.0191406,6.11953125 L14,6.11953125 C12.3621094,6.11953125 10.8171875,6.76210938 9.64960937,7.9296875 C8.48203125,9.09726563 7.83945312,10.6421875 7.83945312,12.2800781 L7.83945312,17.6695313 L6.54882812,20.8550781 Z" id="形状" fill="#FFFFFF"></path>
                <path d="M11.834375,6.365625 C11.4652344,6.365625 11.1398437,6.10039062 11.0742187,5.72578125 C11.0441406,5.55625 11.0304687,5.38398437 11.0304687,5.21445312 C11.0304687,3.5875 12.3539062,2.26132812 13.9835937,2.26132812 C15.6132812,2.26132812 16.9367187,3.58476562 16.9367187,5.21445312 C16.9367187,5.38398437 16.9203125,5.55625 16.8929687,5.72578125 C16.8191406,6.14140625 16.4253906,6.42304687 16.0070312,6.3546875 L14.4539062,6.103125 C14.1421875,6.05117187 13.825,6.05117187 13.5105469,6.103125 L11.9574219,6.3546875 C11.9164062,6.36289062 11.8753906,6.365625 11.834375,6.365625 Z M13.9808594,4.51992187 C14.2214844,4.51992187 14.4621094,4.5390625 14.7,4.57734375 L15.2796875,4.6703125 C15.0664062,4.16445312 14.5660156,3.80625 13.9808594,3.80625 C13.3957031,3.80625 12.8953125,4.16445312 12.6820312,4.6703125 L13.2617187,4.57734375 C13.5023437,4.5390625 13.7429687,4.51992187 13.9808594,4.51992187 L13.9808594,4.51992187 Z M17.9921875,25.8671875 L10.3003906,25.8671875 C9.81914062,25.8671875 9.42539062,25.4734375 9.42539062,24.9921875 C9.42539062,24.5109375 9.81914062,24.1171875 10.3003906,24.1171875 L17.9921875,24.1171875 C18.4734375,24.1171875 18.8671875,24.5109375 18.8671875,24.9921875 C18.8671875,25.4734375 18.4734375,25.8671875 17.9921875,25.8671875 Z" id="形状" fill="#FFFFFF"></path>
            </g>
            <text id="系统通知" font-family="PingFangSC-Regular, PingFang SC" font-size="22" font-weight="normal" fill="#FFA903">
                <tspan x="56" y="30">系统通知</tspan>
            </text>
        </g>
    </g>
</svg>