<?xml version="1.0" encoding="UTF-8"?>
<svg width="26px" height="26px" viewBox="0 0 26 26" version="1.1" xmlns="http://www.w3.org/2000/svg" xmlns:xlink="http://www.w3.org/1999/xlink">
    <title>编组 16</title>
    <g id="页面-1" stroke="none" stroke-width="1" fill="none" fill-rule="evenodd">
        <g id="TADS首页" transform="translate(-924.000000, -298.000000)">
            <g id="编组-16" transform="translate(924.000000, 298.000000)">
                <g id="受攻击" fill-rule="nonzero">
                    <rect id="矩形" fill="#000000" opacity="0" x="0" y="0" width="26" height="26"></rect>
                    <path d="M11.851125,4.168125 C11.997681,3.91960567 12.2646108,3.76698609 12.553125,3.76675 L13.563875,3.77 C13.8548178,3.77067617 14.1231927,3.92686664 14.2675,4.1795 L16.198,7.5595 L18.05375,6.5 L15.507375,2.042625 C15.3633571,1.79049377 15.0957364,1.63438166 14.805375,1.633125 L11.31,1.62499944 C11.020906,1.62466074 10.7532255,1.77735608 10.606375,2.026375 L7.889375,6.660875 L9.75,7.748 L11.851125,4.168125 Z M24.336,9.680125 L22.0675,8.242 L21.94725,5.551 L16.57825,11.3945 L24.336,9.680125 Z M4.017,5.51525 L3.898375,8.22575 L1.613625,9.672 L9.423375,11.412375 L4.017,5.51525 Z M10.842,24.375 L12.972375,23.2635 L15.114125,24.375 L12.972375,17.5825 L10.842,24.375 Z M21.42725,12.4865 L19.560125,13.563875 L21.6255,17.16325 C21.7693916,17.4138111 21.7693916,17.7219389 21.6255,17.9725 L21.12175,18.848375 C20.976492,19.1006399 20.707597,19.2561529 20.4165,19.25625 L16.523,19.25625 L16.523,21.393125 L21.65475,21.393125 C21.9453565,21.3927828 22.2136531,21.2372576 22.358375,20.98525 L24.100375,17.954625 C24.2449336,17.7042422 24.2449336,17.3957578 24.100375,17.145375 L21.42725,12.4865 L21.42725,12.4865 Z M4.80025,18.863 L4.064125,17.567875 L6.361875,13.599625 L4.49475,12.52225 L1.82,17.16325 C1.67548548,17.4142251 1.67548548,17.7231499 1.82,17.974125 L3.560375,21.003125 C3.70563296,21.2553899 3.97452804,21.4109029 4.265625,21.411 L9.468875,21.411 L9.468875,19.274125 L5.5055,19.274125 C5.21345422,19.2743798 4.94392708,19.1172591 4.80025,18.863 Z" id="形状" fill="#FFA06C"></path>
                </g>
                <text id="IP" font-family="DIN-Bold, DIN" font-size="8" font-weight="bold" fill="#FFA06C">
                    <tspan x="10" y="16">IP</tspan>
                </text>
            </g>
        </g>
    </g>
</svg>