<?xml version="1.0" encoding="UTF-8"?>
<svg width="26px" height="26px" viewBox="0 0 26 26" version="1.1" xmlns="http://www.w3.org/2000/svg" xmlns:xlink="http://www.w3.org/1999/xlink">
    <title>异地登录</title>
    <g id="页面-1" stroke="none" stroke-width="1" fill="none" fill-rule="evenodd">
        <g id="TADS首页" transform="translate(-1371.000000, -356.000000)" fill-rule="nonzero">
            <g id="异地登录" transform="translate(1371.000000, 356.000000)">
                <rect id="矩形" fill="#000000" opacity="0" x="0" y="0" width="26" height="26"></rect>
                <path d="M20.6854883,3.58591797 L5.36173828,3.58591797 C3.77431641,3.58591797 2.48828125,4.87169922 2.48828125,6.45912109 L2.48828125,16.0364648 C2.48828125,17.6238867 3.7740625,18.909668 5.36148437,18.909668 L12.065625,18.909668 L12.065625,20.8251367 L9.19267578,20.8251367 C8.66378906,20.8251367 8.23494141,21.2539844 8.23494141,21.7828711 C8.23494141,22.3117578 8.66378906,22.7406055 9.19267578,22.7406055 L16.8545508,22.7406055 C17.3834375,22.7406055 17.8122852,22.3117578 17.8122852,21.7828711 C17.8122852,21.2539844 17.3834375,20.8251367 16.8545508,20.8251367 L13.9813477,20.8251367 L13.9813477,18.909668 L20.6854883,18.909668 C22.2729102,18.909668 23.5586914,17.6238867 23.5586914,16.0364648 L23.5586914,6.45912109 C23.5586914,4.87169922 22.2729102,3.58591797 20.6854883,3.58591797 L20.6854883,3.58591797 Z M21.6432227,16.0367187 C21.6432227,16.5658594 21.2146289,16.9944531 20.6854883,16.9944531 L5.36173828,16.9944531 C4.83259766,16.9944531 4.40400391,16.5658594 4.40400391,16.0367187 L4.40400391,6.459375 C4.40400391,5.93023438 4.83259766,5.50164063 5.36173828,5.50164063 L20.6857422,5.50164063 C21.2148828,5.50164063 21.6434766,5.93023438 21.6434766,6.459375 L21.6434766,16.0367187 L21.6432227,16.0367187 Z" id="形状" fill="#FF4F16"></path>
                <path d="M13.0964844,12.6744922 C13.636543,12.6744922 14.0745312,12.2365039 14.0745312,11.6964453 L14.0745312,7.36226563 C14.0745312,6.82220703 13.636543,6.38421875 13.0964844,6.38421875 C12.5564258,6.38421875 12.1184375,6.82220703 12.1184375,7.36226563 L12.1184375,11.6964453 C12.1184375,12.2365039 12.5564258,12.6744922 13.0964844,12.6744922 Z M14.1339453,14.0956055 C13.8564258,13.544375 13.1843359,13.3224609 12.6331055,13.5999805 C12.081875,13.8775 11.8599609,14.5495898 12.1374805,15.1010742 C12.415,15.6523047 13.0870898,15.8742188 13.6385742,15.5966992 C14.1895508,15.3189258 14.4114648,14.6468359 14.1339453,14.0956055 Z" id="形状" fill="#FF4F16"></path>
            </g>
        </g>
    </g>
</svg>