<?xml version="1.0" encoding="UTF-8"?>
<svg width="48px" height="48px" viewBox="0 0 48 48" version="1.1" xmlns="http://www.w3.org/2000/svg" xmlns:xlink="http://www.w3.org/1999/xlink">
    <title>icon_动态感知</title>
    <g id="页面-1" stroke="none" stroke-width="1" fill="none" fill-rule="evenodd">
        <g id="TADS首页" transform="translate(-1576.000000, -822.000000)" fill-rule="nonzero">
            <g id="编组-3" transform="translate(190.000000, 785.000000)">
                <g id="icon_动态感知" transform="translate(1386.000000, 37.000000)">
                    <rect id="矩形" fill="#000000" opacity="0" x="0" y="0" width="48" height="48"></rect>
                    <path d="M22.4859375,33.3140625 L22.4578125,33.3140625 C22.1390625,33.3 21.8578125,33.0890625 21.7640625,32.7796875 L17.19375,18.1546875 L14.5921875,24.5109375 C14.475,24.796875 14.1984375,24.984375 13.8890625,24.984375 L10.89375,24.984375 C10.471875,24.984375 10.134375,24.646875 10.134375,24.225 C10.134375,23.803125 10.471875,23.465625 10.89375,23.465625 L13.378125,23.465625 L16.5796875,15.628125 C16.7015625,15.3328125 16.9828125,15.159375 17.315625,15.1546875 C17.634375,15.16875 17.9109375,15.3796875 18.009375,15.6890625 L22.5703125,30.2953125 L26.5078125,20.4890625 C26.6203125,20.203125 26.896875,20.015625 27.2015625,20.0109375 C27.5203125,20.0390625 27.7875,20.1890625 27.9046875,20.4703125 L30.3421875,26.1375 L31.5703125,23.8265625 C31.7015625,23.578125 31.959375,23.4234375 32.240625,23.4234375 L34.865625,23.4234375 C35.2875,23.4234375 35.625,23.7609375 35.625,24.1828125 C35.625,24.6046875 35.2875,24.9421875 34.865625,24.9421875 L32.6953125,24.9421875 L30.9375,28.2421875 C30.8015625,28.5 30.515625,28.6453125 30.234375,28.6453125 C29.94375,28.63125 29.6859375,28.453125 29.56875,28.1859375 L27.2296875,22.7484375 L23.1796875,32.840625 C23.0765625,33.1265625 22.7953125,33.3140625 22.4859375,33.3140625 L22.4859375,33.3140625 Z" id="路径" fill="#1195FE"></path>
                    <path d="M36.3046875,11.53125 C38.3765625,13.603125 39.9234375,16.171875 40.7765625,18.95625 L42.271875,18.496875 C41.34375,15.46875 39.6609375,12.6796875 37.4109375,10.425 C32.521875,5.5359375 25.59375,3.6140625 18.8765625,5.278125 L19.25625,6.796875 C25.434375,5.2640625 31.809375,7.0359375 36.3046875,11.53125 Z M10.8984375,11.53125 L9.7921875,10.425 C2.175,18.0421875 2.175,30.43125 9.7921875,38.04375 L10.8984375,36.9375 C3.8953125,29.9296875 3.8953125,18.534375 10.8984375,11.53125 Z M42.5765625,28.865625 L41.053125,28.4953125 C40.2796875,31.6828125 38.634375,34.603125 36.3,36.9375 C31.7484375,41.4890625 25.059375,43.2609375 18.84375,41.5640625 L18.43125,43.0734375 C25.1859375,44.9203125 32.4609375,42.99375 37.40625,38.04375 C39.946875,35.5078125 41.7375,32.334375 42.5765625,28.865625 L42.5765625,28.865625 Z M40.74375,25.93125 C41.709375,26.896875 43.2796875,26.896875 44.2453125,25.93125 C45.2109375,24.965625 45.2109375,23.3953125 44.2453125,22.4296875 C43.2796875,21.4640625 41.709375,21.4640625 40.7484375,22.4296875 C39.7828125,23.3953125 39.7828125,24.965625 40.74375,25.93125 Z M43.5703125,23.1046875 C44.165625,23.7 44.165625,24.665625 43.5703125,25.25625 C42.975,25.8515625 42.009375,25.8515625 41.41875,25.25625 C40.8234375,24.6609375 40.8234375,23.6953125 41.41875,23.1046875 C42.0140625,22.5140625 42.9796875,22.5140625 43.5703125,23.1046875 L43.5703125,23.1046875 Z M16.284375,38.71875 C15.31875,37.753125 13.74375,37.753125 12.778125,38.71875 C11.8125,39.684375 11.8125,41.259375 12.778125,42.225 C13.74375,43.190625 15.31875,43.190625 16.284375,42.225 C17.2546875,41.259375 17.2546875,39.684375 16.284375,38.71875 Z M13.453125,41.55 C12.8578125,40.9546875 12.8578125,39.9890625 13.453125,39.39375 C14.0484375,38.7984375 15.0140625,38.7984375 15.609375,39.39375 C16.2046875,39.9890625 16.2046875,40.9546875 15.609375,41.55 C15.01875,42.1453125 14.0484375,42.1453125 13.453125,41.55 Z M12.8015625,9.7171875 C13.7671875,10.6828125 15.3421875,10.6828125 16.3078125,9.7171875 C17.2734375,8.7515625 17.2734375,7.1765625 16.3078125,6.2109375 C15.3421875,5.2453125 13.7671875,5.2453125 12.8015625,6.2109375 C11.8359375,7.18125 11.8359375,8.7515625 12.8015625,9.7171875 Z M15.6328125,6.8859375 C16.228125,7.48125 16.228125,8.446875 15.6328125,9.0421875 C15.0375,9.6375 14.071875,9.6375 13.4765625,9.0421875 C12.88125,8.446875 12.88125,7.48125 13.4765625,6.8859375 C14.071875,6.290625 15.0375,6.290625 15.6328125,6.8859375 Z" id="形状" fill="#1195FE"></path>
                    <path d="M38.353125,19.1015625 C32.9671875,6.384375 20.2875,9 20.1609375,9.0328125 L20.0015625,8.3015625 C20.1328125,8.26875 33.421875,5.53125 39.0421875,18.8109375 L38.353125,19.1015625 L38.353125,19.1015625 Z" id="路径" fill="#1195FE"></path>
                </g>
            </g>
        </g>
    </g>
</svg>