<?xml version="1.0" encoding="UTF-8"?>
<svg width="803px" height="225px" viewBox="0 0 803 225" version="1.1" xmlns="http://www.w3.org/2000/svg" xmlns:xlink="http://www.w3.org/1999/xlink">
    <title>编组 4</title>
    <defs>
        <polygon id="path-1" points="53.1310345 0 99.1438601 26.5655172 99.1438601 79.6965517 53.1310345 106.262069 7.11820889 79.6965517 7.11820889 26.5655172"></polygon>
        <polygon id="path-3" points="53.1310345 0 99.1438601 26.5655172 99.1438601 79.6965517 53.1310345 106.262069 7.11820889 79.6965517 7.11820889 26.5655172"></polygon>
        <polygon id="path-5" points="53.1310345 0 99.1438601 26.5655172 99.1438601 79.6965517 53.1310345 106.262069 7.11820889 79.6965517 7.11820889 26.5655172"></polygon>
        <polygon id="path-7" points="53.1310345 0 99.1438601 26.5655172 99.1438601 79.6965517 53.1310345 106.262069 7.11820889 79.6965517 7.11820889 26.5655172"></polygon>
        <polygon id="path-9" points="53.1310345 0 99.1438601 26.5655172 99.1438601 79.6965517 53.1310345 106.262069 7.11820889 79.6965517 7.11820889 26.5655172"></polygon>
        <polygon id="path-11" points="37.6171875 0 70.1946275 18.8085938 70.1946275 56.4257812 37.6171875 75.234375 5.03974751 56.4257813 5.03974751 18.8085937"></polygon>
        <polygon id="path-13" points="62.5 0 116.626588 31.25 116.626588 93.75 62.5 125 8.37341226 93.75 8.37341226 31.25"></polygon>
    </defs>
    <g id="页面-1" stroke="none" stroke-width="1" fill="none" fill-rule="evenodd">
        <g id="编组-4" transform="translate(0.600000, 0.000000)">
            <rect id="矩形" fill="#123072" x="139.4" y="133" width="115" height="33"></rect>
            <g id="攻击链" transform="translate(244.400000, 0.000000)">
                <g id="编组-34" transform="translate(0.000000, 86.000000)">
                    <g id="编组-12备份-3">
                        <g id="编组-22" transform="translate(13.903448, 13.903448)" opacity="0.5" stroke="#02E0B7" stroke-linecap="round" stroke-width="3.6">
                            <path d="M0,99.3103448 L6.31675983,92.993585 M94.1221461,5.18819875 L99.3103448,0" id="形状"></path>
                            <path d="M0,99.3103448 L6.31675983,92.993585 M94.1221461,5.18819875 L99.3103448,0" id="形状" transform="translate(49.655172, 49.655172) scale(-1, 1) translate(-49.655172, -49.655172) "></path>
                        </g>
                        <path d="M63.5586207,1.55884573 L117.252001,32.5587332 L117.252001,94.5585082 L63.5586207,125.558396 L9.86524054,94.5585082 L9.86524054,32.5587332 L63.5586207,1.55884573 Z" id="多边形" stroke="#02F0C1" stroke-width="2.7"></path>
                        <g id="编组-19" transform="translate(10.924138, 10.924138)">
                            <mask id="mask-2" fill="white">
                                <use xlink:href="#path-1"></use>
                            </mask>
                            <use id="蒙版" fill-opacity="0.5" fill="#030C31" xlink:href="#path-1"></use>
                            <g id="编组-21" opacity="0.300000012" mask="url(#mask-2)" stroke="#02E7BC" stroke-width="0.9">
                                <g transform="translate(45.682759, 51.641379) rotate(-30.000000) translate(-45.682759, -51.641379) translate(-51.641379, -2.979310)">
                                    <line x1="-2.11473838e-13" y1="26.3172414" x2="194.151724" y2="25.8206897" id="路径-19"></line>
                                    <line x1="4.33619064e-12" y1="30.2896552" x2="194.151724" y2="29.7931034" id="路径-19"></line>
                                    <line x1="5.24430081e-12" y1="1.48965517" x2="194.151724" y2="0.993103448" id="路径-19备份"></line>
                                    <line x1="2.0646023e-12" y1="74.9793103" x2="194.151724" y2="74.4827586" id="路径-19"></line>
                                    <line x1="2.51767866e-12" y1="40.2206897" x2="194.151724" y2="39.7241379" id="路径-19"></line>
                                    <line x1="2.51629413e-12" y1="11.4206897" x2="194.151724" y2="10.9241379" id="路径-19备份-2"></line>
                                    <line x1="5.24453952e-12" y1="6.45517241" x2="194.151724" y2="5.95862069" id="路径-19备份"></line>
                                    <line x1="3.88077489e-12" y1="16.3862069" x2="194.151724" y2="15.8896552" id="路径-19备份-2"></line>
                                    <line x1="3.88383042e-12" y1="79.9448276" x2="194.151724" y2="79.4482759" id="路径-19"></line>
                                    <line x1="5.24664019e-12" y1="50.1517241" x2="194.151724" y2="49.6551724" id="路径-19"></line>
                                    <line x1="4.79050831e-12" y1="21.3517241" x2="194.151724" y2="20.8551724" id="路径-19备份-3"></line>
                                    <line x1="5.24826344e-12" y1="83.9172414" x2="194.151724" y2="83.4206897" id="路径-19"></line>
                                    <line x1="1.60913881e-12" y1="60.0827586" x2="194.151724" y2="59.5862069" id="路径-19"></line>
                                    <line x1="4.33642935e-12" y1="35.2551724" x2="194.151724" y2="34.7586207" id="路径-19"></line>
                                    <line x1="3.88215943e-12" y1="45.1862069" x2="194.151724" y2="44.6896552" id="路径-19"></line>
                                    <line x1="5.24687891e-12" y1="55.1172414" x2="194.151724" y2="54.6206897" id="路径-19"></line>
                                    <line x1="4.33786163e-12" y1="65.0482759" x2="194.151724" y2="64.5517241" id="路径-19"></line>
                                    <line x1="2.52001805e-12" y1="88.8827586" x2="194.151724" y2="88.3862069" id="路径-19"></line>
                                    <line x1="4.33810034e-12" y1="70.0137931" x2="194.151724" y2="69.5172414" id="路径-19"></line>
                                    <line x1="3.88449881e-12" y1="93.8482759" x2="194.151724" y2="93.3517241" id="路径-19"></line>
                                    <line x1="4.79423223e-12" y1="98.8137931" x2="194.151724" y2="98.3172414" id="路径-19"></line>
                                    <line x1="2.52073418e-12" y1="103.77931" x2="194.151724" y2="103.282759" id="路径-19"></line>
                                    <line x1="3.88521495e-12" y1="108.744828" x2="194.151724" y2="108.248276" id="路径-19"></line>
                                </g>
                            </g>
                        </g>
                    </g>
                    <g id="编组-14" transform="translate(19.000000, 19.000000)">
                        <g id="编组-10" fill="#123072">
                            <circle id="椭圆形" cx="45" cy="45" r="45"></circle>
                        </g>
                        <g id="编组-8" transform="translate(13.000000, 52.000000)"></g>
                    </g>
                </g>
                <g id="编组-34备份" transform="translate(108.000000, 86.000000)">
                    <g id="编组-12备份-3">
                        <g id="编组-22" transform="translate(13.903448, 13.903448)" opacity="0.5" stroke="#02E0B7" stroke-linecap="round" stroke-width="3.6">
                            <path d="M0,99.3103448 L6.31675983,92.993585 M94.1221461,5.18819875 L99.3103448,0" id="形状"></path>
                            <path d="M0,99.3103448 L6.31675983,92.993585 M94.1221461,5.18819875 L99.3103448,0" id="形状" transform="translate(49.655172, 49.655172) scale(-1, 1) translate(-49.655172, -49.655172) "></path>
                        </g>
                        <path d="M63.5586207,1.55884573 L117.252001,32.5587332 L117.252001,94.5585082 L63.5586207,125.558396 L9.86524054,94.5585082 L9.86524054,32.5587332 L63.5586207,1.55884573 Z" id="多边形" stroke="#02F0C1" stroke-width="2.7"></path>
                        <g id="编组-19" transform="translate(10.924138, 10.924138)">
                            <mask id="mask-4" fill="white">
                                <use xlink:href="#path-3"></use>
                            </mask>
                            <use id="蒙版" fill-opacity="0.5" fill="#030C31" xlink:href="#path-3"></use>
                            <g id="编组-21" opacity="0.300000012" mask="url(#mask-4)" stroke="#02E7BC" stroke-width="0.9">
                                <g transform="translate(45.682759, 51.641379) rotate(-30.000000) translate(-45.682759, -51.641379) translate(-51.641379, -2.979310)">
                                    <line x1="2.43273513e-13" y1="26.3172414" x2="194.151724" y2="25.8206897" id="路径-19"></line>
                                    <line x1="3.42669594e-12" y1="30.2896552" x2="194.151724" y2="29.7931034" id="路径-19"></line>
                                    <line x1="5.69904816e-12" y1="1.48965517" x2="194.151724" y2="0.993103448" id="路径-19备份"></line>
                                    <line x1="3.8835917e-12" y1="74.9793103" x2="194.151724" y2="74.4827586" id="路径-19"></line>
                                    <line x1="2.97242601e-12" y1="40.2206897" x2="194.151724" y2="39.7241379" id="路径-19"></line>
                                    <line x1="3.42578883e-12" y1="11.4206897" x2="194.151724" y2="10.9241379" id="路径-19备份-2"></line>
                                    <line x1="5.69928687e-12" y1="6.45517241" x2="194.151724" y2="5.95862069" id="路径-19备份"></line>
                                    <line x1="3.42602754e-12" y1="16.3862069" x2="194.151724" y2="15.8896552" id="路径-19备份-2"></line>
                                    <line x1="3.88383042e-12" y1="79.9448276" x2="194.151724" y2="79.4482759" id="路径-19"></line>
                                    <line x1="5.70138754e-12" y1="50.1517241" x2="194.151724" y2="49.6551724" id="路径-19"></line>
                                    <line x1="6.15475036e-12" y1="21.3517241" x2="194.151724" y2="20.8551724" id="路径-19备份-3"></line>
                                    <line x1="5.70301079e-12" y1="83.9172414" x2="194.151724" y2="83.4206897" id="路径-19"></line>
                                    <line x1="3.88287557e-12" y1="60.0827586" x2="194.151724" y2="59.5862069" id="路径-19"></line>
                                    <line x1="3.42693465e-12" y1="35.2551724" x2="194.151724" y2="34.7586207" id="路径-19"></line>
                                    <line x1="3.88215943e-12" y1="45.1862069" x2="194.151724" y2="44.6896552" id="路径-19"></line>
                                    <line x1="6.15637361e-12" y1="55.1172414" x2="194.151724" y2="54.6206897" id="路径-19"></line>
                                    <line x1="3.88311428e-12" y1="65.0482759" x2="194.151724" y2="64.5517241" id="路径-19"></line>
                                    <line x1="2.06527069e-12" y1="88.8827586" x2="194.151724" y2="88.3862069" id="路径-19"></line>
                                    <line x1="3.88335299e-12" y1="70.0137931" x2="194.151724" y2="69.5172414" id="路径-19"></line>
                                    <line x1="3.42975146e-12" y1="93.8482759" x2="194.151724" y2="93.3517241" id="路径-19"></line>
                                    <line x1="6.15847428e-12" y1="98.8137931" x2="194.151724" y2="98.3172414" id="路径-19"></line>
                                    <line x1="2.97548153e-12" y1="103.77931" x2="194.151724" y2="103.282759" id="路径-19"></line>
                                    <line x1="3.88521495e-12" y1="108.744828" x2="194.151724" y2="108.248276" id="路径-19"></line>
                                </g>
                            </g>
                        </g>
                    </g>
                    <g id="编组-14" transform="translate(19.000000, 19.000000)">
                        <g id="编组-10" fill="#123072">
                            <circle id="椭圆形" cx="45" cy="45" r="45"></circle>
                        </g>
                        <g id="编组-8" transform="translate(13.000000, 52.000000)"></g>
                    </g>
                </g>
                <g id="编组-34备份-2" transform="translate(215.000000, 87.000000)">
                    <g id="编组-12备份-3">
                        <g id="编组-22" transform="translate(13.903448, 13.903448)" opacity="0.5" stroke="#02E0B7" stroke-linecap="round" stroke-width="3.6">
                            <path d="M0,99.3103448 L6.31675983,92.993585 M94.1221461,5.18819875 L99.3103448,0" id="形状"></path>
                            <path d="M0,99.3103448 L6.31675983,92.993585 M94.1221461,5.18819875 L99.3103448,0" id="形状" transform="translate(49.655172, 49.655172) scale(-1, 1) translate(-49.655172, -49.655172) "></path>
                        </g>
                        <path d="M63.5586207,1.55884573 L117.252001,32.5587332 L117.252001,94.5585082 L63.5586207,125.558396 L9.86524054,94.5585082 L9.86524054,32.5587332 L63.5586207,1.55884573 Z" id="多边形" stroke="#66FFFF" stroke-width="2.7"></path>
                        <g id="编组-19" transform="translate(10.924138, 10.924138)">
                            <mask id="mask-6" fill="white">
                                <use xlink:href="#path-5"></use>
                            </mask>
                            <use id="蒙版" fill-opacity="0.5" fill="#030C31" xlink:href="#path-5"></use>
                            <g id="编组-21" opacity="0.300000012" mask="url(#mask-6)" stroke="#02E7BC" stroke-width="0.9">
                                <g transform="translate(45.682759, 51.641379) rotate(-30.000000) translate(-45.682759, -51.641379) translate(-51.641379, -2.979310)">
                                    <line x1="6.98076375e-13" y1="26.3172414" x2="194.151724" y2="25.8206897" id="路径-19"></line>
                                    <line x1="4.7909935e-12" y1="30.2896552" x2="194.151724" y2="29.7931034" id="路径-19"></line>
                                    <line x1="4.78960897e-12" y1="1.48965517" x2="194.151724" y2="0.993103448" id="路径-19备份"></line>
                                    <line x1="2.51940516e-12" y1="74.9793103" x2="194.151724" y2="74.4827586" id="路径-19"></line>
                                    <line x1="3.42722888e-12" y1="40.2206897" x2="194.151724" y2="39.7241379" id="路径-19"></line>
                                    <line x1="2.51634964e-12" y1="11.4206897" x2="194.151724" y2="10.9241379" id="路径-19备份-2"></line>
                                    <line x1="4.78984768e-12" y1="6.45517241" x2="194.151724" y2="5.95862069" id="路径-19备份"></line>
                                    <line x1="4.79032511e-12" y1="16.3862069" x2="194.151724" y2="15.8896552" id="路径-19备份-2"></line>
                                    <line x1="4.79338063e-12" y1="79.9448276" x2="194.151724" y2="79.4482759" id="路径-19"></line>
                                    <line x1="4.79194835e-12" y1="50.1517241" x2="194.151724" y2="49.6551724" id="路径-19"></line>
                                    <line x1="5.24531117e-12" y1="21.3517241" x2="194.151724" y2="20.8551724" id="路径-19备份-3"></line>
                                    <line x1="4.7935716e-12" y1="83.9172414" x2="194.151724" y2="83.4206897" id="路径-19"></line>
                                    <line x1="2.97343637e-12" y1="60.0827586" x2="194.151724" y2="59.5862069" id="路径-19"></line>
                                    <line x1="4.79123222e-12" y1="35.2551724" x2="194.151724" y2="34.7586207" id="路径-19"></line>
                                    <line x1="4.33696229e-12" y1="45.1862069" x2="194.151724" y2="44.6896552" id="路径-19"></line>
                                    <line x1="4.79218707e-12" y1="55.1172414" x2="194.151724" y2="54.6206897" id="路径-19"></line>
                                    <line x1="4.79266449e-12" y1="65.0482759" x2="194.151724" y2="64.5517241" id="路径-19"></line>
                                    <line x1="3.88431561e-12" y1="88.8827586" x2="194.151724" y2="88.3862069" id="路径-19"></line>
                                    <line x1="4.7929032e-12" y1="70.0137931" x2="194.151724" y2="69.5172414" id="路径-19"></line>
                                    <line x1="4.79404902e-12" y1="93.8482759" x2="194.151724" y2="93.3517241" id="路径-19"></line>
                                    <line x1="5.24903509e-12" y1="98.8137931" x2="194.151724" y2="98.3172414" id="路径-19"></line>
                                    <line x1="3.4302844e-12" y1="103.77931" x2="194.151724" y2="103.282759" id="路径-19"></line>
                                    <line x1="2.97577576e-12" y1="108.744828" x2="194.151724" y2="108.248276" id="路径-19"></line>
                                </g>
                            </g>
                        </g>
                    </g>
                    <g id="编组-14" transform="translate(19.000000, 19.000000)">
                        <g id="编组-10" fill="#123072">
                            <circle id="椭圆形" cx="45" cy="45" r="45"></circle>
                        </g>
                        <g id="编组-8" transform="translate(12.000000, 5.000000)"></g>
                    </g>
                </g>
                <g id="编组-34备份-5" transform="translate(322.000000, 88.000000)">
                    <g id="编组-12备份-3">
                        <g id="编组-22" transform="translate(13.903448, 13.903448)" opacity="0.5" stroke="#02E0B7" stroke-linecap="round" stroke-width="3.6">
                            <path d="M0,99.3103448 L6.31675983,92.993585 M94.1221461,5.18819875 L99.3103448,0" id="形状"></path>
                            <path d="M0,99.3103448 L6.31675983,92.993585 M94.1221461,5.18819875 L99.3103448,0" id="形状" transform="translate(49.655172, 49.655172) scale(-1, 1) translate(-49.655172, -49.655172) "></path>
                        </g>
                        <path d="M63.5586207,1.55884573 L117.252001,32.5587332 L117.252001,94.5585082 L63.5586207,125.558396 L9.86524054,94.5585082 L9.86524054,32.5587332 L63.5586207,1.55884573 Z" id="多边形" stroke="#02F0C1" stroke-width="2.7"></path>
                        <g id="编组-19" transform="translate(10.924138, 10.924138)">
                            <mask id="mask-8" fill="white">
                                <use xlink:href="#path-7"></use>
                            </mask>
                            <use id="蒙版" fill-opacity="0.5" fill="#030C31" xlink:href="#path-7"></use>
                            <g id="编组-21" opacity="0.300000012" mask="url(#mask-8)" stroke="#02E7BC" stroke-width="0.9">
                                <g transform="translate(45.682759, 51.641379) rotate(-30.000000) translate(-45.682759, -51.641379) translate(-51.641379, -2.979310)">
                                    <line x1="-6.66110167e-13" y1="26.3172414" x2="194.151724" y2="25.8206897" id="路径-19"></line>
                                    <line x1="2.51731226e-12" y1="30.2896552" x2="194.151724" y2="29.7931034" id="路径-19"></line>
                                    <line x1="2.06118038e-12" y1="1.48965517" x2="194.151724" y2="0.993103448" id="路径-19备份"></line>
                                    <line x1="2.45723918e-13" y1="74.9793103" x2="194.151724" y2="74.4827586" id="路径-19"></line>
                                    <line x1="6.98800281e-13" y1="40.2206897" x2="194.151724" y2="39.7241379" id="路径-19"></line>
                                    <line x1="2.42668397e-13" y1="11.4206897" x2="194.151724" y2="10.9241379" id="路径-19备份-2"></line>
                                    <line x1="2.06141909e-12" y1="6.45517241" x2="194.151724" y2="5.95862069" id="路径-19备份"></line>
                                    <line x1="2.97139121e-12" y1="16.3862069" x2="194.151724" y2="15.8896552" id="路径-19备份-2"></line>
                                    <line x1="2.97444674e-12" y1="79.9448276" x2="194.151724" y2="79.4482759" id="路径-19"></line>
                                    <line x1="2.51826711e-12" y1="50.1517241" x2="194.151724" y2="49.6551724" id="路径-19"></line>
                                    <line x1="2.97162993e-12" y1="21.3517241" x2="194.151724" y2="20.8551724" id="路径-19备份-3"></line>
                                    <line x1="2.065143e-12" y1="83.9172414" x2="194.151724" y2="83.4206897" id="路径-19"></line>
                                    <line x1="2.45007781e-13" y1="60.0827586" x2="194.151724" y2="59.5862069" id="路径-19"></line>
                                    <line x1="2.51755097e-12" y1="35.2551724" x2="194.151724" y2="34.7586207" id="路径-19"></line>
                                    <line x1="2.5180284e-12" y1="45.1862069" x2="194.151724" y2="44.6896552" id="路径-19"></line>
                                    <line x1="2.51850582e-12" y1="55.1172414" x2="194.151724" y2="54.6206897" id="路径-19"></line>
                                    <line x1="2.0642359e-12" y1="65.0482759" x2="194.151724" y2="64.5517241" id="路径-19"></line>
                                    <line x1="1.15588702e-12" y1="88.8827586" x2="194.151724" y2="88.3862069" id="路径-19"></line>
                                    <line x1="2.06447461e-12" y1="70.0137931" x2="194.151724" y2="69.5172414" id="路径-19"></line>
                                    <line x1="2.97511513e-12" y1="93.8482759" x2="194.151724" y2="93.3517241" id="路径-19"></line>
                                    <line x1="2.97535384e-12" y1="98.8137931" x2="194.151724" y2="98.3172414" id="路径-19"></line>
                                    <line x1="7.01855802e-13" y1="103.77931" x2="194.151724" y2="103.282759" id="路径-19"></line>
                                    <line x1="7.02094515e-13" y1="108.744828" x2="194.151724" y2="108.248276" id="路径-19"></line>
                                </g>
                            </g>
                        </g>
                    </g>
                    <g id="编组-14" transform="translate(19.000000, 19.000000)">
                        <g id="编组-10" fill="#123072">
                            <circle id="椭圆形" cx="45" cy="45" r="45"></circle>
                        </g>
                        <g id="编组-8" transform="translate(13.000000, 4.000000)"></g>
                    </g>
                </g>
                <g id="编组-34备份-7" transform="translate(430.000000, 88.000000)">
                    <g id="编组-12备份-3">
                        <g id="编组-22" transform="translate(13.903448, 13.903448)" opacity="0.5" stroke="#02E0B7" stroke-linecap="round" stroke-width="3.6">
                            <path d="M0,99.3103448 L6.31675983,92.993585 M94.1221461,5.18819875 L99.3103448,0" id="形状"></path>
                            <path d="M0,99.3103448 L6.31675983,92.993585 M94.1221461,5.18819875 L99.3103448,0" id="形状" transform="translate(49.655172, 49.655172) scale(-1, 1) translate(-49.655172, -49.655172) "></path>
                        </g>
                        <path d="M63.5586207,1.55884573 L117.252001,32.5587332 L117.252001,94.5585082 L63.5586207,125.558396 L9.86524054,94.5585082 L9.86524054,32.5587332 L63.5586207,1.55884573 Z" id="多边形" stroke="#66FFFF" stroke-width="2.7"></path>
                        <g id="编组-19" transform="translate(10.924138, 10.924138)">
                            <mask id="mask-10" fill="white">
                                <use xlink:href="#path-9"></use>
                            </mask>
                            <use id="蒙版" fill-opacity="0.5" fill="#030C31" xlink:href="#path-9"></use>
                            <g id="编组-21" opacity="0.300000012" mask="url(#mask-10)" stroke="#02E7BC" stroke-width="0.9">
                                <g transform="translate(45.682759, 51.641379) rotate(-30.000000) translate(-45.682759, -51.641379) translate(-51.641379, -2.979310)">
                                    <line x1="-2.11362816e-13" y1="26.3172414" x2="194.151724" y2="25.8206897" id="路径-19"></line>
                                    <line x1="2.97205961e-12" y1="30.2896552" x2="194.151724" y2="29.7931034" id="路径-19"></line>
                                    <line x1="2.97067508e-12" y1="1.48965517" x2="194.151724" y2="0.993103448" id="路径-19备份"></line>
                                    <line x1="1.15521862e-12" y1="74.9793103" x2="194.151724" y2="74.4827586" id="路径-19"></line>
                                    <line x1="1.60829498e-12" y1="40.2206897" x2="194.151724" y2="39.7241379" id="路径-19"></line>
                                    <line x1="1.1521631e-12" y1="11.4206897" x2="194.151724" y2="10.9241379" id="路径-19备份-2"></line>
                                    <line x1="2.97091379e-12" y1="6.45517241" x2="194.151724" y2="5.95862069" id="路径-19备份"></line>
                                    <line x1="3.88088592e-12" y1="16.3862069" x2="194.151724" y2="15.8896552" id="路径-19备份-2"></line>
                                    <line x1="3.88394144e-12" y1="79.9448276" x2="194.151724" y2="79.4482759" id="路径-19"></line>
                                    <line x1="3.42776181e-12" y1="50.1517241" x2="194.151724" y2="49.6551724" id="路径-19"></line>
                                    <line x1="3.88112463e-12" y1="21.3517241" x2="194.151724" y2="20.8551724" id="路径-19备份-3"></line>
                                    <line x1="2.97463771e-12" y1="83.9172414" x2="194.151724" y2="83.4206897" id="路径-19"></line>
                                    <line x1="1.15450248e-12" y1="60.0827586" x2="194.151724" y2="59.5862069" id="路径-19"></line>
                                    <line x1="2.97229832e-12" y1="35.2551724" x2="194.151724" y2="34.7586207" id="路径-19"></line>
                                    <line x1="3.4275231e-12" y1="45.1862069" x2="194.151724" y2="44.6896552" id="路径-19"></line>
                                    <line x1="3.42800052e-12" y1="55.1172414" x2="194.151724" y2="54.6206897" id="路径-19"></line>
                                    <line x1="2.9737306e-12" y1="65.0482759" x2="194.151724" y2="64.5517241" id="路径-19"></line>
                                    <line x1="1.61063437e-12" y1="88.8827586" x2="194.151724" y2="88.3862069" id="路径-19"></line>
                                    <line x1="2.97396931e-12" y1="70.0137931" x2="194.151724" y2="69.5172414" id="路径-19"></line>
                                    <line x1="3.88460983e-12" y1="93.8482759" x2="194.151724" y2="93.3517241" id="路径-19"></line>
                                    <line x1="3.88484855e-12" y1="98.8137931" x2="194.151724" y2="98.3172414" id="路径-19"></line>
                                    <line x1="1.6113505e-12" y1="103.77931" x2="194.151724" y2="103.282759" id="路径-19"></line>
                                    <line x1="1.15684187e-12" y1="108.744828" x2="194.151724" y2="108.248276" id="路径-19"></line>
                                </g>
                            </g>
                        </g>
                    </g>
                    <g id="编组-14" transform="translate(19.000000, 19.000000)">
                        <g id="编组-10" fill="#123072">
                            <circle id="椭圆形" cx="45" cy="45" r="45"></circle>
                        </g>
                        <g id="编组-8" transform="translate(13.000000, 4.000000)"></g>
                    </g>
                </g>
                <g id="编组-34备份-3" transform="translate(234.000000, 0.000000)">
                    <g id="编组-12备份-3">
                        <g id="编组-22" transform="translate(9.843750, 9.843750)" opacity="0.5" stroke="#02E0B7" stroke-linecap="round" stroke-width="3.6">
                            <path d="M0,70.3125 L4.47231531,65.8401847 M66.6392148,3.67328525 L70.3125,0" id="形状"></path>
                            <path d="M0,70.3125 L4.47231531,65.8401847 M66.6392148,3.67328525 L70.3125,0" id="形状" transform="translate(35.156250, 35.156250) scale(-1, 1) translate(-35.156250, -35.156250) "></path>
                        </g>
                        <path d="M45,1.55884573 L82.6211432,23.2794229 L82.6211432,66.7205771 L45,88.4411543 L7.37885683,66.7205771 L7.37885683,23.2794229 L45,1.55884573 Z" id="多边形" stroke="#66FFFF" stroke-width="2.7"></path>
                        <g id="编组-19" transform="translate(7.734375, 7.734375)">
                            <mask id="mask-12" fill="white">
                                <use xlink:href="#path-11"></use>
                            </mask>
                            <use id="蒙版" fill-opacity="0.5" fill="#030C31" xlink:href="#path-11"></use>
                            <g id="编组-21" opacity="0.300000012" mask="url(#mask-12)" stroke="#02E7BC" stroke-width="0.9">
                                <g transform="translate(32.343750, 36.562500) rotate(-30.000000) translate(-32.343750, -36.562500) translate(-36.562500, -2.109375)">
                                    <line x1="-2.17632452e-13" y1="18.6328125" x2="137.460937" y2="18.28125" id="路径-19"></line>
                                    <line x1="2.37250107e-13" y1="21.4453125" x2="137.460938" y2="21.09375" id="路径-19"></line>
                                    <line x1="-2.18477504e-13" y1="1.0546875" x2="137.460937" y2="0.703125" id="路径-19备份"></line>
                                    <line x1="-2.1597615e-13" y1="53.0859375" x2="137.460937" y2="52.734375" id="路径-19"></line>
                                    <line x1="6.92335479e-13" y1="28.4765625" x2="137.460938" y2="28.125" id="路径-19"></line>
                                    <line x1="6.91355218e-13" y1="8.0859375" x2="137.460938" y2="7.734375" id="路径-19备份-2"></line>
                                    <line x1="-2.18308494e-13" y1="4.5703125" x2="137.460937" y2="4.21875" id="路径-19备份"></line>
                                    <line x1="-2.17970473e-13" y1="11.6015625" x2="137.460937" y2="11.25" id="路径-19备份-2"></line>
                                    <line x1="-2.1580714e-13" y1="56.6015625" x2="137.460937" y2="56.25" id="路径-19"></line>
                                    <line x1="-2.16821202e-13" y1="35.5078125" x2="137.460937" y2="35.15625" id="路径-19"></line>
                                    <line x1="-6.72548814e-13" y1="15.1171875" x2="137.460937" y2="14.765625" id="路径-19备份-3"></line>
                                    <line x1="6.9382277e-13" y1="59.4140625" x2="137.460938" y2="59.0625" id="路径-19"></line>
                                    <line x1="-2.16483182e-13" y1="42.5390625" x2="137.460937" y2="42.1875" id="路径-19"></line>
                                    <line x1="-2.17328234e-13" y1="24.9609375" x2="137.460937" y2="24.609375" id="路径-19"></line>
                                    <line x1="1.60199919e-12" y1="31.9921875" x2="137.460938" y2="31.640625" id="路径-19"></line>
                                    <line x1="-2.16652192e-13" y1="39.0234375" x2="137.460937" y2="38.671875" id="路径-19"></line>
                                    <line x1="6.93180531e-13" y1="46.0546875" x2="137.460938" y2="45.703125" id="路径-19"></line>
                                    <line x1="-2.15502921e-13" y1="62.9296875" x2="137.460937" y2="62.578125" id="路径-19"></line>
                                    <line x1="-2.16145161e-13" y1="49.5703125" x2="137.460937" y2="49.21875" id="路径-19"></line>
                                    <line x1="-2.15333911e-13" y1="66.4453125" x2="137.460937" y2="66.09375" id="路径-19"></line>
                                    <line x1="-2.15164901e-13" y1="69.9609375" x2="137.460937" y2="69.609375" id="路径-19"></line>
                                    <line x1="-2.1499589e-13" y1="73.4765625" x2="137.460937" y2="73.125" id="路径-19"></line>
                                    <line x1="2.39920471e-13" y1="76.9921875" x2="137.460938" y2="76.640625" id="路径-19"></line>
                                </g>
                            </g>
                        </g>
                    </g>
                    <g id="编组-14" transform="translate(12.000000, 11.000000)">
                        <g id="编组-10" fill="#123072">
                            <circle id="椭圆形" cx="33.5" cy="33.5" r="33.5"></circle>
                        </g>
                        <g id="编组-8" transform="translate(9.000000, 38.800000)"></g>
                    </g>
                </g>
            </g>
            <g id="六边形1" transform="translate(0.000000, 74.600000)">
                <g id="编组-12备份-5">
                    <g id="编组-22" transform="translate(30.000000, 30.000000)" opacity="0.5" stroke="#66FFFF" stroke-linecap="round" stroke-width="3.6">
                        <path d="M0,90 L5.7245636,84.2754364 M85.2981949,4.70180511 L90,0" id="形状"></path>
                        <path d="M0,90 L5.7245636,84.2754364 M85.2981949,4.70180511 L90,0" id="形状" transform="translate(45.000000, 45.000000) scale(-1, 1) translate(-45.000000, -45.000000) "></path>
                    </g>
                    <path d="M75,1.55884573 L138.601905,38.2794229 L138.601905,111.720577 L75,148.441154 L11.3980947,111.720577 L11.3980947,38.2794229 L75,1.55884573 Z" id="多边形" stroke="#66FFFF" stroke-width="2.7"></path>
                    <g id="编组-19" transform="translate(13.400000, 13.400000)">
                        <mask id="mask-14" fill="white">
                            <use xlink:href="#path-13"></use>
                        </mask>
                        <use id="蒙版" fill-opacity="0.5" fill="#030C31" xlink:href="#path-13"></use>
                        <g id="编组-21" opacity="0.300000012" mask="url(#mask-14)" stroke="#66FFFF" stroke-width="0.9">
                            <g transform="translate(53.396875, 60.428125) rotate(-30.000000) translate(-53.396875, -60.428125) translate(-61.446875, -4.025000)">
                                <line x1="2.43494324e-13" y1="31.0546875" x2="229.101563" y2="30.46875" id="路径-19"></line>
                                <line x1="2.43719672e-13" y1="35.7421875" x2="229.101563" y2="35.15625" id="路径-19"></line>
                                <line x1="-2.12661446e-13" y1="1.7578125" x2="229.101563" y2="1.171875" id="路径-19备份"></line>
                                <line x1="-2.08492523e-13" y1="88.4765625" x2="229.101563" y2="87.890625" id="路径-19"></line>
                                <line x1="-2.10464311e-13" y1="47.4609375" x2="229.101563" y2="46.875" id="路径-19"></line>
                                <line x1="2.42649272e-13" y1="13.4765625" x2="229.101563" y2="12.890625" id="路径-19备份-2"></line>
                                <line x1="2.42367588e-13" y1="7.6171875" x2="229.101563" y2="7.03125" id="路径-19备份"></line>
                                <line x1="2.42930956e-13" y1="19.3359375" x2="229.101563" y2="18.75" id="路径-19备份-2"></line>
                                <line x1="-2.08210839e-13" y1="94.3359375" x2="229.101563" y2="93.75" id="路径-19"></line>
                                <line x1="-2.09900943e-13" y1="59.1796875" x2="229.101563" y2="58.59375" id="路径-19"></line>
                                <line x1="2.4321264e-13" y1="25.1953125" x2="229.101563" y2="24.609375" id="路径-19备份-3"></line>
                                <line x1="2.46761859e-13" y1="99.0234375" x2="229.101563" y2="98.4375" id="路径-19"></line>
                                <line x1="-2.09337575e-13" y1="70.8984375" x2="229.101563" y2="70.3125" id="路径-19"></line>
                                <line x1="-2.10745995e-13" y1="41.6015625" x2="229.101563" y2="41.015625" id="路径-19"></line>
                                <line x1="-2.10182627e-13" y1="53.3203125" x2="229.101563" y2="52.734375" id="路径-19"></line>
                                <line x1="-2.09619259e-13" y1="65.0390625" x2="229.101563" y2="64.453125" id="路径-19"></line>
                                <line x1="-2.09055891e-13" y1="76.7578125" x2="229.101563" y2="76.171875" id="路径-19"></line>
                                <line x1="2.47043543e-13" y1="104.882813" x2="229.101563" y2="104.296875" id="路径-19"></line>
                                <line x1="-2.08774207e-13" y1="82.6171875" x2="229.101563" y2="82.03125" id="路径-19"></line>
                                <line x1="2.47325227e-13" y1="110.742188" x2="229.101563" y2="110.15625" id="路径-19"></line>
                                <line x1="2.47606911e-13" y1="116.601562" x2="229.101563" y2="116.015625" id="路径-19"></line>
                                <line x1="2.47888595e-13" y1="122.460937" x2="229.101563" y2="121.875" id="路径-19"></line>
                                <line x1="2.48170279e-13" y1="128.320312" x2="229.101563" y2="127.734375" id="路径-19"></line>
                            </g>
                        </g>
                    </g>
                </g>
                <g id="编组-14" transform="translate(23.400000, 23.400000)">
                    <g id="编组-10" fill="#123072">
                        <circle id="椭圆形" cx="52" cy="52" r="52"></circle>
                    </g>
                    <g id="编组-8" transform="translate(29.000000, 58.000000)"></g>
                </g>
            </g>
        </g>
    </g>
</svg>