<?xml version="1.0" encoding="UTF-8"?>
<svg width="48px" height="48px" viewBox="0 0 48 48" version="1.1" xmlns="http://www.w3.org/2000/svg" xmlns:xlink="http://www.w3.org/1999/xlink">
    <title>icon_source_analysis</title>
    <g id="页面-1" stroke="none" stroke-width="1" fill="none" fill-rule="evenodd">
        <g id="TADS首页" transform="translate(-936.000000, -822.000000)" fill-rule="nonzero">
            <g id="编组-3" transform="translate(190.000000, 785.000000)">
                <g id="icon_source_analysis" transform="translate(746.000000, 37.000000)">
                    <rect id="矩形" fill="#000000" opacity="0" x="0" y="0" width="47.999961" height="47.999961"></rect>
                    <path d="M33.400441,27.8457319 L29.168492,23.6137829 L30.5782953,22.2031202 L33.400441,25.0252659 L33.400441,4.00036458 C35.321572,3.99954427 33.400441,4.00036458 35.3582125,4.00036458 L35.3582125,25.0252659 L38.1803582,22.2031202 L39.5901615,23.6137829 L34.3789166,28.8250278 L33.400441,27.8457319 Z M22.6323656,34.697483 L18.4004166,30.4655341 L19.8102199,29.0557307 L22.6323656,31.8778764 L22.6323656,4.97887925 C24.5534965,4.97805894 22.6323656,4.97887925 24.5901371,4.97887925 L24.5901371,31.8770561 L27.4122828,29.0549104 L28.8229455,30.4647137 L23.6117006,35.6759586 L22.6324047,34.697483 L22.6323656,34.697483 Z M6.99441211,42.0055618 L41.3189098,42.0055618 L41.3189098,19.5625369 L43.1734002,19.5625369 L43.1734002,43.999974 L5,43.999974 L5,20.5468328 L6.99441211,20.5468328 L6.99441211,42.0055618 L6.99441211,42.0055618 Z M12.843547,28.8241685 L8.61159804,24.5922195 L10.0214013,23.1824162 L12.843547,26.0045618 L12.843547,7.91590763 C14.764678,7.91508732 12.843547,7.91590763 14.8013186,7.91590763 L14.8013186,26.0037415 L17.6234642,23.1815959 L19.0341269,24.5913992 L13.822882,29.8026441 L12.8435861,28.8241685 L12.843547,28.8241685 Z" id="形状" fill="#1195FE"></path>
                </g>
            </g>
        </g>
    </g>
</svg>