<?xml version="1.0" encoding="UTF-8"?>
<svg width="662px" height="216px" viewBox="0 0 662 216" version="1.1" xmlns="http://www.w3.org/2000/svg" xmlns:xlink="http://www.w3.org/1999/xlink">
    <title>攻击链</title>
    <defs>
        <polygon id="path-1" points="53.1310345 0 99.1438601 26.5655172 99.1438601 79.6965517 53.1310345 106.262069 7.11820889 79.6965517 7.11820889 26.5655172"></polygon>
        <polygon id="path-3" points="53.1310345 0 99.1438601 26.5655172 99.1438601 79.6965517 53.1310345 106.262069 7.11820889 79.6965517 7.11820889 26.5655172"></polygon>
        <polygon id="path-5" points="53.1310345 0 99.1438601 26.5655172 99.1438601 79.6965517 53.1310345 106.262069 7.11820889 79.6965517 7.11820889 26.5655172"></polygon>
        <polygon id="path-7" points="53.1310345 0 99.1438601 26.5655172 99.1438601 79.6965517 53.1310345 106.262069 7.11820889 79.6965517 7.11820889 26.5655172"></polygon>
        <polygon id="path-9" points="53.1310345 0 99.1438601 26.5655172 99.1438601 79.6965517 53.1310345 106.262069 7.11820889 79.6965517 7.11820889 26.5655172"></polygon>
        <polygon id="path-11" points="37.6171875 0 70.1946275 18.8085938 70.1946275 56.4257812 37.6171875 75.234375 5.03974751 56.4257813 5.03974751 18.8085937"></polygon>
        <polygon id="path-13" points="37.6171875 0 70.1946275 18.8085938 70.1946275 56.4257812 37.6171875 75.234375 5.03974751 56.4257813 5.03974751 18.8085937"></polygon>
    </defs>
    <g id="页面-1" stroke="none" stroke-width="1" fill="none" fill-rule="evenodd">
        <g id="TADS首页" transform="translate(-1001.000000, -192.000000)">
            <g id="攻击链" transform="translate(1001.000000, 192.000000)">
                <rect id="矩形" fill="#123072" x="0" y="133" width="115" height="33"></rect>
                <g transform="translate(105.000000, 0.000000)">
                    <g id="编组-34" transform="translate(0.000000, 86.000000)">
                        <g id="编组-12备份-3">
                            <g id="编组-22" transform="translate(13.903448, 13.903448)" opacity="0.5" stroke="#02E0B7" stroke-linecap="round" stroke-width="3.6">
                                <path d="M0,99.3103448 L6.31675983,92.993585 M94.1221461,5.18819875 L99.3103448,0" id="形状"></path>
                                <path d="M0,99.3103448 L6.31675983,92.993585 M94.1221461,5.18819875 L99.3103448,0" id="形状" transform="translate(49.655172, 49.655172) scale(-1, 1) translate(-49.655172, -49.655172) "></path>
                            </g>
                            <path d="M63.5586207,1.55884573 L117.252001,32.5587332 L117.252001,94.5585082 L63.5586207,125.558396 L9.86524054,94.5585082 L9.86524054,32.5587332 L63.5586207,1.55884573 Z" id="多边形" stroke="#02F0C1" stroke-width="2.7"></path>
                            <g id="编组-19" transform="translate(10.924138, 10.924138)">
                                <mask id="mask-2" fill="white">
                                    <use xlink:href="#path-1"></use>
                                </mask>
                                <use id="蒙版" fill-opacity="0.5" fill="#030C31" xlink:href="#path-1"></use>
                                <g id="编组-21" opacity="0.300000012" mask="url(#mask-2)" stroke="#02E7BC" stroke-width="0.9">
                                    <g transform="translate(45.682759, 51.641379) rotate(-30.000000) translate(-45.682759, -51.641379) translate(-51.641379, -2.979310)">
                                        <line x1="-6.83540668e-13" y1="26.3172414" x2="194.151724" y2="25.8206897" id="路径-19"></line>
                                        <line x1="3.57990672e-12" y1="30.2896552" x2="194.151724" y2="29.7931034" id="路径-19"></line>
                                        <line x1="3.80589586e-12" y1="1.48965517" x2="194.151724" y2="0.993103448" id="路径-19备份"></line>
                                        <line x1="1.42200521e-12" y1="74.9793103" x2="194.151724" y2="74.4827586" id="路径-19"></line>
                                        <line x1="2.44351576e-12" y1="40.2206897" x2="194.151724" y2="39.7241379" id="路径-19"></line>
                                        <line x1="1.07788918e-12" y1="11.4206897" x2="194.151724" y2="10.9241379" id="路径-19备份-2"></line>
                                        <line x1="3.80613457e-12" y1="6.45517241" x2="194.151724" y2="5.95862069" id="路径-19备份"></line>
                                        <line x1="3.5223949e-12" y1="16.3862069" x2="194.151724" y2="15.8896552" id="路径-19备份-2"></line>
                                        <line x1="3.468607e-12" y1="79.9448276" x2="194.151724" y2="79.4482759" id="路径-19"></line>
                                        <line x1="3.86507866e-12" y1="50.1517241" x2="194.151724" y2="49.6551724" id="路径-19"></line>
                                        <line x1="3.97738097e-12" y1="21.3517241" x2="194.151724" y2="20.8551724" id="路径-19备份-3"></line>
                                        <line x1="3.80985849e-12" y1="83.9172414" x2="194.151724" y2="83.4206897" id="路径-19"></line>
                                        <line x1="1.1939154e-12" y1="60.0827586" x2="194.151724" y2="59.5862069" id="路径-19"></line>
                                        <line x1="3.58014543e-12" y1="35.2551724" x2="194.151724" y2="34.7586207" id="路径-19"></line>
                                        <line x1="3.4100926e-12" y1="45.1862069" x2="194.151724" y2="44.6896552" id="路径-19"></line>
                                        <line x1="3.86531737e-12" y1="55.1172414" x2="194.151724" y2="54.6206897" id="路径-19"></line>
                                        <line x1="3.5815777e-12" y1="65.0482759" x2="194.151724" y2="64.5517241" id="路径-19"></line>
                                        <line x1="1.0816131e-12" y1="88.8827586" x2="194.151724" y2="88.3862069" id="路径-19"></line>
                                        <line x1="3.58181642e-12" y1="70.0137931" x2="194.151724" y2="69.5172414" id="路径-19"></line>
                                        <line x1="3.4692754e-12" y1="93.8482759" x2="194.151724" y2="93.3517241" id="路径-19"></line>
                                        <line x1="3.92426146e-12" y1="98.8137931" x2="194.151724" y2="98.3172414" id="路径-19"></line>
                                        <line x1="2.33288445e-12" y1="103.77931" x2="194.151724" y2="103.282759" id="路径-19"></line>
                                        <line x1="3.3563047e-12" y1="108.744828" x2="194.151724" y2="108.248276" id="路径-19"></line>
                                    </g>
                                </g>
                            </g>
                        </g>
                        <g id="编组-14" transform="translate(19.000000, 19.000000)">
                            <g id="编组-10" fill="#123072">
                                <circle id="椭圆形" cx="45" cy="45" r="45"></circle>
                            </g>
                            <g id="编组-8" transform="translate(13.000000, 52.000000)"></g>
                        </g>
                    </g>
                    <g id="编组-34备份" transform="translate(108.000000, 86.000000)">
                        <g id="编组-12备份-3">
                            <g id="编组-22" transform="translate(13.903448, 13.903448)" opacity="0.5" stroke="#02E0B7" stroke-linecap="round" stroke-width="3.6">
                                <path d="M0,99.3103448 L6.31675983,92.993585 M94.1221461,5.18819875 L99.3103448,0" id="形状"></path>
                                <path d="M0,99.3103448 L6.31675983,92.993585 M94.1221461,5.18819875 L99.3103448,0" id="形状" transform="translate(49.655172, 49.655172) scale(-1, 1) translate(-49.655172, -49.655172) "></path>
                            </g>
                            <path d="M63.5586207,1.55884573 L117.252001,32.5587332 L117.252001,94.5585082 L63.5586207,125.558396 L9.86524054,94.5585082 L9.86524054,32.5587332 L63.5586207,1.55884573 Z" id="多边形" stroke="#02F0C1" stroke-width="2.7"></path>
                            <g id="编组-19" transform="translate(10.924138, 10.924138)">
                                <mask id="mask-4" fill="white">
                                    <use xlink:href="#path-3"></use>
                                </mask>
                                <use id="蒙版" fill-opacity="0.5" fill="#030C31" xlink:href="#path-3"></use>
                                <g id="编组-21" opacity="0.300000012" mask="url(#mask-4)" stroke="#02E7BC" stroke-width="0.9">
                                    <g transform="translate(45.682759, 51.641379) rotate(-30.000000) translate(-45.682759, -51.641379) translate(-51.641379, -2.979310)">
                                        <line x1="-8.54070925e-13" y1="26.3172414" x2="194.151724" y2="25.8206897" id="路径-19"></line>
                                        <line x1="3.01147253e-12" y1="30.2896552" x2="194.151724" y2="29.7931034" id="路径-19"></line>
                                        <line x1="5.22698133e-12" y1="1.48965517" x2="194.151724" y2="0.993103448" id="路径-19备份"></line>
                                        <line x1="2.8999341e-12" y1="74.9793103" x2="194.151724" y2="74.4827586" id="路径-19"></line>
                                        <line x1="2.32982893e-12" y1="40.2206897" x2="194.151724" y2="39.7241379" id="路径-19"></line>
                                        <line x1="2.953722e-12" y1="11.4206897" x2="194.151724" y2="10.9241379" id="路径-19备份-2"></line>
                                        <line x1="5.22722004e-12" y1="6.45517241" x2="194.151724" y2="5.95862069" id="路径-19备份"></line>
                                        <line x1="2.95396071e-12" y1="16.3862069" x2="194.151724" y2="15.8896552" id="路径-19备份-2"></line>
                                        <line x1="2.90017282e-12" y1="79.9448276" x2="194.151724" y2="79.4482759" id="路径-19"></line>
                                        <line x1="5.28616413e-12" y1="50.1517241" x2="194.151724" y2="49.6551724" id="路径-19"></line>
                                        <line x1="5.51215327e-12" y1="21.3517241" x2="194.151724" y2="20.8551724" id="路径-19备份-3"></line>
                                        <line x1="5.17410054e-12" y1="83.9172414" x2="194.151724" y2="83.4206897" id="路径-19"></line>
                                        <line x1="3.12659164e-12" y1="60.0827586" x2="194.151724" y2="59.5862069" id="路径-19"></line>
                                        <line x1="3.01171124e-12" y1="35.2551724" x2="194.151724" y2="34.7586207" id="路径-19"></line>
                                        <line x1="2.84165841e-12" y1="45.1862069" x2="194.151724" y2="44.6896552" id="路径-19"></line>
                                        <line x1="5.28640285e-12" y1="55.1172414" x2="194.151724" y2="54.6206897" id="路径-19"></line>
                                        <line x1="3.12683035e-12" y1="65.0482759" x2="194.151724" y2="64.5517241" id="路径-19"></line>
                                        <line x1="9.67926257e-13" y1="88.8827586" x2="194.151724" y2="88.3862069" id="路径-19"></line>
                                        <line x1="3.12706907e-12" y1="70.0137931" x2="194.151724" y2="69.5172414" id="路径-19"></line>
                                        <line x1="3.01452805e-12" y1="93.8482759" x2="194.151724" y2="93.3517241" id="路径-19"></line>
                                        <line x1="5.51587719e-12" y1="98.8137931" x2="194.151724" y2="98.3172414" id="路径-19"></line>
                                        <line x1="2.33288445e-12" y1="103.77931" x2="194.151724" y2="103.282759" id="路径-19"></line>
                                        <line x1="2.78787051e-12" y1="108.744828" x2="194.151724" y2="108.248276" id="路径-19"></line>
                                    </g>
                                </g>
                            </g>
                        </g>
                        <g id="编组-14" transform="translate(19.000000, 19.000000)">
                            <g id="编组-10" fill="#123072">
                                <circle id="椭圆形" cx="45" cy="45" r="45"></circle>
                            </g>
                            <g id="编组-8" transform="translate(13.000000, 52.000000)"></g>
                        </g>
                    </g>
                    <g id="编组-34备份-2" transform="translate(215.000000, 87.000000)">
                        <g id="编组-12备份-3">
                            <g id="编组-22" transform="translate(13.903448, 13.903448)" opacity="0.5" stroke="#02E0B7" stroke-linecap="round" stroke-width="3.6">
                                <path d="M0,99.3103448 L6.31675983,92.993585 M94.1221461,5.18819875 L99.3103448,0" id="形状"></path>
                                <path d="M0,99.3103448 L6.31675983,92.993585 M94.1221461,5.18819875 L99.3103448,0" id="形状" transform="translate(49.655172, 49.655172) scale(-1, 1) translate(-49.655172, -49.655172) "></path>
                            </g>
                            <path d="M63.5586207,1.55884573 L117.252001,32.5587332 L117.252001,94.5585082 L63.5586207,125.558396 L9.86524054,94.5585082 L9.86524054,32.5587332 L63.5586207,1.55884573 Z" id="多边形" stroke="#66FFFF" stroke-width="2.7"></path>
                            <g id="编组-19" transform="translate(10.924138, 10.924138)">
                                <mask id="mask-6" fill="white">
                                    <use xlink:href="#path-5"></use>
                                </mask>
                                <use id="蒙版" fill-opacity="0.5" fill="#030C31" xlink:href="#path-5"></use>
                                <g id="编组-21" opacity="0.300000012" mask="url(#mask-6)" stroke="#02E7BC" stroke-width="0.9">
                                    <g transform="translate(45.682759, 51.641379) rotate(-30.000000) translate(-45.682759, -51.641379) translate(-51.641379, -2.979310)">
                                        <line x1="5.67070058e-13" y1="26.3172414" x2="194.151724" y2="25.8206897" id="路径-19"></line>
                                        <line x1="5.28526479e-12" y1="30.2896552" x2="194.151724" y2="29.7931034" id="路径-19"></line>
                                        <line x1="5.51125394e-12" y1="1.48965517" x2="194.151724" y2="0.993103448" id="路径-19备份"></line>
                                        <line x1="2.78630278e-12" y1="74.9793103" x2="194.151724" y2="74.4827586" id="路径-19"></line>
                                        <line x1="4.26256068e-12" y1="40.2206897" x2="194.151724" y2="39.7241379" id="路径-19"></line>
                                        <line x1="2.78324726e-12" y1="11.4206897" x2="194.151724" y2="10.9241379" id="路径-19备份-2"></line>
                                        <line x1="5.51149265e-12" y1="6.45517241" x2="194.151724" y2="5.95862069" id="路径-19备份"></line>
                                        <line x1="5.22775298e-12" y1="16.3862069" x2="194.151724" y2="15.8896552" id="路径-19备份-2"></line>
                                        <line x1="5.17396508e-12" y1="79.9448276" x2="194.151724" y2="79.4482759" id="路径-19"></line>
                                        <line x1="5.62728016e-12" y1="50.1517241" x2="194.151724" y2="49.6551724" id="路径-19"></line>
                                        <line x1="5.68273904e-12" y1="21.3517241" x2="194.151724" y2="20.8551724" id="路径-19备份-3"></line>
                                        <line x1="5.51521656e-12" y1="83.9172414" x2="194.151724" y2="83.4206897" id="路径-19"></line>
                                        <line x1="2.89927348e-12" y1="60.0827586" x2="194.151724" y2="59.5862069" id="路径-19"></line>
                                        <line x1="5.28550351e-12" y1="35.2551724" x2="194.151724" y2="34.7586207" id="路径-19"></line>
                                        <line x1="5.17229409e-12" y1="45.1862069" x2="194.151724" y2="44.6896552" id="路径-19"></line>
                                        <line x1="5.51383203e-12" y1="55.1172414" x2="194.151724" y2="54.6206897" id="路径-19"></line>
                                        <line x1="5.51430946e-12" y1="65.0482759" x2="194.151724" y2="64.5517241" id="路径-19"></line>
                                        <line x1="4.26490006e-12" y1="88.8827586" x2="194.151724" y2="88.3862069" id="路径-19"></line>
                                        <line x1="5.51454817e-12" y1="70.0137931" x2="194.151724" y2="69.5172414" id="路径-19"></line>
                                        <line x1="5.17463348e-12" y1="93.8482759" x2="194.151724" y2="93.3517241" id="路径-19"></line>
                                        <line x1="5.74330638e-12" y1="98.8137931" x2="194.151724" y2="98.3172414" id="路径-19"></line>
                                        <line x1="4.15192936e-12" y1="103.77931" x2="194.151724" y2="103.282759" id="路径-19"></line>
                                        <line x1="3.0152997e-12" y1="108.744828" x2="194.151724" y2="108.248276" id="路径-19"></line>
                                    </g>
                                </g>
                            </g>
                        </g>
                        <g id="编组-14" transform="translate(19.000000, 19.000000)">
                            <g id="编组-10" fill="#123072">
                                <circle id="椭圆形" cx="45" cy="45" r="45"></circle>
                            </g>
                            <g id="编组-8" transform="translate(12.000000, 5.000000)"></g>
                        </g>
                    </g>
                    <g id="编组-34备份-4" transform="translate(322.000000, 88.000000)">
                        <g id="编组-12备份-3">
                            <g id="编组-22" transform="translate(13.903448, 13.903448)" opacity="0.5" stroke="#02E0B7" stroke-linecap="round" stroke-width="3.6">
                                <path d="M0,99.3103448 L6.31675983,92.993585 M94.1221461,5.18819875 L99.3103448,0" id="形状"></path>
                                <path d="M0,99.3103448 L6.31675983,92.993585 M94.1221461,5.18819875 L99.3103448,0" id="形状" transform="translate(49.655172, 49.655172) scale(-1, 1) translate(-49.655172, -49.655172) "></path>
                            </g>
                            <path d="M63.5586207,1.55884573 L117.252001,32.5587332 L117.252001,94.5585082 L63.5586207,125.558396 L9.86524054,94.5585082 L9.86524054,32.5587332 L63.5586207,1.55884573 Z" id="多边形" stroke="#66FFFF" stroke-width="2.7"></path>
                            <g id="编组-19" transform="translate(10.924138, 10.924138)">
                                <mask id="mask-8" fill="white">
                                    <use xlink:href="#path-7"></use>
                                </mask>
                                <use id="蒙版" fill-opacity="0.5" fill="#030C31" xlink:href="#path-7"></use>
                                <g id="编组-21" opacity="0.300000012" mask="url(#mask-8)" stroke="#02E7BC" stroke-width="0.9">
                                    <g transform="translate(45.682759, 51.641379) rotate(-30.000000) translate(-45.682759, -51.641379) translate(-51.641379, -2.979310)">
                                        <line x1="-5.81520386e-14" y1="26.3172414" x2="194.151724" y2="25.8206897" id="路径-19"></line>
                                        <line x1="6.81003377e-13" y1="30.2896552" x2="194.151724" y2="29.7931034" id="路径-19"></line>
                                        <line x1="2.89651218e-12" y1="1.48965517" x2="194.151724" y2="0.993103448" id="路径-19备份"></line>
                                        <line x1="3.98934696e-13" y1="74.9793103" x2="194.151724" y2="74.4827586" id="路径-19"></line>
                                        <line x1="-5.74836433e-14" y1="40.2206897" x2="194.151724" y2="39.7241379" id="路径-19"></line>
                                        <line x1="6.2325285e-13" y1="11.4206897" x2="194.151724" y2="10.9241379" id="路径-19备份-2"></line>
                                        <line x1="2.89675089e-12" y1="6.45517241" x2="194.151724" y2="5.95862069" id="路径-19备份"></line>
                                        <line x1="1.07823891e-12" y1="16.3862069" x2="194.151724" y2="15.8896552" id="路径-19备份-2"></line>
                                        <line x1="8.53920759e-13" y1="79.9448276" x2="194.151724" y2="79.4482759" id="路径-19"></line>
                                        <line x1="2.95569498e-12" y1="50.1517241" x2="194.151724" y2="49.6551724" id="路径-19"></line>
                                        <line x1="3.06799729e-12" y1="21.3517241" x2="194.151724" y2="20.8551724" id="路径-19备份-3"></line>
                                        <line x1="2.78678797e-12" y1="83.9172414" x2="194.151724" y2="83.4206897" id="路径-19"></line>
                                        <line x1="7.39279071e-13" y1="60.0827586" x2="194.151724" y2="59.5862069" id="路径-19"></line>
                                        <line x1="6.81242089e-13" y1="35.2551724" x2="194.151724" y2="34.7586207" id="路径-19"></line>
                                        <line x1="8.52249771e-13" y1="45.1862069" x2="194.151724" y2="44.6896552" id="路径-19"></line>
                                        <line x1="3.01277711e-12" y1="55.1172414" x2="194.151724" y2="54.6206897" id="路径-19"></line>
                                        <line x1="7.39517784e-13" y1="65.0482759" x2="194.151724" y2="64.5517241" id="路径-19"></line>
                                        <line x1="1.76384514e-12" y1="88.8827586" x2="194.151724" y2="88.3862069" id="路径-19"></line>
                                        <line x1="7.39756496e-13" y1="70.0137931" x2="194.151724" y2="69.5172414" id="路径-19"></line>
                                        <line x1="1.08196283e-12" y1="93.8482759" x2="194.151724" y2="93.3517241" id="路径-19"></line>
                                        <line x1="3.12856462e-12" y1="98.8137931" x2="194.151724" y2="98.3172414" id="路径-19"></line>
                                        <line x1="1.53718761e-12" y1="103.77931" x2="194.151724" y2="103.282759" id="路径-19"></line>
                                        <line x1="8.55305292e-13" y1="108.744828" x2="194.151724" y2="108.248276" id="路径-19"></line>
                                    </g>
                                </g>
                            </g>
                        </g>
                        <g id="编组-14" transform="translate(19.000000, 19.000000)">
                            <g id="编组-10" fill="#123072">
                                <circle id="椭圆形" cx="45" cy="45" r="45"></circle>
                            </g>
                            <g id="编组-8" transform="translate(13.000000, 50.000000)"></g>
                        </g>
                    </g>
                    <g id="编组-34备份-5" transform="translate(429.000000, 88.000000)">
                        <g id="编组-12备份-3">
                            <g id="编组-22" transform="translate(13.903448, 13.903448)" opacity="0.5" stroke="#02E0B7" stroke-linecap="round" stroke-width="3.6">
                                <path d="M0,99.3103448 L6.31675983,92.993585 M94.1221461,5.18819875 L99.3103448,0" id="形状"></path>
                                <path d="M0,99.3103448 L6.31675983,92.993585 M94.1221461,5.18819875 L99.3103448,0" id="形状" transform="translate(49.655172, 49.655172) scale(-1, 1) translate(-49.655172, -49.655172) "></path>
                            </g>
                            <path d="M63.5586207,1.55884573 L117.252001,32.5587332 L117.252001,94.5585082 L63.5586207,125.558396 L9.86524054,94.5585082 L9.86524054,32.5587332 L63.5586207,1.55884573 Z" id="多边形" stroke="#02F0C1" stroke-width="2.7"></path>
                            <g id="编组-19" transform="translate(10.924138, 10.924138)">
                                <mask id="mask-10" fill="white">
                                    <use xlink:href="#path-9"></use>
                                </mask>
                                <use id="蒙版" fill-opacity="0.5" fill="#030C31" xlink:href="#path-9"></use>
                                <g id="编组-21" opacity="0.300000012" mask="url(#mask-10)" stroke="#02E7BC" stroke-width="0.9">
                                    <g transform="translate(45.682759, 51.641379) rotate(-30.000000) translate(-45.682759, -51.641379) translate(-51.641379, -2.979310)">
                                        <line x1="5.1028215e-13" y1="26.3172414" x2="194.151724" y2="25.8206897" id="路径-19"></line>
                                        <line x1="3.29580064e-12" y1="30.2896552" x2="194.151724" y2="29.7931034" id="路径-19"></line>
                                        <line x1="3.40810295e-12" y1="1.48965517" x2="194.151724" y2="0.993103448" id="路径-19备份"></line>
                                        <line x1="1.08105572e-12" y1="74.9793103" x2="194.151724" y2="74.4827586" id="路径-19"></line>
                                        <line x1="2.21625311e-12" y1="40.2206897" x2="194.151724" y2="39.7241379" id="路径-19"></line>
                                        <line x1="1.13484362e-12" y1="11.4206897" x2="194.151724" y2="10.9241379" id="路径-19备份-2"></line>
                                        <line x1="3.46518508e-12" y1="6.45517241" x2="194.151724" y2="5.95862069" id="路径-19备份"></line>
                                        <line x1="3.69303618e-12" y1="16.3862069" x2="194.151724" y2="15.8896552" id="路径-19备份-2"></line>
                                        <line x1="3.6960917e-12" y1="79.9448276" x2="194.151724" y2="79.4482759" id="路径-19"></line>
                                        <line x1="3.63781601e-12" y1="50.1517241" x2="194.151724" y2="49.6551724" id="路径-19"></line>
                                        <line x1="3.69327489e-12" y1="21.3517241" x2="194.151724" y2="20.8551724" id="路径-19备份-3"></line>
                                        <line x1="3.35522216e-12" y1="83.9172414" x2="194.151724" y2="83.4206897" id="路径-19"></line>
                                        <line x1="1.4214001e-12" y1="60.0827586" x2="194.151724" y2="59.5862069" id="路径-19"></line>
                                        <line x1="3.29603936e-12" y1="35.2551724" x2="194.151724" y2="34.7586207" id="路径-19"></line>
                                        <line x1="3.6375773e-12" y1="45.1862069" x2="194.151724" y2="44.6896552" id="路径-19"></line>
                                        <line x1="3.5812113e-12" y1="55.1172414" x2="194.151724" y2="54.6206897" id="路径-19"></line>
                                        <line x1="3.35431505e-12" y1="65.0482759" x2="194.151724" y2="64.5517241" id="路径-19"></line>
                                        <line x1="2.21859249e-12" y1="88.8827586" x2="194.151724" y2="88.3862069" id="路径-19"></line>
                                        <line x1="3.35455376e-12" y1="70.0137931" x2="194.151724" y2="69.5172414" id="路径-19"></line>
                                        <line x1="3.6967601e-12" y1="93.8482759" x2="194.151724" y2="93.3517241" id="路径-19"></line>
                                        <line x1="3.69699881e-12" y1="98.8137931" x2="194.151724" y2="98.3172414" id="路径-19"></line>
                                        <line x1="2.10562179e-12" y1="103.77931" x2="194.151724" y2="103.282759" id="路径-19"></line>
                                        <line x1="1.53742632e-12" y1="108.744828" x2="194.151724" y2="108.248276" id="路径-19"></line>
                                    </g>
                                </g>
                            </g>
                        </g>
                        <g id="编组-14" transform="translate(19.000000, 19.000000)">
                            <g id="编组-10" fill="#123072">
                                <circle id="椭圆形" cx="45" cy="45" r="45"></circle>
                            </g>
                            <g id="编组-8" transform="translate(13.000000, 4.000000)"></g>
                        </g>
                    </g>
                    <g id="编组-34备份-3" transform="translate(234.000000, 0.000000)">
                        <g id="编组-12备份-3">
                            <g id="编组-22" transform="translate(9.843750, 9.843750)" opacity="0.5" stroke="#02E0B7" stroke-linecap="round" stroke-width="3.6">
                                <path d="M0,70.3125 L4.47231531,65.8401847 M66.6392148,3.67328525 L70.3125,0" id="形状"></path>
                                <path d="M0,70.3125 L4.47231531,65.8401847 M66.6392148,3.67328525 L70.3125,0" id="形状" transform="translate(35.156250, 35.156250) scale(-1, 1) translate(-35.156250, -35.156250) "></path>
                            </g>
                            <path d="M45,1.55884573 L82.6211432,23.2794229 L82.6211432,66.7205771 L45,88.4411543 L7.37885683,66.7205771 L7.37885683,23.2794229 L45,1.55884573 Z" id="多边形" stroke="#66FFFF" stroke-width="2.7"></path>
                            <g id="编组-19" transform="translate(7.734375, 7.734375)">
                                <mask id="mask-12" fill="white">
                                    <use xlink:href="#path-11"></use>
                                </mask>
                                <use id="蒙版" fill-opacity="0.5" fill="#030C31" xlink:href="#path-11"></use>
                                <g id="编组-21" opacity="0.300000012" mask="url(#mask-12)" stroke="#02E7BC" stroke-width="0.9">
                                    <g transform="translate(32.343750, 36.562500) rotate(-30.000000) translate(-32.343750, -36.562500) translate(-36.562500, -2.109375)">
                                        <line x1="-1.76972424e-12" y1="18.6328125" x2="137.460937" y2="18.28125" id="路径-19"></line>
                                        <line x1="-1.48537194e-12" y1="21.4453125" x2="137.460937" y2="21.09375" id="路径-19"></line>
                                        <line x1="-1.88425613e-12" y1="1.0546875" x2="137.460937" y2="0.703125" id="路径-19备份"></line>
                                        <line x1="-1.59753768e-12" y1="53.0859375" x2="137.460937" y2="52.734375" id="路径-19"></line>
                                        <line x1="-1.54187734e-12" y1="28.4765625" x2="137.460937" y2="28.125" id="路径-19"></line>
                                        <line x1="-1.48601418e-12" y1="8.0859375" x2="137.460937" y2="7.734375" id="路径-19备份-2"></line>
                                        <line x1="-1.65671344e-12" y1="4.5703125" x2="137.460937" y2="4.21875" id="路径-19备份"></line>
                                        <line x1="-1.71321884e-12" y1="11.6015625" x2="137.460937" y2="11.25" id="路径-19备份-2"></line>
                                        <line x1="-1.76789893e-12" y1="56.6015625" x2="137.460937" y2="56.25" id="路径-19"></line>
                                        <line x1="-1.59838273e-12" y1="35.5078125" x2="137.460937" y2="35.15625" id="路径-19"></line>
                                        <line x1="-2.05411035e-12" y1="15.1171875" x2="137.460937" y2="14.765625" id="路径-19备份-3"></line>
                                        <line x1="-1.48354663e-12" y1="59.4140625" x2="137.460937" y2="59.0625" id="路径-19"></line>
                                        <line x1="-1.65488813e-12" y1="42.5390625" x2="137.460937" y2="42.1875" id="路径-19"></line>
                                        <line x1="-1.7125766e-12" y1="24.9609375" x2="137.460937" y2="24.609375" id="路径-19"></line>
                                        <line x1="2.77281078e-13" y1="31.9921875" x2="137.460938" y2="31.640625" id="路径-19"></line>
                                        <line x1="-1.88243082e-12" y1="39.0234375" x2="137.460937" y2="38.671875" id="路径-19"></line>
                                        <line x1="-1.54103228e-12" y1="46.0546875" x2="137.460937" y2="45.703125" id="路径-19"></line>
                                        <line x1="-1.71075129e-12" y1="62.9296875" x2="137.460937" y2="62.578125" id="路径-19"></line>
                                        <line x1="-1.71139353e-12" y1="49.5703125" x2="137.460937" y2="49.21875" id="路径-19"></line>
                                        <line x1="-1.59689544e-12" y1="66.4453125" x2="137.460937" y2="66.09375" id="路径-19"></line>
                                        <line x1="-1.76725669e-12" y1="69.9609375" x2="137.460937" y2="69.609375" id="路径-19"></line>
                                        <line x1="-1.59655742e-12" y1="73.4765625" x2="137.460937" y2="73.125" id="路径-19"></line>
                                        <line x1="-1.48270157e-12" y1="76.9921875" x2="137.460937" y2="76.640625" id="路径-19"></line>
                                    </g>
                                </g>
                            </g>
                        </g>
                        <g id="编组-14" transform="translate(12.000000, 11.000000)">
                            <g id="编组-10" fill="#123072">
                                <circle id="椭圆形" cx="33.5" cy="33.5" r="33.5"></circle>
                            </g>
                            <g id="编组-8" transform="translate(9.000000, 38.800000)"></g>
                        </g>
                    </g>
                    <g id="编组-34备份-6" transform="translate(448.000000, 0.000000)">
                        <g id="编组-12备份-3">
                            <g id="编组-22" transform="translate(9.843750, 9.843750)" opacity="0.5" stroke="#02E0B7" stroke-linecap="round" stroke-width="3.6">
                                <path d="M0,70.3125 L4.47231531,65.8401847 M66.6392148,3.67328525 L70.3125,0" id="形状"></path>
                                <path d="M0,70.3125 L4.47231531,65.8401847 M66.6392148,3.67328525 L70.3125,0" id="形状" transform="translate(35.156250, 35.156250) scale(-1, 1) translate(-35.156250, -35.156250) "></path>
                            </g>
                            <path d="M45,1.55884573 L82.6211432,23.2794229 L82.6211432,66.7205771 L45,88.4411543 L7.37885683,66.7205771 L7.37885683,23.2794229 L45,1.55884573 Z" id="多边形" stroke="#66FFFF" stroke-width="2.7"></path>
                            <g id="编组-19" transform="translate(7.734375, 7.734375)">
                                <mask id="mask-14" fill="white">
                                    <use xlink:href="#path-13"></use>
                                </mask>
                                <use id="蒙版" fill-opacity="0.5" fill="#030C31" xlink:href="#path-13"></use>
                                <g id="编组-21" opacity="0.300000012" mask="url(#mask-14)" stroke="#02E7BC" stroke-width="0.9">
                                    <g transform="translate(32.343750, 36.562500) rotate(-30.000000) translate(-32.343750, -36.562500) translate(-36.562500, -2.109375)">
                                        <line x1="-1.37182031e-12" y1="18.6328125" x2="137.460937" y2="18.28125" id="路径-19"></line>
                                        <line x1="-9.73781168e-13" y1="21.4453125" x2="137.460937" y2="21.09375" id="路径-19"></line>
                                        <line x1="-1.37266536e-12" y1="1.0546875" x2="137.460937" y2="0.703125" id="路径-19备份"></line>
                                        <line x1="-1.02910349e-12" y1="53.0859375" x2="137.460937" y2="52.734375" id="路径-19"></line>
                                        <line x1="-1.03028657e-12" y1="28.4765625" x2="137.460937" y2="28.125" id="路径-19"></line>
                                        <line x1="-9.74423408e-13" y1="8.0859375" x2="137.460937" y2="7.734375" id="路径-19备份-2"></line>
                                        <line x1="-1.20196609e-12" y1="4.5703125" x2="137.460937" y2="4.21875" id="路径-19备份"></line>
                                        <line x1="-1.25847149e-12" y1="11.6015625" x2="137.460937" y2="11.25" id="路径-19备份-2"></line>
                                        <line x1="-1.369995e-12" y1="56.6015625" x2="137.460937" y2="56.25" id="路径-19"></line>
                                        <line x1="-1.2004788e-12" y1="35.5078125" x2="137.460937" y2="35.15625" id="路径-19"></line>
                                        <line x1="2.03861581e-12" y1="15.1171875" x2="137.460938" y2="14.765625" id="路径-19备份-3"></line>
                                        <line x1="-9.71955856e-13" y1="59.4140625" x2="137.460937" y2="59.0625" id="路径-19"></line>
                                        <line x1="-1.20014078e-12" y1="42.5390625" x2="137.460937" y2="42.1875" id="路径-19"></line>
                                        <line x1="-1.25782925e-12" y1="24.9609375" x2="137.460937" y2="24.609375" id="路径-19"></line>
                                        <line x1="1.18677578e-12" y1="31.9921875" x2="137.460938" y2="31.640625" id="路径-19"></line>
                                        <line x1="-1.37084005e-12" y1="39.0234375" x2="137.460937" y2="38.671875" id="路径-19"></line>
                                        <line x1="-9.72598096e-13" y1="46.0546875" x2="137.460937" y2="45.703125" id="路径-19"></line>
                                        <line x1="-1.31284736e-12" y1="62.9296875" x2="137.460937" y2="62.578125" id="路径-19"></line>
                                        <line x1="-1.3134896e-12" y1="49.5703125" x2="137.460937" y2="49.21875" id="路径-19"></line>
                                        <line x1="-1.02846125e-12" y1="66.4453125" x2="137.460937" y2="66.09375" id="路径-19"></line>
                                        <line x1="-1.36935276e-12" y1="69.9609375" x2="137.460937" y2="69.609375" id="路径-19"></line>
                                        <line x1="-1.14181007e-12" y1="73.4765625" x2="137.460937" y2="73.125" id="路径-19"></line>
                                        <line x1="-9.14267385e-13" y1="76.9921875" x2="137.460937" y2="76.640625" id="路径-19"></line>
                                    </g>
                                </g>
                            </g>
                        </g>
                        <g id="编组-14" transform="translate(11.000000, 11.000000)">
                            <g id="编组-10" fill="#123072">
                                <circle id="椭圆形" cx="33.5" cy="33.5" r="33.5"></circle>
                            </g>
                            <g id="编组-8" transform="translate(11.000000, 38.000000)"></g>
                        </g>
                    </g>
                </g>
            </g>
        </g>
    </g>
</svg>