<?xml version="1.0" encoding="UTF-8"?>
<svg width="26px" height="26px" viewBox="0 0 26 26" version="1.1" xmlns="http://www.w3.org/2000/svg" xmlns:xlink="http://www.w3.org/1999/xlink">
    <title>攻击</title>
    <g id="页面-1" stroke="none" stroke-width="1" fill="none" fill-rule="evenodd">
        <g id="TADS首页" transform="translate(-1265.000000, -302.000000)" fill-rule="nonzero">
            <g id="攻击" transform="translate(1265.000000, 302.000000)">
                <rect id="矩形" fill="#000000" opacity="0" x="0" y="0" width="26" height="26"></rect>
                <path d="M6.958375,11.695625 C6.13720791,14.3059767 6.83791834,17.1563872 8.77575,19.0885 C11.63875,21.9515 16.2675,21.961125 19.113875,19.11475 C21.96025,16.268375 21.950625,11.639625 19.087625,8.776625 C17.183625,6.872625 14.364375,6.207625 11.695625,6.95925 L11.266875,5.57325 C14.3915756,4.58834627 17.8047125,5.42535256 20.11925,7.744125 C23.54575,11.170625 23.557125,16.719875 20.1385,20.137625 C16.72075,23.55625 11.1715,23.544875 7.745,20.118375 C5.4595,17.832875 4.6405,14.5245 5.57325,11.266 L6.95925,11.69475 L6.958375,11.695625 Z M10.479375,13.253125 C10.2010936,14.4551402 10.561128,15.7157566 11.43225,16.5895 C12.836625,17.993 15.129125,17.979 16.553625,16.5545 C17.978125,15.13 17.992125,12.8375 16.588625,11.433125 C15.752125,10.596625 14.52975,10.2545 13.25225,10.479375 L12.94075,9.06275 C14.6267602,8.67408027 16.394157,9.17980632 17.619375,10.4015 C19.59075,12.372875 19.570625,15.585875 17.577375,17.57825 C15.585,19.5715 12.371125,19.59075 10.4015,17.62025 C9.21325,16.432875 8.71625,14.78 9.06275,12.94075 L10.479375,13.25225 L10.479375,13.253125 Z M6.576875,4 L9.649875,7.07125 L9.490625,8.459875 L13.622375,12.589875 C14.07475,12.46825 14.581375,12.493625 15.06875,13.018625 C15.557,13.543625 15.58675,14.4475 15.017125,15.017125 C14.7456087,15.2908279 14.3764176,15.4453582 13.9908885,15.4466796 C13.6053594,15.4479842 13.2351243,15.2959721 12.96175,15.024125 C12.5955731,14.6569027 12.4540212,14.1217429 12.59075,13.6215 L8.459875,9.4915 L7.072125,9.649875 L4,6.57775 L6.312625,6.312625 L6.57775,4 L6.576875,4 Z" id="形状" fill="#FA8F00"></path>
            </g>
        </g>
    </g>
</svg>