<?xml version="1.0" encoding="UTF-8"?>
<svg width="48px" height="48px" viewBox="0 0 48 48" version="1.1" xmlns="http://www.w3.org/2000/svg" xmlns:xlink="http://www.w3.org/1999/xlink">
    <title>固定资产</title>
    <g id="页面-1" stroke="none" stroke-width="1" fill="none" fill-rule="evenodd">
        <g id="TADS首页" transform="translate(-1256.000000, -822.000000)" fill-rule="nonzero">
            <g id="编组-3" transform="translate(190.000000, 785.000000)">
                <g id="icon_固定资产" transform="translate(1066.000000, 37.000000)">
                    <rect id="矩形" fill="#000000" opacity="0" x="0" y="0" width="48" height="48"></rect>
                    <path d="M41.8956458,17.7387444 C42.3905268,17.7387444 42.7889479,17.3361294 42.7889479,16.8454423 L42.7889479,8.79314183 C42.7889479,7.80337989 41.9879118,7.00234375 40.9981498,7.00234375 L7.00234375,7.00234375 C6.01258182,7.00234375 5.21154567,7.80337989 5.21154567,8.79314183 L5.21154567,39.2115457 C5.21154567,40.2013076 6.01258182,41.0023437 7.00234375,41.0023437 L41.0023438,41.0023437 C41.9921057,41.0023437 42.7931418,40.2013076 42.7931418,39.2115457 L42.7931418,24.0002468 C42.7931418,23.5053658 42.3905268,23.1069447 41.8998397,23.1069447 C41.4049588,23.1069447 41.0065377,23.5095597 41.0065377,24.0002468 L41.0065377,38.3140497 C41.0065377,38.8089307 40.6039226,39.2073518 40.1132356,39.2073518 L7.89564583,39.2073518 C7.40076487,39.2073518 7.00234375,38.8047367 7.00234375,38.3140497 L7.00234375,9.68644391 C7.00234375,9.19156294 7.40495877,8.79314183 7.89564583,8.79314183 L40.1048478,8.79314183 C40.5997287,8.79314183 40.9981498,9.19575685 40.9981498,9.68644391 L40.9981498,16.8454423 C40.9981498,17.3361294 41.4007649,17.7387444 41.8956458,17.7387444 Z" id="路径" fill="#1195FE"></path>
                    <path d="M30.9984375,24.9984375 L30.9984375,30.9984375 C30.9984375,31.5515625 31.4484375,31.996875 31.996875,31.996875 C32.55,31.996875 32.9953125,31.546875 32.9953125,30.9984375 L32.9953125,24.9984375 L36.99375,24.9984375 C37.546875,24.9984375 37.9921875,24.5484375 37.9921875,24 C37.9921875,23.446875 37.5421875,23.0015625 36.99375,23.0015625 L33,23.0015625 L33,21 C33,18.075 30.4921875,15.740625 27.5109375,16.021875 C24.909375,16.2703125 23.0015625,18.6 23.0015625,21.215625 L23.0015625,26.8828125 C23.0015625,28.3359375 22.021875,29.6671875 20.6015625,29.94375 C18.684375,30.3140625 17.0015625,28.8515625 17.0015625,27 L17.0015625,16.996875 C17.0015625,16.44375 16.5515625,15.9984375 16.003125,15.9984375 C15.45,15.9984375 15.0046875,16.4484375 15.0046875,16.996875 L15.0046875,22.996875 L11.00625,22.996875 C10.453125,22.996875 10.0078125,23.446875 10.0078125,23.9953125 C10.0078125,24.5484375 10.4578125,24.99375 11.00625,24.99375 L15,24.99375 L15,26.7796875 C15,29.390625 16.9078125,31.725 19.509375,31.9734375 C22.490625,32.259375 24.9984375,29.9203125 24.9984375,26.9953125 L24.9984375,21.1171875 C24.9984375,19.6640625 25.978125,18.3328125 27.3984375,18.05625 C29.315625,17.6859375 30.9984375,19.1484375 30.9984375,21 L30.9984375,24.9984375 Z" id="路径" fill="#1195FE"></path>
                </g>
            </g>
        </g>
    </g>
</svg>