<?xml version="1.0" encoding="UTF-8"?>
<svg width="141px" height="152px" viewBox="0 0 141 152" version="1.1" xmlns="http://www.w3.org/2000/svg" xmlns:xlink="http://www.w3.org/1999/xlink">
    <title>六边形1</title>
    <defs>
        <polygon id="path-1" points="62.5 0 116.626588 31.25 116.626588 93.75 62.5 125 8.37341226 93.75 8.37341226 31.25"></polygon>
    </defs>
    <g id="页面-1" stroke="none" stroke-width="1" fill="none" fill-rule="evenodd">
        <g id="TADS首页" transform="translate(-861.000000, -266.000000)">
            <g id="六边形1" transform="translate(861.600000, 266.600000)">
                <g id="编组-12备份-5">
                    <g id="编组-22" transform="translate(30.000000, 30.000000)" opacity="0.5" stroke="#66FFFF" stroke-linecap="round" stroke-width="3.6">
                        <path d="M0,90 L5.7245636,84.2754364 M85.2981949,4.70180511 L90,0" id="形状"></path>
                        <path d="M0,90 L5.7245636,84.2754364 M85.2981949,4.70180511 L90,0" id="形状" transform="translate(45.000000, 45.000000) scale(-1, 1) translate(-45.000000, -45.000000) "></path>
                    </g>
                    <path d="M75,1.55884573 L138.601905,38.2794229 L138.601905,111.720577 L75,148.441154 L11.3980947,111.720577 L11.3980947,38.2794229 L75,1.55884573 Z" id="多边形" stroke="#66FFFF" stroke-width="2.7"></path>
                    <g id="编组-19" transform="translate(13.400000, 13.400000)">
                        <mask id="mask-2" fill="white">
                            <use xlink:href="#path-1"></use>
                        </mask>
                        <use id="蒙版" fill-opacity="0.5" fill="#030C31" xlink:href="#path-1"></use>
                        <g id="编组-21" opacity="0.300000012" mask="url(#mask-2)" stroke="#66FFFF" stroke-width="0.9">
                            <g transform="translate(53.396875, 60.428125) rotate(-30.000000) translate(-53.396875, -60.428125) translate(-61.446875, -4.025000)">
                                <line x1="2.7607937e-13" y1="31.0546875" x2="229.101563" y2="30.46875" id="路径-19"></line>
                                <line x1="2.76304717e-13" y1="35.7421875" x2="229.101563" y2="35.15625" id="路径-19"></line>
                                <line x1="2.7467095e-13" y1="1.7578125" x2="229.101563" y2="1.171875" id="路径-19备份"></line>
                                <line x1="2.78839873e-13" y1="88.4765625" x2="229.101563" y2="87.890625" id="路径-19"></line>
                                <line x1="-1.77879266e-13" y1="47.4609375" x2="229.101563" y2="46.875" id="路径-19"></line>
                                <line x1="2.75234318e-13" y1="13.4765625" x2="229.101563" y2="12.890625" id="路径-19备份-2"></line>
                                <line x1="2.74952634e-13" y1="7.6171875" x2="229.101563" y2="7.03125" id="路径-19备份"></line>
                                <line x1="2.75516002e-13" y1="19.3359375" x2="229.101563" y2="18.75" id="路径-19备份-2"></line>
                                <line x1="2.79121557e-13" y1="94.3359375" x2="229.101563" y2="93.75" id="路径-19"></line>
                                <line x1="-1.77315898e-13" y1="59.1796875" x2="229.101563" y2="58.59375" id="路径-19"></line>
                                <line x1="2.75797686e-13" y1="25.1953125" x2="229.101563" y2="24.609375" id="路径-19备份-3"></line>
                                <line x1="2.79346904e-13" y1="99.0234375" x2="229.101563" y2="98.4375" id="路径-19"></line>
                                <line x1="-1.7675253e-13" y1="70.8984375" x2="229.101563" y2="70.3125" id="路径-19"></line>
                                <line x1="-1.7816095e-13" y1="41.6015625" x2="229.101563" y2="41.015625" id="路径-19"></line>
                                <line x1="-1.77597582e-13" y1="53.3203125" x2="229.101563" y2="52.734375" id="路径-19"></line>
                                <line x1="-1.77034214e-13" y1="65.0390625" x2="229.101563" y2="64.453125" id="路径-19"></line>
                                <line x1="-1.76470846e-13" y1="76.7578125" x2="229.101563" y2="76.171875" id="路径-19"></line>
                                <line x1="2.79628588e-13" y1="104.882812" x2="229.101563" y2="104.296875" id="路径-19"></line>
                                <line x1="2.78558189e-13" y1="82.6171875" x2="229.101563" y2="82.03125" id="路径-19"></line>
                                <line x1="2.79910272e-13" y1="110.742187" x2="229.101563" y2="110.15625" id="路径-19"></line>
                                <line x1="2.80191956e-13" y1="116.601562" x2="229.101563" y2="116.015625" id="路径-19"></line>
                                <line x1="2.8047364e-13" y1="122.460937" x2="229.101563" y2="121.875" id="路径-19"></line>
                                <line x1="2.80755324e-13" y1="128.320312" x2="229.101563" y2="127.734375" id="路径-19"></line>
                            </g>
                        </g>
                    </g>
                </g>
                <g id="编组-14" transform="translate(23.400000, 23.400000)">
                    <g id="编组-10" fill="#123072">
                        <circle id="椭圆形" cx="52" cy="52" r="52"></circle>
                    </g>
                    <g id="编组-8" transform="translate(29.000000, 58.000000)"></g>
                </g>
            </g>
        </g>
    </g>
</svg>