<?xml version="1.0" encoding="UTF-8"?>
<svg width="26px" height="26px" viewBox="0 0 26 26" version="1.1" xmlns="http://www.w3.org/2000/svg" xmlns:xlink="http://www.w3.org/1999/xlink">
    <title>面性吊钩</title>
    <g id="页面-1" stroke="none" stroke-width="1" fill="none" fill-rule="evenodd">
        <g id="TADS首页" transform="translate(-1586.000000, -205.000000)" fill-rule="nonzero">
            <g id="面性吊钩" transform="translate(1586.000000, 205.000000)">
                <rect id="矩形" fill="#000000" opacity="0" x="0" y="0" width="26" height="26"></rect>
                <path d="M16.9314931,14.3739342 C16.8587537,15.0309678 16.7672428,15.6984637 16.6780783,16.3450349 C16.638189,16.6149627 16.6029925,16.8890755 16.5654495,17.1631882 C16.4176243,18.2596391 16.0023056,19.0526829 15.2936829,19.5925385 C15.0332288,19.7913225 14.7281925,19.9587196 14.378574,20.0884523 C12.9847928,20.6031984 11.6074367,20.393952 10.3990237,19.4795454 C8.5500345,18.0796873 8.27080898,15.9746689 9.71855812,14.3634719 C9.87107627,14.1939823 10.0564445,14.0244928 10.3098592,13.8319861 C10.4741095,13.7085308 10.6430527,13.5871679 10.8119959,13.4699899 C10.9809391,13.352812 11.159268,13.2272641 11.3258647,13.0975314 L11.3610612,13.0703294 C11.3704469,13.064052 11.3939113,13.0514972 11.4150292,13.0389424 C11.4455328,13.0242952 11.4807293,13.0096479 11.5135793,12.9845384 C11.8843158,12.74809 12.086109,12.4488677 12.0931483,12.1329057 C12.0978412,11.9152895 11.8092299,11.6139747 11.9476694,11.4068208 C12.0743768,11.4361153 12.1705806,11.5219063 12.2879022,11.565848 C12.5835528,11.6788411 12.9284784,11.7311527 13.2522862,11.6934883 C13.4564258,11.6683788 13.6535262,11.6076973 13.8177765,11.4947043 C13.8670516,11.4612249 13.9163267,11.4277454 13.977334,11.4172831 C14.2330952,11.3691565 14.134545,11.7269677 14.1580093,11.8483306 C14.2260559,12.2249741 14.0970021,12.5534909 13.7309585,12.9071172 C13.6511798,12.9824459 13.5737475,13.0619595 13.4963152,13.1372882 C12.8181961,13.7901369 12.1119198,14.4701875 11.7294512,15.3573921 C11.4971543,15.90771 11.3117861,16.5542813 11.7294512,17.1987601 C12.0954947,17.7616328 12.6797565,18.0252832 13.3743007,17.9457696 C14.0993485,17.8641635 14.6484138,17.4665954 14.9393715,16.7970071 C15.0214966,16.6086854 15.1059682,16.4182712 15.1857469,16.227857 C15.4016188,15.7256657 15.6245299,15.2067347 15.8802911,14.7150058 C15.9835342,14.5162217 16.1618631,14.3090678 16.3894671,14.1353934 C16.4199707,14.1123763 16.4551672,14.0914516 16.4856708,14.0663421 C16.5631031,14.011938 16.7836678,14.0014757 16.8681394,14.0307702 C16.9080288,14.0788968 16.9455717,14.2400165 16.9314931,14.3739342 L16.9314931,14.3739342 Z M18.9728898,5.38261805 C18.9048432,5.16918677 18.7992537,4.9662178 18.6678535,4.77789607 C18.578689,4.65025579 18.5129889,4.56655724 18.4097459,4.52261551 C18.3487386,4.49750595 18.2783456,4.48495116 18.1821419,4.48495116 L7.9587334,4.48495116 C7.79682952,4.48495116 7.55280049,4.44519436 7.42609311,4.53726275 C7.37447159,4.5749271 7.33458223,4.6439784 7.2970393,4.69210506 C7.16798548,4.86368708 7.05770313,5.04991634 6.98027085,5.24451546 C6.75266685,5.80738817 6.8488706,6.39746291 7.29234643,6.85361998 C7.34866082,6.91220896 7.40966808,6.96870548 7.4753682,7.02101707 C7.62319348,7.15493474 7.77336519,7.28885241 7.92119047,7.42486254 C8.27550185,7.74710194 8.63215966,8.06724887 8.98881747,8.38948827 C9.41586827,8.77450158 9.84526551,9.16160734 10.2723163,9.54871311 C10.6360134,9.8772299 11.002057,10.2057467 11.3657541,10.5363559 C11.6215153,10.7686194 11.8678907,11.0406397 12.2128164,11.1745573 C12.6140564,11.3293997 13.0739573,11.3503243 13.4939688,11.2457011 C13.9702947,11.1264307 14.2894096,10.7581571 14.6272959,10.4547499 C15.0168038,10.1011235 15.4086581,9.74958962 15.8005124,9.39596327 L17.1192077,8.20744394 C17.4570941,7.90194425 17.7949804,7.59644456 18.1352132,7.29094487 C18.2337634,7.2030614 18.3323136,7.11308547 18.4308637,7.02520199 C18.9494254,6.58996956 19.1652973,5.99570989 18.9728898,5.38261805 L18.9728898,5.38261805 Z M10.1033731,8.17814945 L8.79640997,7.00009243 L10.6688635,5.33030646 L13.2992148,5.33030646 L10.1033731,8.17814945 Z M12.6164028,10.4526574 C12.5765135,10.4149931 12.5366241,10.3773287 12.4943883,10.3375719 C12.4427668,10.2915377 12.3934917,10.243411 12.3442166,10.1973768 L11.3141325,9.26832299 L15.7324658,5.328214 L18.3628172,5.328214 L12.6164028,10.4526574 Z M8.79640997,4.01833178 C8.53830234,4.01833178 8.33181624,3.83210252 8.33181624,3.60402398 L8.33181624,2.03676873 C8.33181624,1.80659774 8.54064877,1.62246094 8.79640997,1.62246094 C9.05451759,1.62246094 9.2610037,1.8086902 9.2610037,2.03676873 L9.2610037,3.60402398 C9.2610037,3.83210252 9.05217116,4.01833178 8.79640997,4.01833178 L8.79640997,4.01833178 Z M16.9338395,4.01833178 C16.6757319,4.01833178 16.4692458,3.83210252 16.4692458,3.60402398 L16.4692458,2.03676873 C16.4692458,1.80659774 16.6780783,1.62246094 16.9338395,1.62246094 C17.1919471,1.62246094 17.3984332,1.8086902 17.3984332,2.03676873 L17.3984332,3.60402398 C17.3984332,3.83210252 17.1919471,4.01833178 16.9338395,4.01833178 L16.9338395,4.01833178 Z" id="形状" fill="#FF9000"></path>
            </g>
        </g>
    </g>
</svg>