<?xml version="1.0" encoding="UTF-8"?>
<svg width="16px" height="16px" viewBox="0 0 16 16" version="1.1" xmlns="http://www.w3.org/2000/svg" xmlns:xlink="http://www.w3.org/1999/xlink">
    <title>icon-命令集</title>
    <g id="页面-1" stroke="none" stroke-width="1" fill="none" fill-rule="evenodd">
        <g id="系统内建扫描-任务表" transform="translate(-832.000000, -454.000000)" fill-rule="nonzero">
            <g id="编组-2" transform="translate(832.000000, 452.000000)">
                <g id="icon-命令集" transform="translate(0.000000, 2.000000)">
                    <rect id="矩形" fill="#000000" opacity="0" x="0" y="0" width="16" height="16"></rect>
                    <path d="M14.4345313,3.5625 L8.17390625,0.84953125 C8.07486109,0.806638275 7.96248266,0.806638275 7.8634375,0.84953125 L1.60265625,3.5625 C1.45979404,3.62440558 1.36734375,3.76523935 1.36734375,3.9209375 L1.36734375,12 C1.36734375,12.1556981 1.45979404,12.2965319 1.60265625,12.3584375 L7.8634375,15.0703125 C7.96248266,15.1132055 8.07486109,15.1132055 8.17390625,15.0703125 L14.4345313,12.358125 C14.5773506,12.296312 14.6698549,12.1556219 14.67,12 L14.67,3.92015625 C14.6696684,3.76470464 14.5771947,3.62424516 14.4345313,3.5625 Z M13.5859564,11.5481259 L8.01859778,13.9599219 L2.45138734,11.5481259 L2.45138734,4.37171782 L8.01859778,1.95992188 L13.5859564,4.37171782 L13.5859564,11.5481259 Z" id="形状" fill="#00C1DE"></path>
                    <path d="M4.0659375,7.69484375 L6.92375,7.69484375 C7.13948623,7.69484375 7.314375,7.51995498 7.314375,7.30421875 L7.314375,4.44640625 C7.314375,4.23067002 7.13948623,4.05578125 6.92375,4.05578125 L4.0659375,4.05578125 C3.85020127,4.05578125 3.6753125,4.23067002 3.6753125,4.44640625 L3.6753125,7.30421875 C3.6753125,7.51995498 3.85020127,7.69484375 4.0659375,7.69484375 Z M4.4565625,4.83703125 L6.533125,4.83703125 L6.533125,6.91359375 L4.4565625,6.91359375 L4.4565625,4.83703125 Z M8.828125,7.69484375 L11.6859375,7.69484375 C11.9016737,7.69484375 12.0765625,7.51995498 12.0765625,7.30421875 L12.0765625,4.44640625 C12.0765625,4.23067002 11.9016737,4.05578125 11.6859375,4.05578125 L8.828125,4.05578125 C8.61238877,4.05578125 8.4375,4.23067002 8.4375,4.44640625 L8.4375,7.30421875 C8.4375,7.51995498 8.61238877,7.69484375 8.828125,7.69484375 Z M9.21875,4.83703125 L11.2953125,4.83703125 L11.2953125,6.91359375 L9.21875,6.91359375 L9.21875,4.83703125 Z M6.956875,8.33234375 L4.0990625,8.33234375 C3.88332627,8.33234375 3.7084375,8.50723252 3.7084375,8.72296875 L3.7084375,11.5807812 C3.7084375,11.7965175 3.88332627,11.9714062 4.0990625,11.9714062 L6.956875,11.9714062 C7.17261123,11.9714062 7.3475,11.7965175 7.3475,11.5807812 L7.3475,8.72296875 C7.3475,8.50723252 7.17261123,8.33234375 6.956875,8.33234375 Z M6.56625,11.1901562 L4.4896875,11.1901562 L4.4896875,9.11359375 L6.56625,9.11359375 L6.56625,11.1901562 Z M8.828125,11.9714062 L11.6859375,11.9714062 C11.9016737,11.9714062 12.0765625,11.7965175 12.0765625,11.5807812 L12.0765625,8.72296875 C12.0765625,8.50723252 11.9016737,8.33234375 11.6859375,8.33234375 L8.828125,8.33234375 C8.61238877,8.33234375 8.4375,8.50723252 8.4375,8.72296875 L8.4375,11.5807812 C8.4375,11.7965175 8.61238877,11.9714062 8.828125,11.9714062 Z M9.21875,9.11359375 L11.2953125,9.11359375 L11.2953125,11.1901562 L9.21875,11.1901562 L9.21875,9.11359375 Z" id="形状" fill="#00C1DE"></path>
                </g>
            </g>
        </g>
    </g>
</svg>