<?xml version="1.0" encoding="UTF-8"?>
<svg width="40px" height="41px" viewBox="0 0 40 41" version="1.1" xmlns="http://www.w3.org/2000/svg" xmlns:xlink="http://www.w3.org/1999/xlink">
    <title>我的</title>
    <defs>
        <linearGradient x1="50%" y1="0%" x2="50%" y2="175.097656%" id="linearGradient-1">
            <stop stop-color="#082863" offset="0%"></stop>
            <stop stop-color="#2571FF" offset="100%"></stop>
        </linearGradient>
    </defs>
    <g id="页面-1" stroke="none" stroke-width="1" fill="none" fill-rule="evenodd">
        <g id="TADS首页" transform="translate(-1796.000000, -20.000000)">
            <g id="编组-7" transform="translate(1796.000000, 20.000000)">
                <g id="我的" transform="translate(0.000000, -0.000000)">
                    <ellipse id="椭圆形" fill="url(#linearGradient-1)" cx="20" cy="20.2666667" rx="20" ry="20.2666667"></ellipse>
                    <g id="用户" opacity="0.500511533" transform="translate(13.000000, 12.160000)" fill="#FFFFFF" fill-rule="nonzero">
                        <path d="M7.15,0 C9.53333333,0 11.4452381,1.824 11.4452381,4.05333333 C11.4452381,6.28266667 9.53333333,8.10666667 7.15,8.10666667 C4.76666667,8.10666667 2.8547619,6.28266667 2.8547619,4.05333333 C2.8547619,1.824 4.79285714,0 7.15,0 Z M7.15,0 C9.53333333,0 11.4452381,1.824 11.4452381,4.05333333 C11.4452381,6.28266667 9.53333333,8.10666667 7.15,8.10666667 C4.76666667,8.10666667 2.8547619,6.28266667 2.8547619,4.05333333 C2.8547619,1.824 4.79285714,0 7.15,0 Z M5.55238095,9.44933333 L9.14047619,9.44933333 C12.1785714,9.44933333 14.6666667,11.8053333 14.6666667,14.6933333 L14.6666667,15.0226667 C14.6666667,16.1626667 12.1785714,16.2133333 9.11428571,16.2133333 L5.55238095,16.2133333 C2.48809524,16.2133333 0,16.2133333 0,15.0226667 L0,14.6933333 C0,11.8053333 2.48809524,9.44933333 5.55238095,9.44933333 Z" id="形状"></path>
                    </g>
                </g>
            </g>
        </g>
    </g>
</svg>