<?xml version="1.0" encoding="UTF-8"?>
<svg width="90px" height="90px" viewBox="0 0 90 90" version="1.1" xmlns="http://www.w3.org/2000/svg" xmlns:xlink="http://www.w3.org/1999/xlink">
    <title>icon-威胁源管理</title>
    <defs>
        <filter x="-57.7%" y="-107.1%" width="215.4%" height="314.3%" filterUnits="objectBoundingBox" id="filter-1">
            <feGaussianBlur stdDeviation="10" in="SourceGraphic"></feGaussianBlur>
        </filter>
        <linearGradient x1="2.89247537%" y1="95.52823%" x2="97.1075246%" y2="4.49201823%" id="linearGradient-2">
            <stop stop-color="#ACE1FF" offset="0%"></stop>
            <stop stop-color="#77BFFF" offset="100%"></stop>
        </linearGradient>
        <linearGradient x1="3.19468268%" y1="95.9840014%" x2="97.4056604%" y2="4.72216665%" id="linearGradient-3">
            <stop stop-color="#0865F1" offset="0%"></stop>
            <stop stop-color="#51B4FF" offset="100%"></stop>
        </linearGradient>
        <linearGradient x1="49.9021526%" y1="100%" x2="49.9021526%" y2="0%" id="linearGradient-4">
            <stop stop-color="#ACE1FF" offset="0%"></stop>
            <stop stop-color="#77BFFF" offset="100%"></stop>
        </linearGradient>
        <linearGradient x1="49.9021526%" y1="2.13333488e-14%" x2="49.9021526%" y2="99.9199359%" id="linearGradient-5">
            <stop stop-color="#ACE1FF" offset="0%"></stop>
            <stop stop-color="#77BFFF" offset="100%"></stop>
        </linearGradient>
        <linearGradient x1="0.038197097%" y1="50%" x2="100%" y2="50%" id="linearGradient-6">
            <stop stop-color="#4BB1FF" offset="0%"></stop>
            <stop stop-color="#94CEFF" offset="100%"></stop>
        </linearGradient>
    </defs>
    <g id="页面-1" stroke="none" stroke-width="1" fill="none" fill-rule="evenodd">
        <g id="图标" transform="translate(-301.000000, -198.000000)">
            <g id="icon-威胁源管理" transform="translate(301.000000, 198.000000)">
                <g transform="translate(15.000000, 10.000000)">
                    <ellipse id="椭圆形" fill="#C7E6F8" filter="url(#filter-1)" cx="26" cy="55" rx="26" ry="14"></ellipse>
                    <g id="资源-3" transform="translate(2.000000, 0.000000)" fill-rule="nonzero">
                        <rect id="矩形" fill="url(#linearGradient-2)" x="0" y="5.37" width="47.71" height="46.09" rx="3.32"></rect>
                        <path d="M3.42,6.28 L43.42,6.28 C45.2535854,6.28 46.74,7.76641463 46.74,9.6 L46.74,49.29 C46.74,50.4884579 45.7684579,51.46 44.57,51.46 L3.42,51.46 C1.58641463,51.46 0.1,49.9735854 0.1,48.14 L0.1,9.6 C0.1,7.76641463 1.58641463,6.28 3.42,6.28 Z" id="路径" fill="url(#linearGradient-3)"></path>
                        <rect id="矩形" fill="#FFFFFF" transform="translate(17.020000, 24.420000) rotate(90.000000) translate(-17.020000, -24.420000) " x="15.28" y="12.4" width="3.48" height="24.04" rx="1.74"></rect>
                        <rect id="矩形" fill="#FFFFFF" transform="translate(12.510000, 33.010000) rotate(90.000000) translate(-12.510000, -33.010000) " x="10.77" y="25.51" width="3.48" height="15" rx="1.74"></rect>
                        <rect id="矩形" fill="#FFFFFF" x="10.84" y="0.09" width="6.62" height="14.01" rx="3.31"></rect>
                        <rect id="矩形" fill="url(#linearGradient-4)" x="11.45" y="0.79" width="5.11" height="12.49" rx="2.555"></rect>
                        <rect id="矩形" fill="#40A6FE" x="11.73" y="0.9" width="5.11" height="12.49" rx="2.555"></rect>
                        <rect id="矩形" fill="#FFFFFF" x="30.65" y="0" width="6.62" height="14.01" rx="3.31"></rect>
                        <rect id="矩形" fill="url(#linearGradient-5)" transform="translate(34.095000, 6.945000) rotate(-180.000000) translate(-34.095000, -6.945000) " x="31.54" y="0.7" width="5.11" height="12.49" rx="2.555"></rect>
                        <rect id="矩形" fill="#40A6FE" transform="translate(33.815000, 7.055000) rotate(-180.000000) translate(-33.815000, -7.055000) " x="31.26" y="0.81" width="5.11" height="12.49" rx="2.555"></rect>
                        <circle id="椭圆形" fill="#FFFFFF" cx="43.85" cy="32.61" r="13.09"></circle>
                        <circle id="椭圆形" fill="url(#linearGradient-6)" cx="44.33" cy="33.34" r="13.09"></circle>
                        <path d="M52.6,28.44 C51.2634709,28.44 50.18,29.5234709 50.18,30.86 C50.1811229,31.2234696 50.2631037,31.5821358 50.42,31.91 L48.03,34.3 C47.7585738,34.1960558 47.4706426,34.1418569 47.18,34.14 C46.8892724,34.1409698 46.6011828,34.1951984 46.33,34.3 L42.81,30.81 C43.5738024,29.8199466 43.4615575,28.4118679 42.5505535,27.5553216 C41.6395495,26.6987753 40.2272315,26.673426 39.2860764,27.4967284 C38.3449212,28.3200308 38.1822185,29.7231746 38.91,30.74 L36.81,32.9 C36.5772675,32.8245628 36.3346185,32.7841213 36.09,32.78 C35.1062485,32.7800083 34.2195563,33.3731467 33.8440319,34.2824037 C33.4685075,35.1916608 33.6782474,36.237627 34.3752976,36.9318086 C35.0723477,37.6259902 36.11917,37.8314151 37.0268707,37.4521445 C37.9345715,37.0728738 38.5240484,36.1837431 38.52,35.2 C38.5224941,34.7374786 38.3866811,34.2847688 38.13,33.9 L40.31,31.69 C40.5101657,31.7368927 40.7145117,31.7636921 40.92,31.77 C41.0878494,31.76874 41.2552249,31.7520025 41.42,31.72 L45.08,35.37 C44.5741787,36.2532827 44.6751269,37.3586661 45.3325766,38.135714 C45.9900263,38.9127619 47.0634322,39.1953621 48.0182815,38.8427912 C48.9731309,38.4902203 49.6053023,37.5778484 49.6,36.56 C49.5983703,36.1454493 49.4880321,35.7385772 49.28,35.38 L51.59,33.06 C52.3399981,33.4145903 53.2196495,33.3585067 53.918543,32.9115399 C54.6174365,32.4645732 55.0373105,31.689565 55.0300939,30.86 C55.0300939,30.2164397 54.7736697,29.5993829 54.3176665,29.1452563 C53.8616634,28.6911297 53.2435548,28.4373407 52.6,28.44 Z" id="路径" fill="#4BB1FF"></path>
                        <path d="M52.81,28.62 C51.4679481,28.62 50.38,29.7079481 50.38,31.05 C50.384828,31.3981879 50.4704069,31.7405033 50.63,32.05 L48.23,34.45 C47.959462,34.3417789 47.6713509,34.2841566 47.38,34.28 C47.0887678,34.2852647 46.8008546,34.3428473 46.53,34.45 L43.03,30.99 C43.6651983,30.1502753 43.6845508,28.9962045 43.0778641,28.1356549 C42.4711774,27.2751053 41.3776934,26.9055831 40.3733673,27.2217215 C39.3690412,27.5378599 38.6843778,28.4671015 38.68,29.52 C38.6805581,30.0190535 38.8379777,30.5053054 39.13,30.91 L36.97,33.07 C36.7401934,32.9979158 36.5008454,32.9608337 36.26,32.96 C35.1562354,32.9465224 34.1844116,33.6846513 33.9012295,34.7515561 C33.6180473,35.8184608 34.0959066,36.9413705 35.0610699,37.4770362 C36.0262332,38.0127018 37.2319414,37.8241721 37.9875151,37.0194446 C38.7430888,36.2147172 38.8553538,34.9995331 38.26,34.07 L40.47,31.86 C40.6652709,31.9158 40.8669513,31.946052 41.07,31.95 C41.2384874,31.9504233 41.4063963,31.9302743 41.57,31.89 L45.23,35.55 C44.8024372,36.2987773 44.8055791,37.2184928 45.2382479,37.9643313 C45.6709167,38.7101699 46.4677488,39.1694574 47.33,39.17 C48.1975047,39.1820565 49.0039803,38.7249819 49.4393272,37.9745268 C49.874674,37.2240717 49.8711079,36.2970833 49.43,35.55 L51.81,33.25 C52.1233618,33.3963931 52.4641687,33.4747787 52.81,33.48 C54.1520519,33.4799999 55.2399999,32.3920519 55.2399999,31.05 C55.2399999,29.7079481 54.1520519,28.6200001 52.81,28.62 L52.81,28.62 Z" id="路径" fill="#FFFFFF"></path>
                    </g>
                </g>
            </g>
        </g>
    </g>
</svg>