<?xml version="1.0" encoding="UTF-8"?>
<svg width="24px" height="24px" viewBox="0 0 24 24" version="1.1" xmlns="http://www.w3.org/2000/svg" xmlns:xlink="http://www.w3.org/1999/xlink">
    <title>节点管理</title>
    <g id="页面-1" stroke="none" stroke-width="1" fill="none" fill-rule="evenodd">
        <g id="图标" transform="translate(-55.000000, -115.000000)" fill-rule="nonzero">
            <g id="节点管理" transform="translate(55.000000, 115.000000)">
                <rect id="矩形" fill="#000000" opacity="0" x="0" y="0" width="23.999999" height="23.999999"></rect>
                <path d="M10.4999999,7.83333367 C10.4999999,8.7538082 11.2461919,9.50000025 12.1666664,9.50000025 C13.087141,9.50000025 13.833333,8.7538082 13.833333,7.83333367 C13.833333,7.23789104 13.5156682,6.68767935 12.9999999,6.38995803 C12.4843313,6.09223671 11.8490016,6.09223671 11.3333331,6.38995803 C10.8176647,6.68767935 10.4999999,7.23789104 10.4999999,7.83333367 Z M14.6266664,2.00000019 C15.0858,1.99974573 15.5081188,2.25121741 15.7266663,2.65500037 L18.2083329,7.23833359 C18.4092575,7.60955655 18.4092575,8.0571106 18.2083329,8.42833356 L15.725833,13.0116668 C15.5074277,13.4151868 15.0855011,13.6666154 14.6266664,13.6666667 L13,13.6666667 L13,15.4383334 C14.4383331,15.8091667 15.5,17.1133333 15.5,18.6666666 L20.5,18.6666666 C20.9602368,18.6666666 21.3333328,19.0397627 21.3333328,19.5000002 C21.3333328,19.9602372 20.9602368,20.3333332 20.5,20.3333332 L15.053333,20.3341666 C14.4579455,21.3654083 13.3574416,22.0004854 12.1666664,22.0000002 C10.9758912,22.0004854 9.87538741,21.3654083 9.27999985,20.3341666 L3.83333332,20.3333332 C3.37309603,20.3333332 3,19.9602372 3,19.5000002 C3,19.0397626 3.37309603,18.6666666 3.83333332,18.6666666 L8.83333319,18.6666666 C8.83353536,17.1465582 9.86164167,15.8189302 11.3333331,15.4383334 L11.3333331,13.6666667 L9.7066665,13.6666667 C9.29208182,13.6668368 8.90438672,13.4614395 8.67166653,13.1183334 L8.60749987,13.0116668 L6.1241666,8.42833356 C5.92324207,8.0571106 5.92324207,7.60955655 6.1241666,7.23833359 L8.60749987,2.65500037 C8.82590522,2.2514803 9.24783174,2.00000019 9.7066665,2.00000019 L14.6266664,2.00000019 Z M12.1666664,16.1666665 C10.7859546,16.1666665 9.66666644,17.2859546 9.66666644,18.6666665 C9.66666644,20.0473783 10.7859546,21.1666665 12.1666664,21.1666665 C13.5473783,21.1666665 14.6666664,20.0473783 14.6666664,18.6666665 C14.6666664,17.2859546 13.5473783,16.1666665 12.1666664,16.1666665 L12.1666664,16.1666665 Z M14.8215831,2.83333367 L9.51258312,2.83333367 L6.80458312,7.83333367 L9.51358311,12.8333337 L14.8205831,12.8333337 L17.5295831,7.83333367 L14.8215831,2.83333367 L14.8215831,2.83333367 Z" id="形状" fill="currentColor"></path>
            </g>
        </g>
    </g>
</svg>