<?xml version="1.0" encoding="UTF-8"?>
<svg width="24px" height="24px" viewBox="0 0 24 24" version="1.1" xmlns="http://www.w3.org/2000/svg" xmlns:xlink="http://www.w3.org/1999/xlink">
    <title>icon_动态感知备份</title>
    <g id="页面-1" stroke="none" stroke-width="1" fill="none" fill-rule="evenodd">
        <g id="图标" transform="translate(-309.000000, -45.000000)" fill-rule="nonzero">
            <g id="icon_动态感知" transform="translate(309.000000, 45.000000)">
                <rect id="矩形" fill="#000000" opacity="0" x="0" y="0" width="24" height="24"></rect>
                <path d="M11.2429687,16.6570312 L11.2289063,16.6570312 C11.0695313,16.65 10.9289063,16.5445312 10.8820313,16.3898437 L8.596875,9.07734375 L7.29609375,12.2554687 C7.2375,12.3984375 7.09921875,12.4921875 6.94453125,12.4921875 L5.446875,12.4921875 C5.2359375,12.4921875 5.0671875,12.3234375 5.0671875,12.1125 C5.0671875,11.9015625 5.2359375,11.7328125 5.446875,11.7328125 L6.6890625,11.7328125 L8.28984375,7.8140625 C8.35078125,7.66640625 8.49140625,7.5796875 8.6578125,7.57734375 C8.8171875,7.584375 8.95546875,7.68984375 9.0046875,7.84453125 L11.2851563,15.1476562 L13.2539063,10.2445312 C13.3101563,10.1015625 13.4484375,10.0078125 13.6007813,10.0054688 C13.7601562,10.0195312 13.89375,10.0945313 13.9523438,10.2351562 L15.1710938,13.06875 L15.7851563,11.9132813 C15.8507813,11.7890625 15.9796875,11.7117187 16.1203125,11.7117187 L17.4328125,11.7117187 C17.64375,11.7117187 17.8125,11.8804687 17.8125,12.0914062 C17.8125,12.3023437 17.64375,12.4710938 17.4328125,12.4710938 L16.3476562,12.4710938 L15.46875,14.1210937 C15.4007813,14.25 15.2578125,14.3226562 15.1171875,14.3226562 C14.971875,14.315625 14.8429688,14.2265625 14.784375,14.0929687 L13.6148438,11.3742187 L11.5898438,16.4203125 C11.5382813,16.5632812 11.3976563,16.6570312 11.2429687,16.6570312 L11.2429687,16.6570312 Z" id="路径" fill="currentColor"></path>
                <path d="M18.1523437,5.765625 C19.1882812,6.8015625 19.9617187,8.0859375 20.3882812,9.478125 L21.1359375,9.2484375 C20.671875,7.734375 19.8304687,6.33984375 18.7054687,5.2125 C16.2609375,2.76796875 12.796875,1.80703125 9.43828125,2.6390625 L9.628125,3.3984375 C12.7171875,2.63203125 15.9046875,3.51796875 18.1523437,5.765625 Z M5.44921875,5.765625 L4.89609375,5.2125 C1.0875,9.02109375 1.0875,15.215625 4.89609375,19.021875 L5.44921875,18.46875 C1.94765625,14.9648438 1.94765625,9.2671875 5.44921875,5.765625 Z M21.2882812,14.4328125 L20.5265625,14.2476563 C20.1398437,15.8414063 19.3171875,17.3015625 18.15,18.46875 C15.8742187,20.7445313 12.5296875,21.6304688 9.421875,20.7820313 L9.215625,21.5367188 C12.5929687,22.4601563 16.2304687,21.496875 18.703125,19.021875 C19.9734375,17.7539063 20.86875,16.1671875 21.2882812,14.4328125 L21.2882812,14.4328125 Z M20.371875,12.965625 C20.8546875,13.4484375 21.6398437,13.4484375 22.1226562,12.965625 C22.6054687,12.4828125 22.6054687,11.6976563 22.1226562,11.2148438 C21.6398437,10.7320313 20.8546875,10.7320313 20.3742187,11.2148438 C19.8914062,11.6976563 19.8914062,12.4828125 20.371875,12.965625 Z M21.7851562,11.5523438 C22.0828125,11.85 22.0828125,12.3328125 21.7851562,12.628125 C21.4875,12.9257813 21.0046875,12.9257813 20.709375,12.628125 C20.4117187,12.3304688 20.4117187,11.8476563 20.709375,11.5523438 C21.0070312,11.2570313 21.4898437,11.2570313 21.7851562,11.5523438 L21.7851562,11.5523438 Z M8.1421875,19.359375 C7.659375,18.8765625 6.871875,18.8765625 6.3890625,19.359375 C5.90625,19.8421875 5.90625,20.6296875 6.3890625,21.1125 C6.871875,21.5953125 7.659375,21.5953125 8.1421875,21.1125 C8.62734375,20.6296875 8.62734375,19.8421875 8.1421875,19.359375 Z M6.7265625,20.775 C6.42890625,20.4773437 6.42890625,19.9945313 6.7265625,19.696875 C7.02421875,19.3992188 7.50703125,19.3992188 7.8046875,19.696875 C8.10234375,19.9945313 8.10234375,20.4773437 7.8046875,20.775 C7.509375,21.0726563 7.02421875,21.0726563 6.7265625,20.775 Z M6.40078125,4.85859375 C6.88359375,5.34140625 7.67109375,5.34140625 8.15390625,4.85859375 C8.63671875,4.37578125 8.63671875,3.58828125 8.15390625,3.10546875 C7.67109375,2.62265625 6.88359375,2.62265625 6.40078125,3.10546875 C5.91796875,3.590625 5.91796875,4.37578125 6.40078125,4.85859375 Z M7.81640625,3.44296875 C8.1140625,3.740625 8.1140625,4.2234375 7.81640625,4.52109375 C7.51875,4.81875 7.0359375,4.81875 6.73828125,4.52109375 C6.440625,4.2234375 6.440625,3.740625 6.73828125,3.44296875 C7.0359375,3.1453125 7.51875,3.1453125 7.81640625,3.44296875 Z" id="形状" fill="currentColor"></path>
                <path d="M19.1765625,9.55078125 C16.4835937,3.1921875 10.14375,4.5 10.0804687,4.51640625 L10.0007812,4.15078125 C10.0664062,4.134375 16.7109375,2.765625 19.5210937,9.40546875 L19.1765625,9.55078125 L19.1765625,9.55078125 Z" id="路径" fill="currentColor"></path>
            </g>
        </g>
    </g>
</svg>