<?xml version="1.0" encoding="UTF-8"?>
<svg width="91px" height="91px" viewBox="0 0 91 91" version="1.1" xmlns="http://www.w3.org/2000/svg" xmlns:xlink="http://www.w3.org/1999/xlink">
    <title>icon2</title>
    <defs>
        <filter x="-57.7%" y="-120.0%" width="215.4%" height="340.0%" filterUnits="objectBoundingBox" id="filter-1">
            <feGaussianBlur stdDeviation="10" in="SourceGraphic"></feGaussianBlur>
        </filter>
        <linearGradient x1="12.7531719%" y1="94.1764706%" x2="87.2468281%" y2="5.84313725%" id="linearGradient-2">
            <stop stop-color="#ACE1FF" offset="0%"></stop>
            <stop stop-color="#77BFFF" offset="100%"></stop>
        </linearGradient>
        <linearGradient x1="13.2751736%" y1="94.4%" x2="87.2792268%" y2="6.3%" id="linearGradient-3">
            <stop stop-color="#0865F1" offset="0%"></stop>
            <stop stop-color="#51B4FF" offset="100%"></stop>
        </linearGradient>
        <linearGradient x1="21.5714286%" y1="59.4920635%" x2="78.4285714%" y2="40.5238095%" id="linearGradient-4">
            <stop stop-color="#ACE1FF" offset="0%"></stop>
            <stop stop-color="#77BFFF" offset="100%"></stop>
        </linearGradient>
        <linearGradient x1="0%" y1="49.8445596%" x2="100%" y2="49.8445596%" id="linearGradient-5">
            <stop stop-color="#4BB1FF" offset="0%"></stop>
            <stop stop-color="#94CEFF" offset="100%"></stop>
        </linearGradient>
    </defs>
    <g id="页面-1" stroke="none" stroke-width="1" fill="none" fill-rule="evenodd">
        <g id="图标" transform="translate(-195.000000, -254.000000)">
            <g id="icon2" transform="translate(195.440186, 254.120000)">
                <g transform="translate(17.000000, 9.000000)">
                    <ellipse id="椭圆形备份-5" fill="#C7E6F8" filter="url(#filter-1)" cx="26" cy="59.38" rx="26" ry="12.5"></ellipse>
                    <g transform="translate(4.439985, 0.000000)" fill-rule="nonzero">
                        <g>
                            <rect id="矩形" fill="url(#linearGradient-2)" x="1.50817996e-05" y="5.25" width="43" height="51" rx="3.32"></rect>
                            <path d="M3.32001508,6.25 L38.6800151,6.25 C39.5622692,6.25 40.4082432,6.60115309 41.0311522,7.22593835 C41.6540612,7.85072362 42.0026725,8.6977499 42.0000302,9.58 L42.0000302,54.08 C42.0000302,55.2784579 41.028473,56.25 39.8300151,56.25 L3.32001508,56.25 C1.48642971,56.25 0,54.7635854 0,52.93 L0,9.58 C-0.00264231007,8.6977499 0.345968914,7.85072362 0.968877949,7.22593835 C1.59178698,6.60115309 2.43776098,6.25 3.32001508,6.25 Z" id="路径" fill="url(#linearGradient-3)"></path>
                            <rect id="矩形" fill="#FFFFFF" x="9.00001508" y="0" width="25" height="12" rx="6"></rect>
                            <rect id="矩形" fill="url(#linearGradient-4)" x="11.0000151" y="2.5" width="21" height="7" rx="3.5"></rect>
                            <path d="M13.6300151,3.25 L27.8800151,3.25 C28.7092261,3.25 29.5043295,3.58008144 30.0897313,4.16735954 C30.6751331,4.75463764 31.0026728,5.55079328 31.0000311,6.38 L31.0000311,7.21 C31.0000311,8.48025492 29.97027,9.51 28.7000151,9.51 L14.1200151,9.51 C13.2908041,9.51 12.4957007,9.17991856 11.9102989,8.59264046 C11.324897,8.00536236 10.9973574,7.20920672 10.999999,6.38 L10.999999,5.88 C10.999999,4.42749111 12.1775062,3.25 13.6300151,3.25 Z" id="路径" fill="#40A6FE"></path>
                            <path d="M45.8900151,23.98 L35.3000151,20.88 L25.5600151,26.15 L22.3800151,36.88 L27.6100151,46.68 L38.1900151,49.83 L47.9300151,44.5 L51.1200151,33.8 L45.8900151,23.98 Z M38.2100151,40.2 C36.2844346,40.5052283 34.3813216,39.5357681 33.4961035,37.7986977 C32.6108854,36.0616274 32.9449342,33.9521005 34.3235249,32.5735098 C35.7021156,31.1949191 37.8116424,30.8608704 39.5487128,31.7460884 C41.2857832,32.6313065 42.2552434,34.5344195 41.9500151,36.46 C41.6448678,38.3850696 40.1350847,39.8948527 38.2100151,40.2 L38.2100151,40.2 Z" id="形状" fill="#FFFFFF"></path>
                            <path d="M46.8900151,24.98 L36.3000151,21.88 L26.5600151,27.15 L23.3800151,37.88 L28.6100151,47.68 L39.1900151,50.83 L48.9300151,45.5 L52.1200151,34.8 L46.8900151,24.98 Z M39.2100151,41.2 C37.2844346,41.5052283 35.3813216,40.5357681 34.4961035,38.7986977 C33.6108854,37.0616274 33.9449342,34.9521005 35.3235249,33.5735098 C36.7021156,32.1949191 38.8116424,31.8608704 40.5487128,32.7460884 C42.2857832,33.6313065 43.2552434,35.5344195 42.9500151,37.46 C42.6448678,39.3850696 41.1350847,40.8948527 39.2100151,41.2 Z" id="形状" fill="url(#linearGradient-5)"></path>
                            <rect id="矩形" fill="#FFFFFF" transform="translate(10.205932, 25.851210) rotate(-45.000000) translate(-10.205932, -25.851210) " x="8.46593168" y="21.8012096" width="3.48" height="8.1" rx="1.74"></rect>
                            <rect id="矩形" fill="#FFFFFF" transform="translate(14.953474, 24.378762) rotate(45.000000) translate(-14.953474, -24.378762) " x="13.2134741" y="18.2537624" width="3.48" height="12.25" rx="1.74"></rect>
                        </g>
                    </g>
                </g>
            </g>
        </g>
    </g>
</svg>