<?xml version="1.0" encoding="UTF-8"?>
<svg width="24px" height="24px" viewBox="0 0 24 24" version="1.1" xmlns="http://www.w3.org/2000/svg" xmlns:xlink="http://www.w3.org/1999/xlink">
    <title>报表模板管理</title>
    <g id="页面-1" stroke="none" stroke-width="1" fill="none" fill-rule="evenodd">
        <g id="图标" transform="translate(-119.000000, -115.000000)" fill-rule="nonzero">
            <g id="报表模板管理" transform="translate(119.000000, 115.000000)">
                <rect id="矩形" fill="#000000" opacity="0" x="0" y="0" width="24" height="24"></rect>
                <g id="编组" transform="translate(3.000000, 2.000000)" fill="currentColor">
                    <path d="M15.39,18.52 C14.24,18.52 13.3,17.58 13.3,16.43 C13.3,15.28 14.24,14.34 15.39,14.34 C16.54,14.34 17.48,15.28 17.48,16.43 C17.48,17.58 16.54,18.52 15.39,18.52 Z M15.39,15.34 C14.79,15.34 14.3,15.83 14.3,16.43 C14.3,17.03 14.79,17.52 15.39,17.52 C15.99,17.52 16.48,17.03 16.48,16.43 C16.48,15.83 15.99,15.34 15.39,15.34 Z" id="形状"></path>
                    <path d="M15.36,15.1 C15.08,15.1 14.86,14.88 14.86,14.6 L14.86,14.03 C14.86,13.75 15.08,13.53 15.36,13.53 C15.64,13.53 15.86,13.75 15.86,14.03 L15.86,14.6 C15.86,14.88 15.64,15.1 15.36,15.1 Z M14.07,15.65 C13.94,15.65 13.81,15.6 13.71,15.5 L13.31,15.09 C13.12,14.89 13.12,14.58 13.32,14.38 C13.52,14.19 13.83,14.19 14.03,14.39 L14.43,14.8 C14.62,15 14.62,15.31 14.42,15.51 C14.32,15.6 14.2,15.65 14.07,15.65 Z M13.54,16.96 L12.98,16.96 C12.7,16.96 12.48,16.74 12.48,16.46 C12.48,16.18 12.7,15.96 12.98,15.96 L13.54,15.96 C13.82,15.96 14.04,16.18 14.04,16.46 C14.04,16.74 13.82,16.96 13.54,16.96 Z M13.68,18.66 C13.55,18.66 13.42,18.61 13.32,18.51 C13.13,18.31 13.13,18 13.33,17.8 L13.74,17.4 C13.94,17.21 14.25,17.21 14.45,17.41 C14.64,17.61 14.64,17.92 14.44,18.12 L14.03,18.52 C13.93,18.61 13.81,18.66 13.68,18.66 Z M15.42,19.36 C15.14,19.36 14.92,19.14 14.92,18.86 L14.92,18.29 C14.92,18.01 15.14,17.79 15.42,17.79 C15.7,17.79 15.92,18.01 15.92,18.29 L15.92,18.86 C15.92,19.14 15.7,19.36 15.42,19.36 Z M17.11,18.64 C16.98,18.64 16.85,18.59 16.76,18.49 L16.35,18.08 C16.15,17.88 16.15,17.57 16.35,17.37 C16.55,17.17 16.86,17.17 17.06,17.37 L17.47,17.78 C17.67,17.98 17.67,18.29 17.47,18.49 C17.37,18.59 17.24,18.64 17.11,18.64 Z M17.8,16.92 L17.24,16.92 C16.96,16.92 16.74,16.7 16.74,16.42 C16.74,16.14 16.96,15.92 17.24,15.92 L17.8,15.92 C18.08,15.92 18.3,16.14 18.3,16.42 C18.3,16.7 18.08,16.92 17.8,16.92 Z M16.69,15.64 C16.56,15.64 16.44,15.59 16.34,15.5 C16.14,15.31 16.14,14.99 16.33,14.79 L16.74,14.37 C16.93,14.17 17.25,14.17 17.45,14.36 C17.65,14.55 17.65,14.87 17.46,15.07 L17.05,15.49 C16.95,15.59 16.82,15.64 16.69,15.64 Z" id="形状"></path>
                    <path d="M11.72,19.8 L3.16,19.8 C2.88,19.8 2.66,19.58 2.66,19.3 L2.66,3.32 C2.66,3.04 2.88,2.82 3.16,2.82 L15.12,2.82 C15.4,2.82 15.62,3.04 15.62,3.32 L15.62,11.82 C15.62,12.1 15.4,12.32 15.12,12.32 C14.84,12.32 14.62,12.1 14.62,11.82 L14.62,3.82 L3.66,3.82 L3.66,18.8 L11.72,18.8 C12,18.8 12.22,19.02 12.22,19.3 C12.22,19.58 12,19.8 11.72,19.8 Z" id="路径"></path>
                    <path d="M3.16,17.11 L0.5,17.11 C0.22,17.11 0,16.89 0,16.61 L0,0.5 C0,0.22 0.22,0 0.5,0 L11.71,0 C11.99,0 12.21,0.22 12.21,0.5 L12.21,3.33 C12.21,3.61 11.99,3.83 11.71,3.83 C11.43,3.83 11.21,3.61 11.21,3.33 L11.21,1 L1,1 L1,16.11 L3.16,16.11 C3.44,16.11 3.66,16.33 3.66,16.61 C3.66,16.89 3.44,17.11 3.16,17.11 Z" id="路径"></path>
                    <path d="M12.5,7.78 L5.78,7.78 C5.5,7.78 5.28,7.56 5.28,7.28 C5.28,7 5.5,6.78 5.78,6.78 L12.5,6.78 C12.78,6.78 13,7 13,7.28 C13,7.56 12.78,7.78 12.5,7.78 L12.5,7.78 Z M12.5,11.74 L5.78,11.74 C5.5,11.74 5.28,11.52 5.28,11.24 C5.28,10.96 5.5,10.74 5.78,10.74 L12.5,10.74 C12.78,10.74 13,10.96 13,11.24 C13,11.52 12.78,11.74 12.5,11.74 L12.5,11.74 Z M9.81,15.71 L5.78,15.71 C5.5,15.71 5.28,15.49 5.28,15.21 C5.28,14.93 5.5,14.71 5.78,14.71 L9.81,14.71 C10.09,14.71 10.31,14.93 10.31,15.21 C10.31,15.49 10.09,15.71 9.81,15.71 Z" id="形状"></path>
                </g>
            </g>
        </g>
    </g>
</svg>