<?xml version="1.0" encoding="UTF-8"?>
<svg width="24px" height="24px" viewBox="0 0 24 24" version="1.1" xmlns="http://www.w3.org/2000/svg" xmlns:xlink="http://www.w3.org/1999/xlink">
    <title>icon_攻击列表备份 2</title>
    <g id="页面-1" stroke="none" stroke-width="1" fill="none" fill-rule="evenodd">
        <g id="图标" transform="translate(-55.000000, -45.000000)" fill-rule="nonzero">
            <g id="icon_攻击列表" transform="translate(55.000000, 45.000000)">
                <rect id="矩形" fill="#000000" opacity="0" x="0" y="0" width="24" height="24"></rect>
                <path d="M5.75554687,18.6124219 L1.91179687,18.6124219 L1.91179687,5.87109375 L13.3633594,5.87109375 C13.4348502,5.8735689 13.5019957,5.83684124 13.5384748,5.775308 C13.5749538,5.71377475 13.5749538,5.63724088 13.5384748,5.57570763 C13.5019957,5.51417438 13.4348502,5.47744672 13.3633594,5.47992187 L1.91132812,5.47992187 L1.91132812,2.35640625 L15.1694531,2.35640625 L15.1694531,7.72617187 C15.1746512,7.93854489 15.3483056,8.10800096 15.5607422,8.10800096 C15.7731788,8.10800096 15.9468332,7.93854489 15.9520312,7.72617187 L15.9520312,1.965 C15.9520312,1.74892379 15.7769355,1.57359375 15.5608594,1.57359375 L1.51992187,1.57359375 C1.30375417,1.57359375 1.12851562,1.7488323 1.12851562,1.965 L1.12851562,19.0040625 C1.12851562,19.2201387 1.30384567,19.3952344 1.51992187,19.3952344 L5.75554687,19.3952344 C5.96791989,19.3900363 6.13737596,19.2163819 6.13737596,19.0039453 C6.13737596,18.7915087 5.96791989,18.6178543 5.75554687,18.6126562 L5.75554687,18.6124219 Z M2.87835933,3.92648437 C2.87826457,4.1697518 3.02473238,4.38911827 3.24945497,4.48227838 C3.47417756,4.57543849 3.73289155,4.52404259 3.90494113,4.35206006 C4.07699071,4.18007753 4.12848745,3.9213836 4.03541494,3.69662471 C3.94234243,3.47186582 3.72303307,3.3253125 3.47976562,3.3253125 C3.1478701,3.32569968 2.87887592,3.59458903 2.87835933,3.92648437 L2.87835933,3.92648437 Z M3.68976562,3.92648437 C3.68976562,4.04298194 3.59532569,4.13742187 3.47882812,4.13742187 C3.36233056,4.13742187 3.26789062,4.04298194 3.26789062,3.92648437 C3.26789062,3.80998681 3.36233056,3.71554687 3.47882812,3.71554687 C3.59532569,3.71554687 3.68976562,3.80998681 3.68976562,3.92648437 L3.68976562,3.92648437 Z M4.74843745,3.92648437 C4.7483427,4.1697518 4.8948105,4.38911827 5.11953309,4.48227838 C5.34425569,4.57543849 5.60296967,4.52404259 5.77501925,4.35206006 C5.94706884,4.18007753 5.99856557,3.9213836 5.90549306,3.69662471 C5.81242055,3.47186582 5.5931112,3.3253125 5.34984375,3.3253125 C5.01794823,3.32569968 4.74895404,3.59458903 4.74843745,3.92648437 Z M5.55984375,3.92648437 C5.55984375,4.04298194 5.46540381,4.13742187 5.34890625,4.13742187 C5.23240869,4.13742187 5.13796875,4.04298194 5.13796875,3.92648437 C5.13796875,3.80998681 5.23240869,3.71554687 5.34890625,3.71554687 C5.46540381,3.71554687 5.55984375,3.80998681 5.55984375,3.92648437 Z M22.4800781,16.828125 L20.1492188,16.828125 C20.0935295,16.0779747 19.8746803,15.3490375 19.5079688,14.6922656 L21.3417188,13.485 C21.4608198,13.4090898 21.5297879,13.2749024 21.5221875,13.1338717 C21.5145871,12.992841 21.4315973,12.8668429 21.3050279,12.8041722 C21.1784586,12.7415015 21.0279423,12.7518795 20.9111719,12.8313281 L19.0767188,14.0390625 C18.6795888,13.5258371 18.1906916,13.0907409 17.6348438,12.7558594 L17.6348438,12.3072656 C17.621102,10.838748 16.4267459,9.65551592 14.9581641,9.65551592 C13.4895822,9.65551592 12.2952261,10.838748 12.2814844,12.3072656 L12.2814844,12.7565625 C11.7255909,13.0911813 11.2366115,13.5260415 10.839375,14.0390625 L9.00515625,12.8313281 C8.88838584,12.7518795 8.73786956,12.7415015 8.61130018,12.8041722 C8.4847308,12.8668429 8.40174098,12.992841 8.39414063,13.1338717 C8.38654027,13.2749024 8.45550832,13.4090898 8.57460938,13.485 L10.4078906,14.6922656 C10.0413884,15.3491262 9.82255349,16.0780161 9.76664063,16.828125 L7.43601563,16.828125 C7.29393839,16.8246475 7.16113979,16.8984569 7.08907832,17.0209525 C7.01701684,17.1434481 7.01701684,17.29538 7.08907832,17.4178756 C7.16113979,17.5403712 7.29393839,17.6141806 7.43601563,17.6107031 L9.76664063,17.6107031 C9.82254985,18.3607387 10.0413861,19.089553 10.4078906,19.7463281 L8.57460938,20.9535937 C8.39352038,21.072486 8.34309995,21.3156688 8.46199219,21.4967578 C8.58088442,21.6778468 8.82406726,21.7282672 9.00515625,21.609375 L10.839375,20.4016406 C11.8237794,21.6791455 13.3452633,22.427533 14.9580469,22.427533 C16.5708304,22.427533 18.0923143,21.6791455 19.0767188,20.4016406 L20.9111719,21.609375 C21.0915314,21.7243289 21.3307686,21.6732222 21.4484149,21.4946073 C21.5660613,21.3159923 21.5185489,21.0760154 21.3417188,20.9557031 L19.5079688,19.7484375 C19.8746827,19.091751 20.0935332,18.3628894 20.1492188,17.6128125 L22.4800781,17.6128125 C22.6221554,17.61629 22.754954,17.5424806 22.8270154,17.419985 C22.8990769,17.2974894 22.8990769,17.1455575 22.8270154,17.0230619 C22.754954,16.9005663 22.6221554,16.8267569 22.4800781,16.8302344 L22.4800781,16.828125 Z M13.0640625,12.3072656 C13.0756077,11.2694008 13.920235,10.4341168 14.9581641,10.4341168 C15.9960931,10.4341168 16.8407204,11.2694008 16.8522656,12.3072656 L16.8522656,12.3710156 C15.6343471,11.8952404 14.281981,11.8952404 13.0640625,12.3710156 L13.0640625,12.3072656 Z M10.5346875,17.2202344 C10.5346875,14.9130469 12.3103125,13.0129688 14.5659375,12.8139844 L14.5659375,21.6264844 C12.3103125,21.4272656 10.5346875,19.5274219 10.5346875,17.2202344 Z M15.3492187,21.6264844 L15.3492187,12.8139844 C17.6055469,13.0127344 19.3804687,14.9128125 19.3804687,17.2202344 C19.3804687,19.5276563 17.6055469,21.4272656 15.3492187,21.62625 L15.3492187,21.6264844 Z M3.65320312,7.58414062 C3.54511927,7.58414062 3.4575,7.6717599 3.4575,7.77984375 C3.4575,7.8879276 3.54511927,7.97554687 3.65320312,7.97554687 L8.3203125,7.97554687 C8.42839635,7.97554687 8.51601562,7.8879276 8.51601562,7.77984375 C8.51601562,7.6717599 8.42839635,7.58414062 8.3203125,7.58414062 L3.65320312,7.58414062 Z M7.17703125,9.25921875 C7.17690192,9.15122644 7.08932051,9.06374992 6.98132812,9.06375 L3.65320312,9.06375 C3.5817123,9.06127485 3.51456684,9.09800251 3.47808775,9.15953575 C3.44160865,9.221069 3.44160865,9.29760287 3.47808775,9.35913612 C3.51456684,9.42066937 3.5817123,9.45739703 3.65320312,9.45492187 L6.98132812,9.45492187 C7.08941198,9.45492187 7.17703125,9.3673026 7.17703125,9.25921875 L7.17703125,9.25921875 Z M6.08414062,10.7385938 C6.08414062,10.6866901 6.06352196,10.6369122 6.02682051,10.6002107 C5.99011905,10.5635093 5.9403412,10.5428906 5.8884375,10.5428906 L3.65320312,10.5428906 C3.5817123,10.5404155 3.51456684,10.5771431 3.47808775,10.6386764 C3.44160865,10.7002096 3.44160865,10.7767435 3.47808775,10.8382767 C3.51456684,10.89981 3.5817123,10.9365377 3.65320312,10.9340625 L5.8884375,10.9340625 C5.94031963,10.9341247 5.99009811,10.9135582 6.02680631,10.876894 C6.06351452,10.8402297 6.08414062,10.7904759 6.08414062,10.7385938 L6.08414062,10.7385938 Z M5.341875,12.0234375 L3.654375,12.0234375 C3.54629115,12.0234375 3.45867187,12.1110568 3.45867187,12.2191406 C3.45867187,12.3272245 3.54629115,12.4148438 3.654375,12.4148438 L5.341875,12.4148438 C5.44995885,12.4148438 5.53757812,12.3272245 5.53757812,12.2191406 C5.53757812,12.1110568 5.44995885,12.0234375 5.341875,12.0234375 Z M5.341875,13.5014062 L3.654375,13.5014062 C3.54629115,13.5014062 3.45867187,13.5890255 3.45867187,13.6971094 C3.45867187,13.8051932 3.54629115,13.8928125 3.654375,13.8928125 L5.341875,13.8928125 C5.44995885,13.8928125 5.53757812,13.8051932 5.53757812,13.6971094 C5.53757812,13.5890255 5.44995885,13.5014062 5.341875,13.5014062 L5.341875,13.5014062 Z M5.341875,14.9810156 L3.654375,14.9810156 C3.58288417,14.9785405 3.51573872,15.0152681 3.47925962,15.0768014 C3.44278053,15.1383346 3.44278053,15.2148685 3.47925962,15.2764017 C3.51573872,15.337935 3.58288417,15.3746627 3.654375,15.3721875 L5.341875,15.3721875 C5.41336583,15.3746627 5.48051128,15.337935 5.51699038,15.2764017 C5.55346947,15.2148685 5.55346947,15.1383346 5.51699038,15.0768014 C5.48051128,15.0152681 5.41336583,14.9785405 5.341875,14.9810156 Z M5.341875,16.4601562 L3.654375,16.4601562 C3.58288417,16.4576811 3.51573872,16.4944088 3.47925962,16.555942 C3.44278053,16.6174753 3.44278053,16.6940091 3.47925962,16.7555424 C3.51573872,16.8170756 3.58288417,16.8538033 3.654375,16.8513281 L5.341875,16.8513281 C5.41336583,16.8538033 5.48051128,16.8170756 5.51699038,16.7555424 C5.55346947,16.6940091 5.55346947,16.6174753 5.51699038,16.555942 C5.48051128,16.4944088 5.41336583,16.4576811 5.341875,16.4601562 Z" id="形状" fill="currentColor"></path>
            </g>
        </g>
    </g>
</svg>