<?xml version="1.0" encoding="UTF-8"?>
<svg width="24px" height="24px" viewBox="0 0 24 24" version="1.1" xmlns="http://www.w3.org/2000/svg" xmlns:xlink="http://www.w3.org/1999/xlink">
    <title>黑盒模型灰色</title>
    <g id="页面-1" stroke="none" stroke-width="1" fill="none" fill-rule="evenodd">
        <g id="黑盒模型灰色" fill="#000000" fill-rule="nonzero">
            <g id="形状" transform="translate(3.000000, 3.000000)">
                <path fill="currentColor"  d="M0,18 L0,3.74786081 L2.44381061,0 L15.5664575,0 L18,3.74786081 L18,18 L0,18 Z M2.47461495,16.8807758 L15.5356532,16.8807758 L14.416429,14.1597262 L3.57330291,14.1597262 L2.47461495,16.8807758 Z M15.3104358,13.2533942 L17.0085241,16.8533942 L17.1034483,16.8327045 L17.1034483,4.85339419 L1.10344829,4.85339419 L1.10344829,16.7706356 L1.19837248,16.7913252 L2.76989522,13.1602907 L2.76989522,12.4982218 L3.24451619,12.4982218 L3.24451619,13.3051183 L14.8252677,13.3051183 L14.8252677,12.4982218 L15.3104358,12.4982218 L15.3104358,13.2533942 L15.3104358,13.2533942 Z M1.19110097,3.78893326 L16.808899,3.78893326 L14.7758129,0.924130063 L3.20365088,0.924130063 L1.19110097,3.78893326 L1.19110097,3.78893326 Z"></path>
                <path  fill="currentColor" d="M2.6081004,5.3907587 L3.36794067,5.3907587 L3.36794067,9.20022818 L2.6081004,9.20022818 L2.6081004,5.3907587 Z M14.508842,5.3907587 L15.2686823,5.3907587 L15.2686823,9.20022818 L14.508842,9.20022818 L14.508842,5.3907587 Z M4.79520821,11.849401 C5.61665716,11.8391329 6.28408443,11.1717056 6.29435254,10.3502567 C6.31488876,10.1551626 6.28408443,9.94980034 6.19167142,9.77524244 L8.25556189,8.05019966 C8.46092413,8.35824301 8.81003993,8.5225328 9.17969196,8.51226469 C9.3953223,8.51226469 9.60068454,8.43011979 9.75470622,8.28636623 L10.9047347,10.011409 C10.8123217,10.2270394 10.7712493,10.4632059 10.7917855,10.6993725 L10.7917855,10.7096406 C10.7917855,11.7877924 11.664575,12.6503137 12.7324586,12.6503137 L12.7427268,12.6400456 C13.7695379,12.6400456 14.6833999,11.8391329 14.6833999,10.8020536 C14.6833999,9.72390188 13.8106104,8.86138049 12.7427268,8.86138049 C12.2909298,8.86138049 11.8596691,9.07701084 11.5926982,9.43639475 L10.4426697,7.71135197 C10.5350827,7.53679407 10.5761552,7.33143183 10.5556189,7.13633771 L10.5556189,7.03365659 C10.5248146,6.30462065 9.9087279,5.72960639 9.17969196,5.76041072 C8.41985168,5.77067884 7.81403309,6.38676554 7.80376497,7.13633771 L7.80376497,7.24928694 L5.72960639,9.08727895 C5.44209926,8.94352539 5.12378779,8.86138049 4.80547633,8.86138049 L4.79520821,8.86138049 C3.94295493,8.83057616 3.22418711,9.49800342 3.19338277,10.3605248 C3.19338277,11.1614375 3.99429549,11.849401 4.79520821,11.849401 Z M11.5926982,10.8123217 L11.5926982,10.6685682 C11.6337707,10.0730177 12.1471763,9.62122076 12.7427268,9.66229321 L12.8864803,9.66229321 C13.4820308,9.70336566 13.9338277,10.2167712 13.8927553,10.8123217 L13.8927553,10.9560753 C13.8516828,11.5516258 13.3382772,12.0034227 12.7427268,11.9623503 L12.5989732,11.9623503 C12.0034227,11.9212778 11.5516258,11.3976041 11.5926982,10.8123217 Z M9.16942384,6.55105533 C9.4774672,6.57159156 9.72390188,6.81802624 9.74443811,7.12606959 C9.74443811,7.44438106 9.48773531,7.70108386 9.16942384,7.70108386 C8.85111238,7.70108386 8.59440958,7.44438106 8.59440958,7.12606959 C8.59440958,6.80775813 8.85111238,6.55105533 9.16942384,6.55105533 Z M4.79520821,9.66229321 C5.17512835,9.69309755 5.46263548,9.98060468 5.49343982,10.3502567 C5.49343982,10.8123217 5.26754136,11.1511694 4.80547633,11.1511694 L4.76440388,11.1511694 C4.33314318,11.1409013 3.98402738,10.7815174 3.99429549,10.3502567 C4.03536794,9.94980034 4.39475185,9.64175699 4.79520821,9.66229321 L4.79520821,9.66229321 Z M14.508842,1.87906446 L15.2686823,1.87906446 L15.2686823,3.35767256 L14.508842,3.35767256 L14.508842,1.87906446 Z M2.6081004,1.87906446 L3.36794067,1.87906446 L3.36794067,3.35767256 L2.6081004,3.35767256 L2.6081004,1.87906446 Z"></path>
            </g>
        </g>
    </g>
</svg>