<?xml version="1.0" encoding="UTF-8"?>
<svg width="24px" height="24px" viewBox="0 0 24 24" version="1.1" xmlns="http://www.w3.org/2000/svg" xmlns:xlink="http://www.w3.org/1999/xlink">
    <title>导航按钮图标备份</title>
    <g id="页面-1" stroke="none" stroke-width="1" fill="none" fill-rule="evenodd">
        <g id="图标" transform="translate(-183.000000, -45.000000)" fill-rule="nonzero">
            <g id="icon_source_analysis" transform="translate(183.000000, 45.000000)">
                <rect id="矩形" fill="#000000" opacity="0" x="0" y="0" width="23.999922" height="23.999922"></rect>
                <path d="M16.7001798,13.922832 L14.5842105,11.8068627 L15.2891104,11.1015331 L16.7001798,12.5126025 L16.7001798,2.00017742 C17.6607429,1.99976726 16.7001798,2.00017742 17.6790632,2.00017742 L17.6790632,12.5126025 L19.0901326,11.1015331 L19.7950325,11.8068627 L17.1894164,14.4124788 L16.7001798,13.922832 Z M11.3161552,17.3486992 L9.20018588,15.2327299 L9.90508581,14.52783 L11.3161552,15.9388994 L11.3161552,2.48943356 C12.2767183,2.4890234 11.3161552,2.48943356 12.2950386,2.48943356 L12.2950386,15.9384892 L13.706108,14.5274198 L14.4114376,15.2323197 L11.8058215,17.8379358 L11.3161747,17.3486992 L11.3161552,17.3486992 Z M3.49719753,21.0027297 L20.6594046,21.0027297 L20.6594046,9.7812446 L21.5866475,9.7812446 L21.5866475,21.9999334 L2.49999391,21.9999334 L2.49999391,10.2733914 L3.49719753,10.2733914 L3.49719753,21.0027297 L3.49719753,21.0027297 Z M6.42175786,14.4120491 L4.30578852,12.2960798 L5.01068846,11.5911798 L6.42175786,13.0022492 L6.42175786,3.95794417 C7.38232099,3.95753401 6.42175786,3.95794417 7.40064124,3.95794417 L7.40064124,13.0018391 L8.81171064,11.5907697 L9.51704026,12.2956696 L6.91142416,14.9012857 L6.42177739,14.4120491 L6.42175786,14.4120491 Z" id="形状" fill="currentColor"></path>
            </g>
        </g>
    </g>
</svg>