<?xml version="1.0" encoding="UTF-8"?>
<svg width="24px" height="24px" viewBox="0 0 24 24" version="1.1" xmlns="http://www.w3.org/2000/svg" xmlns:xlink="http://www.w3.org/1999/xlink">
    <title>导航按钮图标</title>
    <defs>
        <filter x="-8.6%" y="-27.3%" width="117.3%" height="154.5%" filterUnits="objectBoundingBox" id="filter-1">
            <feOffset dx="0" dy="1" in="SourceAlpha" result="shadowOffsetOuter1"></feOffset>
            <feGaussianBlur stdDeviation="2.5" in="shadowOffsetOuter1" result="shadowBlurOuter1"></feGaussianBlur>
            <feColorMatrix values="0 0 0 0 0   0 0 0 0 0   0 0 0 0 0  0 0 0 0.100824956 0" type="matrix" in="shadowBlurOuter1" result="shadowMatrixOuter1"></feColorMatrix>
            <feMerge>
                <feMergeNode in="shadowMatrixOuter1"></feMergeNode>
                <feMergeNode in="SourceGraphic"></feMergeNode>
            </feMerge>
        </filter>
    </defs>
    <g id="页面-1" stroke="none" stroke-width="1" fill="none" fill-rule="evenodd">
        <g id="黑盒测试" transform="translate(-265.000000, -110.000000)" fill="#000000" fill-rule="nonzero">
            <g id="导航按钮备份-12" filter="url(#filter-1)" transform="translate(253.000000, 100.000000)">
                <g id="导航按钮图标" transform="translate(12.000000, 10.000000)">
                    <g id="扫描监测类" transform="translate(2.999995, 2.999995)">
                        <path fill="currentColor" d="M8.99998537,17.9978937 C6.59472734,17.9978937 4.33694195,17.0611308 2.63581386,15.3620798 C0.934685765,13.6630288 0,11.4031663 0,8.9979083 L1.01984602,8.9979083 C1.01984602,13.3992397 4.59865396,16.9801247 9.00206245,16.9801247 C13.4054709,16.9801247 16.9842789,13.4013168 16.9842789,8.9979083 C16.9842789,4.5944998 13.4013168,1.01569186 8.99998537,1.01569186 C7.05999314,1.01569186 5.18854453,1.72189889 3.73251182,3.00345692 L3.05953807,2.23909168 C4.70043086,0.79552144 6.81282069,0 8.99998537,0 C11.4052434,0 13.6630288,0.936762844 15.3641569,2.63581386 C17.0632079,4.33486487 17.9999707,6.59680442 17.9999707,8.99998537 C17.9999707,11.4031663 17.0632079,13.6630288 15.3641569,15.3641569 C13.6630288,17.0611308 11.4031663,17.9978937 8.99998537,17.9978937 Z" id="路径"></path>
                        <path fill="currentColor" d="M8.99998537,15.1689114 C7.34870719,15.1689114 5.80128298,14.5270939 4.63604139,13.3618523 C3.47079981,12.1966107 2.82898225,10.6491865 2.82898225,8.9979083 L3.84882827,8.9979083 C3.84882827,11.8372759 6.16269481,14.1511425 9.00206245,14.1511425 C11.8414301,14.1511425 14.1552966,11.8372759 14.1552966,8.9979083 C14.1552966,6.15854065 11.839353,3.84675119 8.99998537,3.84675119 C7.74750645,3.84675119 6.54072327,4.3016316 5.59772919,5.13038631 L4.92475544,4.3618669 C6.0526096,3.37109999 7.49825691,2.82690517 8.99998537,2.82690517 C10.6471094,2.82690517 12.1986878,3.46872273 13.3639294,4.63396431 C14.5291709,5.7992059 15.1709885,7.34663011 15.1709885,8.9979083 C15.1709885,10.6491865 14.5291709,12.1966107 13.3639294,13.3618523 C12.1986878,14.5270939 10.6471094,15.1689114 8.99998537,15.1689114 Z" id="路径"></path>
                        <path fill="currentColor" d="M8.99998537,12.4957101 C7.07037854,12.4957101 5.50218354,10.9275151 5.50218354,8.9979083 L6.52202956,8.9979083 C6.52202956,10.3667037 7.63326708,11.4779412 9.00206245,11.4779412 C10.3708578,11.4779412 11.4820954,10.3667037 11.4820954,8.9979083 C11.4820954,7.62911292 10.3708578,6.5178754 9.00206245,6.5178754 C8.40178649,6.5178754 7.82020423,6.73804582 7.36532383,7.13684508 L6.69235008,6.36832568 C7.33001348,5.80751422 8.15253695,5.49802938 9.00206245,5.49802938 C10.9316693,5.49802938 12.4998643,7.06622438 12.4998643,8.99583122 C12.4998643,10.9254381 10.9295922,12.4957101 8.99998537,12.4957101 L8.99998537,12.4957101 Z" id="路径"></path>
                        <polygon fill="currentColor" id="路径" points="2.3678706 2.89960295 3.09900258 2.18924177 9.36347428 8.64065063 8.63234231 9.35101181"></polygon>
                    </g>
                </g>
            </g>
        </g>
    </g>
</svg>
