<?xml version="1.0" encoding="UTF-8"?>
<svg width="24px" height="24px" viewBox="0 0 24 24" version="1.1" xmlns="http://www.w3.org/2000/svg" xmlns:xlink="http://www.w3.org/1999/xlink">
    <title>网络扫描备份 2</title>
    <g id="页面-1" stroke="none" stroke-width="1" fill="none" fill-rule="evenodd">
        <g id="图标" transform="translate(-119.000000, -45.000000)" fill-rule="nonzero">
            <g id="icon_网络扫描" transform="translate(119.000000, 45.000000)">
                <rect id="矩形" fill="#000000" opacity="0" x="0" y="0" width="24" height="24"></rect>
                <path d="M11.5828125,3.10078125 C11.7164062,3.09375 11.85,3.09140625 11.9835937,3.09140625 C16.9078125,3.09140625 20.9132812,7.096875 20.9132812,12.0210937 C20.9132812,14.784375 19.65,17.259375 17.671875,18.8976562 L17.925,19.55625 C20.1539062,17.7960937 21.5882812,15.0726562 21.5882812,12.01875 C21.5882812,6.72421875 17.2804687,2.4140625 11.9835937,2.4140625 C11.7632812,2.4140625 11.5453125,2.4234375 11.3273437,2.43984375 L11.5828125,3.10078125 L11.5828125,3.10078125 Z M11.840625,20.9460937 C6.984375,20.86875 3.05625,16.8960937 3.05625,12.0210937 C3.05625,9.45234375 4.1484375,7.13671875 5.88984375,5.50546875 L5.6296875,4.83046875 C3.63984375,6.590625 2.38125,9.16171875 2.38125,12.0210937 C2.38125,17.315625 6.6890625,21.6257812 11.9859375,21.6257812 C12.0257812,21.6257812 12.0632812,21.6234375 12.1007812,21.6234375 L11.840625,20.9460937 L11.840625,20.9460937 Z" id="形状" fill="currentColor"></path>
                <path d="M11.109375,21.2953125 C11.109375,21.7781302 11.5007761,22.1695312 11.9835937,22.1695312 C12.4664114,22.1695312 12.8578125,21.7781302 12.8578125,21.2953125 C12.8578125,20.8124948 12.4664114,20.4210937 11.9835937,20.4210937 C11.5007761,20.4210937 11.109375,20.8124948 11.109375,21.2953125 L11.109375,21.2953125 Z" id="路径" fill="#777777"></path>
                <path d="M11.9835937,22.5046875 C11.315625,22.5046875 10.771875,21.9609375 10.771875,21.2929688 C10.771875,20.625 11.315625,20.08125 11.9835937,20.08125 C12.6515625,20.08125 13.1953125,20.625 13.1953125,21.2929688 C13.1953125,21.9609375 12.6515625,22.5046875 11.9835937,22.5046875 Z M11.9835937,20.7585938 C11.6882812,20.7585938 11.446875,21 11.446875,21.2953125 C11.446875,21.590625 11.6882812,21.8320312 11.9835937,21.8320312 C12.2789062,21.8320312 12.5203125,21.590625 12.5203125,21.2953125 C12.5203125,21 12.2789062,20.7585938 11.9835937,20.7585938 L11.9835937,20.7585938 Z" id="形状" fill="currentColor"></path>
                <path d="M14.484375,8.61328125 C14.484375,9.09609893 14.8757761,9.4875 15.3585938,9.4875 C15.8414114,9.4875 16.2328125,9.09609893 16.2328125,8.61328125 C16.2328125,8.13046357 15.8414114,7.7390625 15.3585938,7.7390625 C14.8757761,7.7390625 14.484375,8.13046357 14.484375,8.61328125 Z" id="路径" fill="#777777"></path>
                <path d="M15.3585938,9.825 C14.690625,9.825 14.146875,9.28125 14.146875,8.61328125 C14.146875,7.9453125 14.690625,7.4015625 15.3585938,7.4015625 C16.0265625,7.4015625 16.5703125,7.9453125 16.5703125,8.61328125 C16.5703125,9.28125 16.0265625,9.825 15.3585938,9.825 Z M15.3585938,8.0765625 C15.0632813,8.0765625 14.821875,8.31796875 14.821875,8.61328125 C14.821875,8.90859375 15.0632813,9.15 15.3585938,9.15 C15.6539063,9.15 15.8953125,8.90859375 15.8953125,8.61328125 C15.8953125,8.31796875 15.6539063,8.0765625 15.3585938,8.0765625 Z" id="形状" fill="currentColor"></path>
                <path d="M11.109375,2.728125 C11.109375,3.21094268 11.5007761,3.60234375 11.9835937,3.60234375 C12.4664114,3.60234375 12.8578125,3.21094268 12.8578125,2.728125 C12.8578125,2.24530732 12.4664114,1.85390625 11.9835937,1.85390625 C11.5007761,1.85390625 11.109375,2.24530732 11.109375,2.728125 L11.109375,2.728125 Z" id="路径" fill="#777777"></path>
                <path d="M11.9835937,3.93984375 C11.315625,3.93984375 10.771875,3.39609375 10.771875,2.728125 C10.771875,2.06015625 11.315625,1.51640625 11.9835937,1.51640625 C12.6515625,1.51640625 13.1953125,2.06015625 13.1953125,2.728125 C13.1953125,3.39609375 12.6515625,3.93984375 11.9835937,3.93984375 Z M11.9835937,2.19375 C11.6882812,2.19375 11.446875,2.43515625 11.446875,2.73046875 C11.446875,3.02578125 11.6882812,3.2671875 11.9835937,3.2671875 C12.2789062,3.2671875 12.5203125,3.02578125 12.5203125,2.73046875 C12.5203125,2.43515625 12.2789062,2.19375 11.9835937,2.19375 L11.9835937,2.19375 Z" id="形状" fill="currentColor"></path>
                <path d="M12.3070312,17.3835937 C15.1734375,16.9289063 16.81875,15.271875 17.2640625,12.4195312 L19.4085937,12.4195312 C19.4132812,12.3 19.4179688,12.178125 19.4179688,12.0585938 C19.4179688,11.94375 19.4132812,11.8289063 19.4085937,11.7140625 L17.296875,11.7140625 C17.1585937,11.146875 17.0296875,10.6054688 16.8914062,10.0359375 C16.4765625,10.29375 16.125,10.5117188 15.7382812,10.753125 C15.7875,11.034375 15.84375,11.3578125 15.909375,11.7398438 C15.0515625,11.7398438 14.2429687,11.7515625 13.434375,11.728125 C13.3242187,11.7257813 13.1765625,11.5710938 13.1273437,11.4515625 C13.0898437,11.3578125 13.1390625,11.1796875 13.2140625,11.0976563 C13.4507812,10.8375 13.715625,10.603125 13.9828125,10.3453125 C13.8257812,10.1671875 13.7015625,10.0265625 13.4671875,9.76171875 C13.2164062,10.0617188 12.9914062,10.3546875 12.740625,10.6242188 C12.65625,10.715625 12.5109375,10.7460938 12.3914062,10.8046875 C12.346875,10.6875 12.2625,10.5703125 12.2625,10.4507813 C12.2507812,9.69140625 12.2554687,8.934375 12.2554687,8.10703125 C12.6164062,8.165625 12.9351562,8.21484375 13.2375,8.2640625 C13.4671875,7.90078125 13.6898437,7.54921875 13.9546875,7.1296875 C13.40625,6.98671875 12.8671875,6.84375 12.3046875,6.69609375 L12.3046875,4.58203125 C12.1828125,4.57734375 12.0609375,4.57265625 11.9390625,4.57265625 C11.83125,4.57265625 11.7257812,4.57734375 11.6203125,4.5796875 C11.6226562,5.296875 11.6226562,6.01171875 11.6226562,6.72421875 C8.709375,7.16953125 7.05703125,8.83125 6.61171875,11.7070312 L4.46484375,11.7070312 C4.46015625,11.821875 4.45546875,11.9390625 4.45546875,12.0539062 C4.45546875,12.1757812 4.4578125,12.2953125 4.46484375,12.4148437 L6.61171875,12.4148437 C7.05703125,15.2882812 8.71875,16.9429687 11.5921875,17.3789062 L11.5921875,19.528125 C11.7070312,19.5328125 11.8242187,19.5375 11.9390625,19.5375 C12.0632812,19.5375 12.1875,19.5351562 12.309375,19.528125 C12.3070312,18.8296875 12.3070312,18.1242188 12.3070312,17.3835937 L12.3070312,17.3835937 Z M11.596875,15.9492187 C9.71953125,16.0242187 7.92890625,13.9523437 8.05078125,12.39375 C8.83828125,12.39375 9.63046875,12.3890625 10.4226562,12.4007812 C10.5210937,12.403125 10.6359375,12.4851562 10.7109375,12.5625 C10.9851562,12.8460937 11.2476562,13.1414062 11.596875,13.5234375 L11.596875,15.9492187 L11.596875,15.9492187 Z M11.6109375,10.5703125 C11.6109375,10.6523438 11.5359375,10.7507813 11.4703125,10.8140625 C11.1703125,11.0953125 10.8609375,11.3671875 10.4765625,11.7140625 L8.034375,11.7140625 C7.97578125,9.97734375 9.796875,8.146875 11.6179687,8.1421875 C11.615625,8.95078125 11.6203125,9.759375 11.6109375,10.5703125 Z M12.28125,13.6054687 C12.2835937,13.4953125 12.3820312,13.3710937 12.4664062,13.2796875 C12.6890625,13.0382812 12.91875,12.80625 13.1601562,12.5859375 C13.2515625,12.5015625 13.3757812,12.403125 13.4859375,12.4007812 C14.2617188,12.384375 15.0351562,12.3914062 15.80625,12.3914062 C15.9796875,13.828125 14.2875,15.9445313 12.2742187,15.9609375 C12.271875,15.1546875 12.2648438,14.3789062 12.28125,13.6054687 Z" id="形状" fill="currentColor"></path>
            </g>
        </g>
    </g>
</svg>