<?xml version="1.0" encoding="UTF-8"?>
<svg width="24px" height="24px" viewBox="0 0 24 24" version="1.1" xmlns="http://www.w3.org/2000/svg" xmlns:xlink="http://www.w3.org/1999/xlink">
    <title>固定资产备份</title>
    <g id="页面-1" stroke="none" stroke-width="1" fill="none" fill-rule="evenodd">
        <g id="图标" transform="translate(-241.000000, -45.000000)" fill-rule="nonzero">
            <g id="icon_固定资产" transform="translate(241.000000, 45.000000)">
                <rect id="矩形" fill="#000000" opacity="0" x="0" y="0" width="24" height="24"></rect>
                <path d="M20.9478229,8.8693722 C21.1952634,8.8693722 21.394474,8.66806468 21.394474,8.42272115 L21.394474,4.39657091 C21.394474,3.90168995 20.9939559,3.50117187 20.4990749,3.50117187 L3.50117188,3.50117187 C3.00629091,3.50117187 2.60577284,3.90168995 2.60577284,4.39657091 L2.60577284,19.6057728 C2.60577284,20.1006538 3.00629091,20.5011719 3.50117188,20.5011719 L20.5011719,20.5011719 C20.9960528,20.5011719 21.3965709,20.1006538 21.3965709,19.6057728 L21.3965709,12.0001234 C21.3965709,11.7526829 21.1952634,11.5534724 20.9499199,11.5534724 C20.7024794,11.5534724 20.5032688,11.7547799 20.5032688,12.0001234 L20.5032688,19.1570248 C20.5032688,19.4044653 20.3019613,19.6036759 20.0566178,19.6036759 L3.94782292,19.6036759 C3.70038243,19.6036759 3.50117188,19.4023684 3.50117188,19.1570248 L3.50117188,4.84322196 C3.50117188,4.59578147 3.70247939,4.39657091 3.94782292,4.39657091 L20.0524239,4.39657091 C20.2998644,4.39657091 20.4990749,4.59787842 20.4990749,4.84322196 L20.4990749,8.42272115 C20.4990749,8.66806468 20.7003824,8.8693722 20.9478229,8.8693722 Z" id="路径" fill="currentColor"></path>
                <path d="M15.4992187,12.4992188 L15.4992187,15.4992188 C15.4992187,15.7757812 15.7242187,15.9984375 15.9984375,15.9984375 C16.275,15.9984375 16.4976562,15.7734375 16.4976562,15.4992188 L16.4976562,12.4992188 L18.496875,12.4992188 C18.7734375,12.4992188 18.9960937,12.2742187 18.9960937,12 C18.9960937,11.7234375 18.7710937,11.5007812 18.496875,11.5007812 L16.5,11.5007812 L16.5,10.5 C16.5,9.0375 15.2460937,7.8703125 13.7554687,8.0109375 C12.4546875,8.13515625 11.5007812,9.3 11.5007812,10.6078125 L11.5007812,13.4414062 C11.5007812,14.1679688 11.0109375,14.8335938 10.3007812,14.971875 C9.3421875,15.1570312 8.50078125,14.4257812 8.50078125,13.5 L8.50078125,8.4984375 C8.50078125,8.221875 8.27578125,7.99921875 8.0015625,7.99921875 C7.725,7.99921875 7.50234375,8.22421875 7.50234375,8.4984375 L7.50234375,11.4984375 L5.503125,11.4984375 C5.2265625,11.4984375 5.00390625,11.7234375 5.00390625,11.9976563 C5.00390625,12.2742188 5.22890625,12.496875 5.503125,12.496875 L7.5,12.496875 L7.5,13.3898438 C7.5,14.6953125 8.45390625,15.8625 9.7546875,15.9867188 C11.2453125,16.1296875 12.4992187,14.9601563 12.4992187,13.4976563 L12.4992187,10.5585938 C12.4992187,9.83203125 12.9890625,9.16640625 13.6992187,9.028125 C14.6578125,8.84296875 15.4992187,9.57421875 15.4992187,10.5 L15.4992187,12.4992188 Z" id="路径" fill="currentColor"></path>
            </g>
        </g>
    </g>
</svg>
