<?xml version="1.0" encoding="UTF-8"?>
<svg width="24px" height="24px" viewBox="0 0 24 24" version="1.1" xmlns="http://www.w3.org/2000/svg" xmlns:xlink="http://www.w3.org/1999/xlink">
    <title>全程服务</title>
    <g id="页面-1" stroke="none" stroke-width="1" fill="none" fill-rule="evenodd">
        <g id="图标" transform="translate(-241.000000, -115.000000)" fill-rule="nonzero">
          <!-- <defs><style type="text/css"></style></defs> -->
            <g id="全程服务" transform="translate(241.000000, 115.000000)">
                <rect id="矩形" fill="#000000" opacity="0" x="0" y="0" width="24" height="24"></rect>
                <path d="M11.1411328,13.101375 C7.16048438,13.101375 3.92203125,16.3254609 3.92203125,20.2885781 C3.92203125,20.5538906 3.93663281,20.8227656 3.96595313,21.0861797 C4.01114063,21.4957734 3.71669531,21.8643281 3.30801563,21.9098203 C3.28049958,21.9126139 3.25286767,21.9141155 3.22521094,21.9143203 C2.85079688,21.9143203 2.52841406,21.6319688 2.48622656,21.2508047 C2.4509111,20.9312781 2.4331875,20.6100504 2.4331875,20.2885781 C2.4331875,16.5613828 4.80342188,13.3755938 8.12060156,12.1489688 C6.75285938,11.1913594 5.85630469,9.60276563 5.85630469,7.80848438 C5.85630469,4.89016406 8.22721875,2.51566406 11.1410859,2.51566406 C14.0549531,2.51566406 16.4257266,4.89021094 16.4257266,7.80848438 C16.4257266,10.7267578 14.0550938,13.101375 11.1411328,13.101375 L11.1411328,13.101375 Z M11.1411328,4.00673437 C9.04804688,4.00673437 7.34514844,5.71209375 7.34514844,7.80855469 C7.34514844,9.904875 9.04802344,11.6103516 11.1411328,11.6103516 C13.2345234,11.6103516 14.9371406,9.90499219 14.9371406,7.80855469 C14.9371406,5.71209375 13.2344063,4.00673437 11.1411328,4.00673437 L11.1411328,4.00673437 Z M14.9284922,21.4949531 L16.9343438,19.48875 C17.2949297,19.6180547 17.6719219,19.6834453 18.0583828,19.6834453 C19.9039453,19.6834453 21.4054922,18.1819219 21.4054922,16.3363359 C21.4054922,15.8768906 21.3127266,15.4296797 21.1302422,15.0079922 L21.0438516,14.8083047 C21.0434297,14.8079297 21.0433125,14.8097109 21.0430313,14.8091484 C21.034623,14.789575 21.0225101,14.7718116 21.0073594,14.7568359 C20.9411719,14.6907422 20.8335938,14.6907422 20.7672188,14.7572109 C20.7661641,14.7580313 20.7658594,14.7561563 20.7649688,14.7568359 L18.8909766,16.6308281 L17.7638438,15.5035313 L19.6004063,13.6670859 C19.5999844,13.6644141 19.5997969,13.6615078 19.6035938,13.6577578 C19.6409501,13.6204129 19.6619377,13.5697554 19.6619377,13.5169336 C19.6619377,13.4641118 19.6409501,13.4134543 19.6035938,13.3761094 C19.5830686,13.3555425 19.5583173,13.3396841 19.5310547,13.3296328 C19.5286172,13.3287656 19.5298359,13.3275234 19.5297188,13.3262578 L19.386375,13.2643125 C18.9651797,13.0819219 18.5181563,12.9890625 18.0583828,12.9890625 C16.2127734,12.9890625 14.7110391,14.4903281 14.7110391,16.3362422 C14.7110391,16.7220703 14.7764766,17.0993672 14.9057578,17.4603516 L12.8998594,19.4665078 C12.6290859,19.7373281 12.4796016,20.0975391 12.4796016,20.4805781 L12.4796016,20.4810938 C12.4796016,20.8639219 12.6290859,21.2243906 12.8998359,21.4952109 C13.4590547,22.0540547 14.3689453,22.0540547 14.9284922,21.4949766 L14.9284922,21.4949531 Z" id="形状" fill="currentColor"></path>
                <polygon id="路径" fill="currentColor" points="7.13847656 6.93475781 19.5503437 6.93475781 19.5503437 8.46234375 7.13847656 8.46234375"></polygon>
            </g>
        </g>
    </g>
</svg>
