<?xml version="1.0" encoding="UTF-8"?>
<svg width="24px" height="24px" viewBox="0 0 24 24" version="1.1" xmlns="http://www.w3.org/2000/svg" xmlns:xlink="http://www.w3.org/1999/xlink">
    <title>告警</title>
    <g id="页面-1" stroke="none" stroke-width="1" fill="none" fill-rule="evenodd">
        <g id="图标" transform="translate(-183.000000, -115.000000)" fill-rule="nonzero">
            <g id="告警" transform="translate(183.000000, 115.000000)">
                <rect id="矩形" fill="#000000" opacity="0" x="0" y="0" width="24" height="24"></rect>
                <path d="M12,4.125 C12.4142136,4.125 12.75,3.78921356 12.75,3.375 L12.75,1.875 C12.75,1.46078644 12.4142136,1.125 12,1.125 C11.5857864,1.125 11.25,1.46078644 11.25,1.875 L11.25,3.375 C11.25,3.78921356 11.5857864,4.125 12,4.125 Z M3.09075,6.777 C3.38503417,7.06122916 3.85281358,7.05716428 4.14211393,6.76786393 C4.43141428,6.47856358 4.43547916,6.01078417 4.15125,5.7165 L3.09075,4.65525 C2.79646583,4.37102084 2.32868642,4.37508572 2.03938607,4.66438607 C1.75008572,4.95368642 1.74602084,5.42146583 2.03025,5.71575 L3.09075,6.777 Z M22.152,5.40525 C21.8591251,5.11246355 21.3843749,5.11246355 21.0915,5.40525 L20.031,6.46575 C19.7467708,6.76003417 19.7508357,7.22781358 20.0401361,7.51711393 C20.3294364,7.80641428 20.7972158,7.81047916 21.0915,7.52625 L22.152,6.46575 C22.4447865,6.17287511 22.4447865,5.69812489 22.152,5.40525 L22.152,5.40525 Z M21.375,21.375 L20.25,21.375 L20.25,13.125 C20.25,8.56875 16.55625,4.875 12,4.875 C7.44375,4.875 3.75,8.56875 3.75,13.125 L3.75,21.375 L2.625,21.375 C2.21078644,21.375 1.875,21.7107864 1.875,22.125 C1.875,22.5392136 2.21078644,22.875 2.625,22.875 L21.375,22.875 C21.7892136,22.875 22.125,22.5392136 22.125,22.125 C22.125,21.7107864 21.7892136,21.375 21.375,21.375 Z M12.75,21.375 L12.75,18.375 C12.75,17.9607864 12.4142136,17.625 12,17.625 C11.5857864,17.625 11.25,17.9607864 11.25,18.375 L11.25,21.375 L5.25,21.375 L5.25,13.125 C5.25,9.39675 8.27175,6.375 12,6.375 C15.72825,6.375 18.75,9.39675 18.75,13.125 L18.75,21.375 L12.75,21.375 Z M12,10.875 C10.3431458,10.875 9,12.2181458 9,13.875 C9,15.5318542 10.3431458,16.875 12,16.875 C13.6568542,16.875 15,15.5318542 15,13.875 C15,12.2181458 13.6568542,10.875 12,10.875 Z M11.9999999,15.375 C11.4639676,15.374866 10.9687248,15.0887724 10.7008246,14.6244877 C10.4329245,14.1602031 10.4330674,13.5882634 10.7011996,13.1241127 C10.9693318,12.6599621 11.4647176,12.374116 12.00075,12.37425 C12.8293842,12.3744571 13.5009571,13.0463658 13.50075,13.875 C13.5005429,14.7036342 12.8286342,15.3752071 11.9999999,15.375 L11.9999999,15.375 Z" id="形状" fill="currentColor"></path>
            </g>
        </g>
    </g>
</svg>