<?xml version="1.0" encoding="UTF-8"?>
<svg width="26px" height="26px" viewBox="0 0 26 26" version="1.1" xmlns="http://www.w3.org/2000/svg" xmlns:xlink="http://www.w3.org/1999/xlink">
    <title>扫描</title>
    <g id="页面-1" stroke="none" stroke-width="1" fill="none" fill-rule="evenodd">
        <g id="TADS首页" transform="translate(-1157.000000, -302.000000)" fill-rule="nonzero">
            <g id="扫描" transform="translate(1157.000000, 302.000000)">
                <rect id="矩形" fill="#000000" opacity="0" x="0" y="0" width="26" height="26"></rect>
                <path d="M13.1066406,9.546875 C11.171875,9.546875 9.60273437,11.1160156 9.60273437,13.0507812 C9.60273437,14.9855469 11.171875,16.5546875 13.1066406,16.5546875 C15.0414062,16.5546875 16.61055,14.9855469 16.61055,13.0507812 C16.6130859,11.1160156 15.0439453,9.546875 13.1066406,9.546875 Z M13.1066406,14.4777344 C12.3195312,14.4777344 11.6822266,13.8404297 11.6822266,13.0533203 C11.6822266,12.2662109 12.3195312,11.6289062 13.1066406,11.6289062 C13.89375,11.6289062 14.5310622,12.2662109 14.5310622,13.0533203 C14.5335937,13.8404297 13.89375,14.4777344 13.1066406,14.4777344 Z M13.1066406,6.27910156 C12.5328125,6.27910156 12.065625,5.81445312 12.065625,5.23808594 L12.065625,1.22636719 C12.065625,0.652539062 12.5302734,0.185351562 13.1066406,0.185351562 C13.6804687,0.185351562 14.1476562,0.65 14.1476562,1.22636719 L14.1476562,5.240625 C14.1476562,5.81445312 13.6804687,6.27910156 13.1066406,6.27910156 Z M13.1066406,25.9162109 C12.5328125,25.9162109 12.065625,25.4515625 12.065625,24.8751953 L12.065625,20.8609375 C12.065625,20.2871094 12.5302734,19.8199219 13.1066406,19.8199219 C13.6804687,19.8199219 14.1476562,20.2845703 14.1476562,20.8609375 L14.1476562,24.8751953 C14.1476562,25.4515625 13.6804687,25.9162109 13.1066406,25.9162109 Z M6.33496094,13.0507812 C6.33496094,13.6246094 5.8703125,14.0917969 5.29394531,14.0917969 L1.28222656,14.0917969 C0.708398437,14.0917969 0.241210938,13.6271484 0.241210938,13.0507812 C0.241210938,12.4769531 0.705859375,12.0097656 1.28222656,12.0097656 L5.29648437,12.0097656 C5.8703125,12.0097656 6.33496094,12.4769531 6.33496094,13.0507812 Z M25.9720703,13.0507812 C25.9720703,13.6246094 25.5074219,14.0917969 24.9310547,14.0917969 L20.9167969,14.0917969 C20.3429688,14.0917969 19.8757813,13.6271484 19.8757813,13.0507812 C19.8757813,12.4769531 20.3404297,12.0097656 20.9167969,12.0097656 L24.9310547,12.0097656 C25.5074219,12.0097656 25.9720703,12.4769531 25.9720703,13.0507812 Z" id="形状" fill="#F7B500"></path>
                <path d="M13.1066406,2.46289062 C7.25917969,2.46289062 2.51875,7.20332031 2.51875,13.0507812 C2.51875,17.4001953 5.14160156,21.1376953 8.89179688,22.7677734 L9.9328125,20.9472656 C6.8046875,19.6904297 4.59824219,16.6308594 4.59824219,13.0533203 C4.59824219,8.35351562 8.40683594,4.54492187 13.1066406,4.54492187 C17.8064453,4.54492187 21.6150391,8.35351562 21.6150391,13.0533203 C21.6150391,17.753125 17.8064453,21.5617187 13.1066406,21.5617187 L13.1066406,23.6412109 C18.9541016,23.6412109 23.6945323,18.9007813 23.6945323,13.0533203 C23.6970703,7.20332031 18.9566406,2.46289062 13.1066406,2.46289062 Z" id="路径" fill="#F7B500"></path>
                <path d="M8.31542969,21.8308594 C8.31542969,22.4043941 8.78037148,22.8693359 9.35390625,22.8693359 C9.92744102,22.8693359 10.3923828,22.4043941 10.3923828,21.8308594 C10.3923828,21.2573246 9.92744102,20.7923828 9.35390625,20.7923828 C8.78037148,20.7923828 8.31542969,21.2573246 8.31542969,21.8308594 L8.31542969,21.8308594 Z" id="路径" fill="#F7B500"></path>
            </g>
        </g>
    </g>
</svg>