<?xml version="1.0" encoding="UTF-8"?>
<svg width="16px" height="16px" viewBox="0 0 16 16" version="1.1" xmlns="http://www.w3.org/2000/svg" xmlns:xlink="http://www.w3.org/1999/xlink">
    <title>运维脚本平台</title>
    <g id="页面-1" stroke="none" stroke-width="1" fill="none" fill-rule="evenodd">
        <g id="系统内建扫描-任务表" transform="translate(-832.000000, -578.000000)" fill-rule="nonzero">
            <g id="编组-3" transform="translate(832.000000, 576.000000)">
                <g id="运维脚本平台" transform="translate(0.000000, 2.000000)">
                    <rect id="矩形" fill="#000000" opacity="0" x="0" y="0" width="16" height="16"></rect>
                    <path d="M13.8333333,13.3333333 L2.66666667,13.3333333 L2.66666667,6 L13.8333333,6 C14.1,6 14.3333333,5.76666667 14.3333333,5.5 C14.3333333,5.23333333 14.1,5 13.8333333,5 L2.66666667,5 L2.66666667,2.66666667 L13.3333333,2.66666667 L13.3333333,13.8333333 C13.3333333,14.1 13.5666667,14.3333333 13.8333333,14.3333333 C14.1,14.3333333 14.3333333,14.1 14.3333333,13.8333333 L14.3333333,2.33333333 C14.3333333,1.96666666 14.0333333,1.66666667 13.6666667,1.66666667 L2.33333333,1.66666667 C1.96666666,1.66666667 1.66666667,1.96666667 1.66666667,2.33333333 L1.66666667,13.6666667 C1.66666667,14.0333333 1.96666667,14.3333333 2.33333333,14.3333333 L13.8333333,14.3333333 C14.1,14.3333333 14.3333333,14.1 14.3333333,13.8333333 C14.3333333,13.5666667 14.1,13.3333333 13.8333333,13.3333333 Z M8.83333333,3.33333333 C8.56666666,3.33333333 8.33333333,3.56666666 8.33333333,3.83333333 C8.33333333,4.1 8.56666666,4.33333333 8.83333333,4.33333333 L9.16666667,4.33333333 C9.43333334,4.33333333 9.66666667,4.1 9.66666667,3.83333333 C9.66666667,3.56666666 9.43333334,3.33333333 9.16666667,3.33333333 L8.83333333,3.33333333 L8.83333333,3.33333333 Z M6.5,3.33333333 C6.23333333,3.33333333 6,3.56666666 6,3.83333333 C6,4.1 6.23333333,4.33333333 6.5,4.33333333 L6.83333333,4.33333333 C7.1,4.33333333 7.33333333,4.1 7.33333333,3.83333333 C7.33333333,3.56666666 7.1,3.33333333 6.83333333,3.33333333 L6.5,3.33333333 L6.5,3.33333333 Z M4.16666667,3.33333333 C3.9,3.33333333 3.66666667,3.56666666 3.66666667,3.83333333 C3.66666667,4.1 3.9,4.33333333 4.16666667,4.33333333 L4.5,4.33333333 C4.76666667,4.33333333 5,4.1 5,3.83333333 C5,3.56666666 4.76666667,3.33333333 4.5,3.33333333 L4.16666667,3.33333333 L4.16666667,3.33333333 Z M7.33333333,9.3 C7.53333333,9.5 7.53333333,9.8 7.33333333,10 L5.7,11.6666667 C5.5,11.8666667 5.2,11.8666667 5,11.6666667 C4.8,11.4666667 4.8,11.1666667 5,10.9666667 L6.63333333,9.33333333 C6.83333333,9.13333333 7.13333333,9.13333333 7.33333333,9.3 Z M7.33333333,10.0333333 C7.13333333,10.2333333 6.83333333,10.2333333 6.63333333,10.0333333 L5,8.4 C4.8,8.2 4.8,7.9 5,7.7 C5.2,7.5 5.5,7.5 5.7,7.7 L7.33333333,9.33333333 C7.53333333,9.5 7.53333333,9.83333333 7.33333333,10.0333333 Z M9.83333333,10.6666667 L8.16666667,10.6666667 C7.9,10.6666667 7.66666667,10.9 7.66666667,11.1666667 C7.66666667,11.4333333 7.9,11.6666667 8.16666667,11.6666667 L9.83333333,11.6666667 C10.1,11.6666667 10.3333333,11.4333333 10.3333333,11.1666667 C10.3333333,10.9 10.1,10.6666667 9.83333333,10.6666667 Z" id="形状" fill="#2B85FB"></path>
                </g>
            </g>
        </g>
    </g>
</svg>