<?xml version="1.0" encoding="UTF-8"?>
<svg width="16px" height="16px" viewBox="0 0 16 16" version="1.1" xmlns="http://www.w3.org/2000/svg" xmlns:xlink="http://www.w3.org/1999/xlink">
    <title>查看备份</title>
    <g id="页面-1" stroke="none" stroke-width="1" fill="none" fill-rule="evenodd">
        <g id="图标" transform="translate(-483.000000, -151.000000)" fill-rule="nonzero">
            <g id="查看备份" transform="translate(483.000000, 151.000000)">
                <rect id="矩形" fill="#000000" opacity="0" x="0" y="0" width="16" height="16"></rect>
                <path d="M9.0078125,14.534375 L2.5484375,14.534375 C1.721875,14.534375 1.0484375,13.8609375 1.0484375,13.034375 L1.0484375,2.534375 C1.0484375,1.7078125 1.721875,1.034375 2.5484375,1.034375 L13.0484375,1.034375 C13.875,1.034375 14.5484375,1.7078125 14.5484375,2.534375 L14.5484375,9.015625 C14.5484375,9.2921875 14.325,9.515625 14.0484375,9.515625 C13.771875,9.515625 13.5484375,9.2921875 13.5484375,9.015625 L13.5484375,2.534375 C13.5484375,2.259375 13.3234375,2.034375 13.0484375,2.034375 L2.5484375,2.034375 C2.2734375,2.034375 2.0484375,2.259375 2.0484375,2.534375 L2.0484375,13.034375 C2.0484375,13.309375 2.2734375,13.534375 2.5484375,13.534375 L9.0078125,13.534375 C9.284375,13.534375 9.5078125,13.7578125 9.5078125,14.034375 C9.5078125,14.3109375 9.284375,14.534375 9.0078125,14.534375 Z" id="路径" fill="#333333"></path>
                <path d="M10.81875,5.0359375 L3.8390625,5.0359375 C3.5625,5.0359375 3.3390625,4.8125 3.3390625,4.5359375 C3.3390625,4.259375 3.5625,4.0359375 3.8390625,4.0359375 L10.81875,4.0359375 C11.0953125,4.0359375 11.31875,4.259375 11.31875,4.5359375 C11.31875,4.8125 11.0953125,5.0359375 10.81875,5.0359375 Z M6.0703125,8.284375 L3.8390625,8.284375 C3.5625,8.284375 3.3390625,8.0609375 3.3390625,7.784375 C3.3390625,7.5078125 3.5625,7.284375 3.8390625,7.284375 L6.06875,7.284375 C6.3453125,7.284375 6.56875809,7.5078125 6.56875809,7.784375 C6.5703125,8.059375 6.3453125,8.284375 6.0703125,8.284375 Z M6.0703125,11.53125 L3.8390625,11.53125 C3.5625,11.53125 3.3390625,11.3078125 3.3390625,11.03125 C3.3390625,10.7546875 3.5625,10.53125 3.8390625,10.53125 L6.06875,10.53125 C6.3453125,10.53125 6.56875809,10.7546875 6.56875809,11.03125 C6.5703125,11.3078125 6.3453125,11.53125 6.0703125,11.53125 Z" id="形状" fill="#333333"></path>
                <path d="M9.7515625,12.3828125 C8.2703125,12.3828125 7.0640625,11.1765625 7.0640625,9.6953125 C7.0640625,8.2140625 8.2703125,7.0078125 9.7515625,7.0078125 C11.2328125,7.0078125 12.4390625,8.2140625 12.4390625,9.6953125 C12.4390625,11.1765625 11.234375,12.3828125 9.7515625,12.3828125 Z M9.7515625,8.0078125 C8.8203125,8.0078125 8.0640625,8.7640625 8.0640625,9.6953125 C8.0640625,10.6265625 8.8203125,11.3828125 9.7515625,11.3828125 C10.6828125,11.3828125 11.4390625,10.6265625 11.4390625,9.6953125 C11.4390625,8.7640625 10.6828125,8.0078125 9.7515625,8.0078125 Z" id="形状" fill="#333333"></path>
                <path d="M12.825,13.503125 L11.1015625,11.7796875 C10.90625,11.584375 10.90625,11.2671875 11.1015625,11.071875 C11.296875,10.8765625 11.6140625,10.8765625 11.809375,11.071875 L13.53125,12.7953125 C13.7265625,12.990625 13.7265625,13.3078125 13.53125,13.503125 C13.3359375,13.6984375 13.0203125,13.6984375 12.825,13.503125 L12.825,13.503125 Z" id="路径" fill="#333333"></path>
            </g>
        </g>
    </g>
</svg>