<?xml version="1.0" encoding="UTF-8"?>
<svg width="26px" height="26px" viewBox="0 0 26 26" version="1.1" xmlns="http://www.w3.org/2000/svg" xmlns:xlink="http://www.w3.org/1999/xlink">
    <title>毒品,危险,骨头,骷髅</title>
    <g id="页面-1" stroke="none" stroke-width="1" fill="none" fill-rule="evenodd">
        <g id="TADS首页" transform="translate(-1586.000000, -356.000000)" fill-rule="nonzero">
            <g id="毒品,危险,骨头,骷髅" transform="translate(1586.000000, 356.000000)">
                <rect id="矩形" fill="#EE2100" opacity="0" x="0" y="0" width="26" height="26"></rect>
                <path d="M16.9293176,7.21390219 C17.2186859,7.21390219 17.4090599,7.29512839 17.6070487,7.50073221 C17.8228058,7.73171923 17.9167236,7.9728595 17.9167236,8.30791759 C17.9167236,8.64805231 17.8253441,8.88919261 17.609587,9.115103 C17.4115981,9.32324514 17.2212242,9.40447135 16.9318559,9.40447135 C16.6602558,9.40447135 16.4774968,9.32324514 16.279508,9.115103 C16.0637509,8.88919263 15.9723714,8.64551401 15.9723714,8.30791759 C15.9723714,7.97032118 16.0637509,7.7291809 16.279508,7.50327053 C16.4749585,7.29512839 16.6577175,7.21390219 16.9293176,7.21390219 M9.07068241,7.21390219 C9.34482085,7.21390219 9.54027141,7.30020502 9.74333692,7.51088548 C9.96417066,7.73933418 10.0580884,7.97793615 10.0580884,8.30791759 C10.0580884,8.64043736 9.96417066,8.87903933 9.74333692,9.10748805 C9.54027141,9.31816851 9.34482085,9.40447135 9.07068241,9.40447135 C8.79654397,9.40447135 8.60109341,9.31816851 8.39802793,9.10748805 C8.17719419,8.87903936 8.08327637,8.64043738 8.08327637,8.30791759 C8.08327637,7.97793613 8.17719416,7.73933418 8.39802793,7.51088548 C8.60109344,7.2976667 8.796544,7.21390219 9.07068241,7.21390219 M16.9293176,5.58937811 C16.2135117,5.58937811 15.6043151,5.85336327 15.0991897,6.38387191 C14.5940642,6.91438056 14.3427707,7.55657523 14.3427707,8.30791759 C14.3427707,9.06433661 14.5940642,9.70399295 15.0991897,10.2345016 C15.6043152,10.7650103 16.2135117,11.0289954 16.9293176,11.0289954 C17.6628917,11.0289954 18.2797032,10.7650102 18.7848287,10.2345016 C19.2899541,9.70399297 19.5412477,9.05925998 19.5412477,8.30791759 C19.5412477,7.5565752 19.2874158,6.91438054 18.7848287,6.38387191 C18.2797032,5.85082497 17.6603534,5.58937811 16.9293176,5.58937811 Z M9.07068241,5.58937811 C8.35487649,5.58937811 7.738065,5.85336327 7.22786294,6.38387191 C6.71766088,6.91438056 6.45875232,7.55657523 6.45875232,8.30791759 C6.45875232,9.06433661 6.71512253,9.70399295 7.22786294,10.2345016 C7.73806503,10.7650103 8.35487651,11.0289954 9.07068241,11.0289954 C9.78648831,11.0289954 10.4032998,10.7650102 10.9135019,10.2345016 C11.423704,9.70399297 11.6826125,9.05925998 11.6826125,8.30791759 C11.6826125,7.5565752 11.4262423,6.91438054 10.9135019,6.38387191 C10.4032998,5.85082497 9.78648833,5.58937811 9.07068241,5.58937811 Z M13.1167627,11.2599824 C12.8756224,11.2599824 12.6344821,11.4198965 12.3882651,11.7397247 C12.1420482,12.0620912 12.0176706,12.3819194 12.0176706,12.7042859 C12.0176706,12.9098897 12.0760519,13.0748804 12.1978912,13.2119496 C12.4034951,13.430245 12.7182466,13.5419311 13.1446842,13.5419311 C13.7919555,13.5419311 14.1193986,13.2982525 14.1193986,12.8083569 C14.1193986,12.4859904 14.0077126,12.1509323 13.7970321,11.7955677 C13.581275,11.4376647 13.3528263,11.2599824 13.1167627,11.2599824 L13.1167627,11.2599824 Z M22.3917797,21.8625403 C23.6101728,23.4870643 21.1251586,23.1646978 20.7088743,23.9871132 C20.2951284,24.7790686 20.7901006,26.0736113 19.3483354,25.9873084 C18.3304696,25.9263887 19.1427316,24.6293078 17.3684467,23.8322757 C17.3481402,23.8221224 16.9851606,23.6139803 16.8150932,23.5352924 C15.9876013,23.1570829 15.1220346,22.78395 14.233623,22.4235087 C13.444555,22.1011417 12.5605216,22.1011417 11.7714537,22.4235087 C10.8830421,22.78395 10.0174754,23.1570829 9.18998341,23.5352924 C9.01991604,23.6139803 8.65693646,23.8221224 8.6366299,23.8322757 C6.86234504,24.6293078 7.67460705,25.9263887 6.65674118,25.9873084 C5.21497608,26.0761496 5.70994826,24.7790686 5.29620229,23.9871132 C4.87484136,23.1646978 2.3898272,23.4870643 3.60822026,21.8625403 C3.95343163,21.4031046 4.59562629,21.207654 5.2022845,21.4817924 C6.04500635,21.8625403 7.79390805,21.3015718 7.80406131,21.3015718 C7.95128379,21.2812653 8.0985063,21.2558821 8.23811384,21.2127307 C8.6239383,21.0934297 9.01483941,20.9665137 9.41081715,20.8345211 C9.50473494,20.8040613 9.50473494,20.6720687 9.41081715,20.6416089 C8.65185981,20.3903154 7.90559407,20.1593283 7.1847115,19.9486478 C6.84965341,19.8521917 6.50951869,19.7709655 6.16684565,19.7125842 C5.636337,19.6212047 5.25051254,19.6085131 4.86468808,19.7785805 C4.27833644,20.0324124 3.70721467,20.7786781 3.34169677,19.798887 C2.89749096,18.6134921 4.92814606,18.2073611 4.94083764,17.3443327 C4.95606754,16.4813043 4.92814603,14.9786196 6.26330176,15.4126721 C7.36493215,15.770575 6.63389632,16.1690911 7.21009471,16.8189007 C7.39539199,17.0295812 7.62637901,17.1971102 7.87767256,17.3189495 C9.07575906,17.9053012 10.3982232,18.4916528 11.766377,19.050083 C12.5557942,19.3724495 13.4391292,19.3724495 14.2285463,19.050083 C15.5992385,18.4916528 16.9191643,17.9027628 18.1172508,17.3189495 C18.3685444,17.1971102 18.5995314,17.0270429 18.7848287,16.8189007 C19.3610271,16.1690911 18.6325295,15.770575 19.7316216,15.4126721 C21.064239,14.9786195 21.0388558,16.4813043 21.0540857,17.3443327 C21.0693156,18.2073611 23.0999707,18.6134921 22.6557649,19.798887 C22.290247,20.7786781 21.7165869,20.0324124 21.1327736,19.7785805 C20.7469491,19.6085131 20.3611247,19.6212047 19.830616,19.7125842 C19.487943,19.7709655 19.1478083,19.8521917 18.8127502,19.9486478 C18.0893293,20.1593283 17.3430636,20.3903153 16.5866445,20.6416089 C16.4927268,20.6720688 16.4927268,20.8040613 16.5866445,20.8345211 C16.980084,20.9665137 17.3709851,21.0908914 17.7593478,21.2127307 C17.9014937,21.2558821 18.0461779,21.2838036 18.1934004,21.3015718 C18.2035536,21.3015718 19.9524553,21.8625403 20.7951772,21.4817924 C21.4043737,21.207654 22.0465684,21.4031046 22.3917797,21.8625403 Z" id="形状" fill="#AC1800"></path>
                <path d="M12.9873084,1.62452405 C14.0584789,1.62452405 15.0534999,1.78443814 15.9444499,2.0991897 C16.8176316,2.40886461 17.6273553,2.8809919 18.3507761,3.50541834 L18.3558528,3.51049496 L18.3609294,3.51557162 C19.7366982,4.68319828 20.5438836,6.12496341 20.825637,7.92716978 L20.8307137,7.96016792 L20.8383286,7.99316606 C20.8865567,8.24192131 20.9119399,8.47290834 20.9119399,8.70389533 C20.9119399,9.24455726 20.8281753,9.72429951 20.6555697,10.1786586 C20.482964,10.627941 20.2291321,11.0366104 19.8737674,11.4275115 L19.8712291,11.4300498 L19.8686908,11.4325881 C19.5031729,11.8387191 19.0564288,12.1991604 18.5411501,12.498682 C17.9954115,12.8159719 17.3506785,13.0824954 16.629796,13.2855609 C15.7769208,13.5267012 15.1804159,14.3161183 15.1804159,15.2019916 L15.1804159,15.2324514 C15.149956,15.2603729 15.1042663,15.300986 14.9722737,15.3212926 L14.8885092,15.3212926 C14.6346774,15.2019916 14.3554623,15.1385336 14.0737089,15.1385336 C13.7234209,15.1385336 13.3807478,15.2349898 13.0812262,15.4177487 C13.0203066,15.4532852 12.9695402,15.4685151 12.8959289,15.4685151 C12.7918579,15.4685151 12.7182466,15.4482085 12.6344821,15.3949038 C12.3374988,15.2070682 11.9973641,15.1055355 11.6445377,15.1055355 C11.3424778,15.1055355 11.0454945,15.1791467 10.778971,15.3238309 L10.7485112,15.3238309 C10.7205897,15.3238309 10.6901299,15.3238309 10.6571317,15.3212926 L10.6520551,15.3212926 C10.5454457,15.3136776 10.5200625,15.2882945 10.4870643,15.2552963 L10.4794494,15.2476813 C10.476911,15.2400664 10.476911,15.2248365 10.4769111,15.2019916 C10.4769111,14.2704286 9.88040615,13.4505516 8.99199453,13.1611832 C8.35487649,12.9530411 7.78375475,12.6941326 7.29893587,12.3920726 C6.83696183,12.1052426 6.43844579,11.7701845 6.11100263,11.3945133 C5.43580982,10.6203261 5.10329003,9.73952944 5.0956751,8.69628038 C5.0956751,8.48052329 5.12105829,8.23938299 5.17182466,7.98047448 L5.17943961,7.94747632 L5.18451626,7.91447818 C5.45103975,6.11734843 6.24807186,4.66796837 7.62637898,3.48765011 C8.34979986,2.87337695 9.15698525,2.40632628 10.0327053,2.0991897 C10.9160402,1.78443817 11.9135995,1.62452405 12.9873084,1.62452405 M12.9873084,0 C10.4616811,0 8.32187835,0.751342389 6.56282339,2.24895051 C4.89007127,3.68563896 3.89251195,5.49292199 3.57014546,7.67333788 C3.50161086,8.03124083 3.4660744,8.37391387 3.4660744,8.69881871 C3.47622768,10.1304305 3.94581667,11.3843601 4.88245631,12.4606073 C5.75309968,13.4581666 6.9537245,14.2069706 8.48686909,14.7044811 C8.70262618,14.775554 8.84731037,14.9735429 8.84731037,15.1994533 C8.84731037,15.6791956 9.00976279,16.0777116 9.33212927,16.4000781 C9.65703408,16.7249829 10.0580885,16.9052036 10.5327541,16.9382017 C10.603827,16.9432783 10.6748999,16.9458166 10.7408962,16.9458166 C11.0683394,16.9458166 11.3272479,16.8823587 11.5252367,16.7605194 C11.5582349,16.7402128 11.598848,16.7275212 11.6369228,16.7275212 C11.6775359,16.7275212 11.718149,16.7376745 11.7536855,16.7605194 C12.0963585,16.9788148 12.4771063,17.0905008 12.888314,17.0905008 C13.2563702,17.0905008 13.6015816,16.996583 13.9163331,16.8036708 C13.9620229,16.7757493 14.0153275,16.7605194 14.0660939,16.7605194 C14.1117837,16.7605194 14.1574734,16.7706726 14.2006248,16.7935175 C14.3884604,16.892512 14.6270624,16.9432783 14.9164307,16.9432783 C14.9798887,16.9432783 15.045885,16.94074 15.1118813,16.9356634 C15.5916236,16.8823587 15.9901396,16.702138 16.3125061,16.3848482 C16.6374109,16.0700967 16.797325,15.6715806 16.797325,15.196915 C16.797325,15.0319242 16.9064727,14.8897784 17.0663868,14.8440886 C18.779752,14.3592697 20.1123694,13.5825442 21.0743923,12.5113736 C22.0491067,11.4376647 22.5339256,10.165967 22.5339256,8.69881871 C22.5339256,8.37391389 22.5009275,8.03377918 22.4298545,7.67333788 C22.0871815,5.49292199 21.0820072,3.69325392 19.4117934,2.276872 C17.6527385,0.758957342 15.5129357,0 12.9873084,0 L12.9873084,0 Z" id="形状" fill="#AC1800"></path>
            </g>
        </g>
    </g>
</svg>