<?xml version="1.0" encoding="UTF-8"?>
<svg width="156px" height="44px" viewBox="0 0 156 44" version="1.1" xmlns="http://www.w3.org/2000/svg" xmlns:xlink="http://www.w3.org/1999/xlink">
    <title>编组 74</title>
    <g id="页面-1" stroke="none" stroke-width="1" fill="none" fill-rule="evenodd">
        <g id="编组-74">
            <rect id="矩形备份-23" stroke="#CA0000" fill="#FAE5E5" x="0.5" y="0.5" width="155" height="43" rx="4"></rect>
            <path d="M4,0 L44,0 L44,0 L44,44 L4,44 C1.790861,44 2.04689834e-15,42.209139 0,40 L0,4 C-2.705415e-16,1.790861 1.790861,2.18216909e-15 4,0 Z" id="矩形备份-24" fill="#CA0000"></path>
            <g id="异地登录" transform="translate(8.000000, 8.000000)" fill-rule="nonzero">
                <g>
                    <rect id="矩形" fill="#000000" opacity="0" x="0" y="0" width="28" height="28"></rect>
                    <path d="M22.2766797,3.86175781 L5.77417969,3.86175781 C4.06464844,3.86175781 2.6796875,5.24644531 2.6796875,6.95597656 L2.6796875,17.2700391 C2.6796875,18.9795703 4.064375,20.3642578 5.77390625,20.3642578 L12.99375,20.3642578 L12.99375,22.4270703 L9.89980469,22.4270703 C9.33023438,22.4270703 8.86839844,22.8889062 8.86839844,23.4584766 C8.86839844,24.0280469 9.33023438,24.4898828 9.89980469,24.4898828 L18.1510547,24.4898828 C18.720625,24.4898828 19.1824609,24.0280469 19.1824609,23.4584766 C19.1824609,22.8889062 18.720625,22.4270703 18.1510547,22.4270703 L15.0568359,22.4270703 L15.0568359,20.3642578 L22.2766797,20.3642578 C23.9862109,20.3642578 25.3708984,18.9795703 25.3708984,17.2700391 L25.3708984,6.95597656 C25.3708984,5.24644531 23.9862109,3.86175781 22.2766797,3.86175781 L22.2766797,3.86175781 Z M23.3080859,17.2703125 C23.3080859,17.8401562 22.8465234,18.3017187 22.2766797,18.3017187 L5.77417969,18.3017187 C5.20433594,18.3017187 4.74277344,17.8401562 4.74277344,17.2703125 L4.74277344,6.95625 C4.74277344,6.38640625 5.20433594,5.92484375 5.77417969,5.92484375 L22.2769531,5.92484375 C22.8467969,5.92484375 23.3083594,6.38640625 23.3083594,6.95625 L23.3083594,17.2703125 L23.3080859,17.2703125 Z" id="形状" fill="#FFFFFF"></path>
                    <path d="M14.1039062,13.6494531 C14.6855078,13.6494531 15.1571875,13.1777734 15.1571875,12.5961719 L15.1571875,7.92859375 C15.1571875,7.34699219 14.6855078,6.8753125 14.1039062,6.8753125 C13.5223047,6.8753125 13.050625,7.34699219 13.050625,7.92859375 L13.050625,12.5961719 C13.050625,13.1777734 13.5223047,13.6494531 14.1039062,13.6494531 Z M15.2211719,15.1798828 C14.9223047,14.58625 14.1985156,14.3472656 13.6048828,14.6461328 C13.01125,14.945 12.7722656,15.6687891 13.0711328,16.2626953 C13.37,16.8563281 14.0937891,17.0953125 14.6876953,16.7964453 C15.2810547,16.4973047 15.5200391,15.7735156 15.2211719,15.1798828 Z" id="形状" fill="#FFFFFF"></path>
                </g>
            </g>
            <text id="威胁告警" font-family="PingFangSC-Regular, PingFang SC" font-size="22" font-weight="normal" fill="#CA0000">
                <tspan x="56" y="30">威胁告警</tspan>
            </text>
        </g>
    </g>
</svg>