<?xml version="1.0" encoding="UTF-8"?>
<svg width="48px" height="48px" viewBox="0 0 48 48" version="1.1" xmlns="http://www.w3.org/2000/svg" xmlns:xlink="http://www.w3.org/1999/xlink">
    <title>网络扫描</title>
    <g id="页面-1" stroke="none" stroke-width="1" fill="none" fill-rule="evenodd">
        <g id="TADS首页" transform="translate(-616.000000, -822.000000)" fill-rule="nonzero">
            <g id="编组-3" transform="translate(190.000000, 785.000000)">
                <g id="icon_网络扫描" transform="translate(426.000000, 37.000000)">
                    <rect id="矩形" fill="#000000" opacity="0" x="0" y="0" width="48" height="48"></rect>
                    <path d="M23.165625,6.2015625 C23.4328125,6.1875 23.7,6.1828125 23.9671875,6.1828125 C33.815625,6.1828125 41.8265625,14.19375 41.8265625,24.0421875 C41.8265625,29.56875 39.3,34.51875 35.34375,37.7953125 L35.85,39.1125 C40.3078125,35.5921875 43.1765625,30.1453125 43.1765625,24.0375 C43.1765625,13.4484375 34.5609375,4.828125 23.9671875,4.828125 C23.5265625,4.828125 23.090625,4.846875 22.6546875,4.8796875 L23.165625,6.2015625 L23.165625,6.2015625 Z M23.68125,41.8921875 C13.96875,41.7375 6.1125,33.7921875 6.1125,24.0421875 C6.1125,18.9046875 8.296875,14.2734375 11.7796875,11.0109375 L11.259375,9.6609375 C7.2796875,13.18125 4.7625,18.3234375 4.7625,24.0421875 C4.7625,34.63125 13.378125,43.2515625 23.971875,43.2515625 C24.0515625,43.2515625 24.1265625,43.246875 24.2015625,43.246875 L23.68125,41.8921875 L23.68125,41.8921875 Z" id="形状" fill="#1195FE"></path>
                    <path d="M22.21875,42.590625 C22.21875,43.5562604 23.0015521,44.3390625 23.9671875,44.3390625 C24.9328229,44.3390625 25.715625,43.5562604 25.715625,42.590625 C25.715625,41.6249896 24.9328229,40.8421875 23.9671875,40.8421875 C23.0015521,40.8421875 22.21875,41.6249896 22.21875,42.590625 L22.21875,42.590625 Z" id="路径" fill="#FFFFFF"></path>
                    <path d="M23.9671875,45.009375 C22.63125,45.009375 21.54375,43.921875 21.54375,42.5859375 C21.54375,41.25 22.63125,40.1625 23.9671875,40.1625 C25.303125,40.1625 26.390625,41.25 26.390625,42.5859375 C26.390625,43.921875 25.303125,45.009375 23.9671875,45.009375 Z M23.9671875,41.5171875 C23.3765625,41.5171875 22.89375,42 22.89375,42.590625 C22.89375,43.18125 23.3765625,43.6640625 23.9671875,43.6640625 C24.5578125,43.6640625 25.040625,43.18125 25.040625,42.590625 C25.040625,42 24.5578125,41.5171875 23.9671875,41.5171875 L23.9671875,41.5171875 Z" id="形状" fill="#1195FE"></path>
                    <path d="M28.96875,17.2265625 C28.96875,18.1921979 29.7515521,18.975 30.7171875,18.975 C31.6828229,18.975 32.465625,18.1921979 32.465625,17.2265625 C32.465625,16.2609271 31.6828229,15.478125 30.7171875,15.478125 C29.7515521,15.478125 28.96875,16.2609271 28.96875,17.2265625 Z" id="路径" fill="#FFFFFF"></path>
                    <path d="M30.7171875,19.65 C29.38125,19.65 28.29375,18.5625 28.29375,17.2265625 C28.29375,15.890625 29.38125,14.803125 30.7171875,14.803125 C32.053125,14.803125 33.140625,15.890625 33.140625,17.2265625 C33.140625,18.5625 32.053125,19.65 30.7171875,19.65 Z M30.7171875,16.153125 C30.1265625,16.153125 29.64375,16.6359375 29.64375,17.2265625 C29.64375,17.8171875 30.1265625,18.3 30.7171875,18.3 C31.3078125,18.3 31.790625,17.8171875 31.790625,17.2265625 C31.790625,16.6359375 31.3078125,16.153125 30.7171875,16.153125 Z" id="形状" fill="#1195FE"></path>
                    <path d="M22.21875,5.45625 C22.21875,6.42188537 23.0015521,7.2046875 23.9671875,7.2046875 C24.9328229,7.2046875 25.715625,6.42188537 25.715625,5.45625 C25.715625,4.49061463 24.9328229,3.7078125 23.9671875,3.7078125 C23.0015521,3.7078125 22.21875,4.49061463 22.21875,5.45625 L22.21875,5.45625 Z" id="路径" fill="#FFFFFF"></path>
                    <path d="M23.9671875,7.8796875 C22.63125,7.8796875 21.54375,6.7921875 21.54375,5.45625 C21.54375,4.1203125 22.63125,3.0328125 23.9671875,3.0328125 C25.303125,3.0328125 26.390625,4.1203125 26.390625,5.45625 C26.390625,6.7921875 25.303125,7.8796875 23.9671875,7.8796875 Z M23.9671875,4.3875 C23.3765625,4.3875 22.89375,4.8703125 22.89375,5.4609375 C22.89375,6.0515625 23.3765625,6.534375 23.9671875,6.534375 C24.5578125,6.534375 25.040625,6.0515625 25.040625,5.4609375 C25.040625,4.8703125 24.5578125,4.3875 23.9671875,4.3875 L23.9671875,4.3875 Z" id="形状" fill="#1195FE"></path>
                    <path d="M24.6140625,34.7671875 C30.346875,33.8578125 33.6375,30.54375 34.528125,24.8390625 L38.8171875,24.8390625 C38.8265625,24.6 38.8359375,24.35625 38.8359375,24.1171875 C38.8359375,23.8875 38.8265625,23.6578125 38.8171875,23.428125 L34.59375,23.428125 C34.3171875,22.29375 34.059375,21.2109375 33.7828125,20.071875 C32.953125,20.5875 32.25,21.0234375 31.4765625,21.50625 C31.575,22.06875 31.6875,22.715625 31.81875,23.4796875 C30.103125,23.4796875 28.4859375,23.503125 26.86875,23.45625 C26.6484375,23.4515625 26.353125,23.1421875 26.2546875,22.903125 C26.1796875,22.715625 26.278125,22.359375 26.428125,22.1953125 C26.9015625,21.675 27.43125,21.20625 27.965625,20.690625 C27.6515625,20.334375 27.403125,20.053125 26.934375,19.5234375 C26.4328125,20.1234375 25.9828125,20.709375 25.48125,21.2484375 C25.3125,21.43125 25.021875,21.4921875 24.7828125,21.609375 C24.69375,21.375 24.525,21.140625 24.525,20.9015625 C24.5015625,19.3828125 24.5109375,17.86875 24.5109375,16.2140625 C25.2328125,16.33125 25.8703125,16.4296875 26.475,16.528125 C26.934375,15.8015625 27.3796875,15.0984375 27.909375,14.259375 C26.8125,13.9734375 25.734375,13.6875 24.609375,13.3921875 L24.609375,9.1640625 C24.365625,9.1546875 24.121875,9.1453125 23.878125,9.1453125 C23.6625,9.1453125 23.4515625,9.1546875 23.240625,9.159375 C23.2453125,10.59375 23.2453125,12.0234375 23.2453125,13.4484375 C17.41875,14.3390625 14.1140625,17.6625 13.2234375,23.4140625 L8.9296875,23.4140625 C8.9203125,23.64375 8.9109375,23.878125 8.9109375,24.1078125 C8.9109375,24.3515625 8.915625,24.590625 8.9296875,24.8296875 L13.2234375,24.8296875 C14.1140625,30.5765625 17.4375,33.8859375 23.184375,34.7578125 L23.184375,39.05625 C23.4140625,39.065625 23.6484375,39.075 23.878125,39.075 C24.1265625,39.075 24.375,39.0703125 24.61875,39.05625 C24.6140625,37.659375 24.6140625,36.2484375 24.6140625,34.7671875 L24.6140625,34.7671875 Z M23.19375,31.8984375 C19.4390625,32.0484375 15.8578125,27.9046875 16.1015625,24.7875 C17.6765625,24.7875 19.2609375,24.778125 20.8453125,24.8015625 C21.0421875,24.80625 21.271875,24.9703125 21.421875,25.125 C21.9703125,25.6921875 22.4953125,26.2828125 23.19375,27.046875 L23.19375,31.8984375 L23.19375,31.8984375 Z M23.221875,21.140625 C23.221875,21.3046875 23.071875,21.5015625 22.940625,21.628125 C22.340625,22.190625 21.721875,22.734375 20.953125,23.428125 L16.06875,23.428125 C15.9515625,19.9546875 19.59375,16.29375 23.2359375,16.284375 C23.23125,17.9015625 23.240625,19.51875 23.221875,21.140625 Z M24.5625,27.2109375 C24.5671875,26.990625 24.7640625,26.7421875 24.9328125,26.559375 C25.378125,26.0765625 25.8375,25.6125 26.3203125,25.171875 C26.503125,25.003125 26.7515625,24.80625 26.971875,24.8015625 C28.5234375,24.76875 30.0703125,24.7828125 31.6125,24.7828125 C31.959375,27.65625 28.575,31.8890625 24.5484375,31.921875 C24.54375,30.309375 24.5296875,28.7578125 24.5625,27.2109375 Z" id="形状" fill="#1195FE"></path>
                </g>
            </g>
        </g>
    </g>
</svg>