<?xml version="1.0" encoding="UTF-8"?>
<svg width="14px" height="14px" viewBox="0 0 14 14" version="1.1" xmlns="http://www.w3.org/2000/svg" xmlns:xlink="http://www.w3.org/1999/xlink">
    <title>编辑备份</title>
    <g id="页面-1" stroke="none" stroke-width="1" fill="none" fill-rule="evenodd">
        <g id="编辑备份" fill-rule="nonzero">
            <rect id="矩形" fill="#000000" opacity="0" x="0" y="0" width="14" height="14"></rect>
            <path d="M11.2541406,13.0467969 L2.04148437,13.0467969 C1.42146484,13.0467969 0.917382812,12.5425781 0.917382812,11.922832 L0.917382812,2.39216797 C0.917382812,1.77228516 1.42146484,1.26806641 2.04148437,1.26806641 L8.56351563,1.26806641 C8.81740234,1.26806641 9.02330078,1.47382812 9.02330078,1.72785156 C9.02330078,1.981875 8.81740234,2.18763672 8.56351563,2.18763672 L2.04148437,2.18763672 C1.92869141,2.18763672 1.83708984,2.279375 1.83708984,2.39203125 L1.83708984,11.9226953 C1.83708984,12.0353516 1.92869141,12.1269531 2.04148437,12.1269531 L11.2541406,12.1269531 C11.3669336,12.1269531 11.4585352,12.0353516 11.4585352,11.9226953 L11.4585352,6.1271875 C11.4585352,5.87316406 11.6644336,5.66740234 11.9183203,5.66740234 C12.172207,5.66740234 12.3781055,5.87316406 12.3781055,6.1271875 L12.3781055,11.9226953 C12.3782422,12.5424414 11.8741602,13.0467969 11.2541406,13.0467969 Z" id="路径" fill="#2E84C9"></path>
            <path d="M5.97146484,5.07582031 L3.11226563,5.07582031 C2.85837891,5.07582031 2.65248047,4.87005859 2.65248047,4.61603516 C2.65248047,4.36201172 2.85837891,4.15625 3.11226563,4.15625 L5.97146484,4.15625 C6.22535156,4.15625 6.43125,4.36201172 6.43125,4.61603516 C6.43125,4.86992188 6.22521484,5.07582031 5.97146484,5.07582031 Z M4.80785156,7.09734375 L3.11226563,7.09734375 C2.85837891,7.09734375 2.65248047,6.89158203 2.65248047,6.63755859 C2.65248047,6.38353516 2.85837891,6.17777344 3.11226563,6.17777344 L4.80785156,6.17777344 C5.06173828,6.17777344 5.26763672,6.38353516 5.26763672,6.63755859 C5.26763672,6.89158203 5.06160156,7.09734375 4.80785156,7.09734375 L4.80785156,7.09734375 Z M11.9906445,3.77904297 L10.2522656,2.04052734 L11.0140625,1.27845703 C11.4433594,0.849023438 12.1914844,0.849570312 12.6200977,1.27845703 L12.7524414,1.41080078 C12.9670898,1.62517578 13.0853516,1.91037109 13.0853516,2.21388672 C13.0853516,2.51740234 12.9670898,2.80259766 12.7524414,3.01710938 L11.9906445,3.77904297 Z M11.5525977,2.04052734 L11.9905078,2.47830078 L12.102207,2.36660156 C12.1573047,2.31150391 12.1656445,2.24710938 12.1656445,2.21375 C12.1656445,2.18039063 12.1573047,2.11599609 12.102207,2.06103516 L11.9698633,1.92855469 C11.9147656,1.87359375 11.8503711,1.86539063 11.8171484,1.86539063 C11.7836523,1.86539063 11.7192578,1.87359375 11.6641602,1.92869141 L11.5525977,2.04052734 L11.5525977,2.04052734 Z M6.33486328,8.48544922 C6.1884375,8.48544922 6.0484375,8.43076172 5.94029297,8.32740234 C5.7903125,8.18398438 5.73138672,7.97480469 5.78279297,7.76753906 L6.06539063,6.63537109 C6.11214844,6.44779297 6.21154297,6.27402344 6.35277344,6.13306641 L9.76158203,2.72412109 C9.94123047,2.54447266 10.232168,2.54447266 10.4118164,2.72412109 C10.5914648,2.90363281 10.5914648,3.19470703 10.4118164,3.37435547 L7.00273438,6.78357422 C6.9803125,6.80613281 6.96376953,6.83306641 6.95748047,6.8578125 L6.82007813,7.4090625 L7.34097656,7.25552734 C7.36462891,7.24855469 7.38978516,7.23255859 7.41070313,7.21177734 L10.8300391,3.79257813 C11.0096875,3.61292969 11.300625,3.61292969 11.4802734,3.79257813 C11.6599219,3.97208984 11.6599219,4.26330078 11.4802734,4.4428125 L8.06121094,7.86173828 C7.931875,7.99134766 7.77259766,8.08691406 7.60142578,8.1375 L6.50822266,8.46001953 C6.45039063,8.47710938 6.39228516,8.48544922 6.33486328,8.48544922 Z" id="形状" fill="#2E84C9"></path>
        </g>
    </g>
</svg>