<?xml version="1.0" encoding="UTF-8"?>
<svg width="26px" height="26px" viewBox="0 0 26 26" version="1.1" xmlns="http://www.w3.org/2000/svg" xmlns:xlink="http://www.w3.org/1999/xlink">
    <title>监控</title>
    <g id="页面-1" stroke="none" stroke-width="1" fill="none" fill-rule="evenodd">
        <g id="TADS首页" transform="translate(-1372.000000, -205.000000)" fill-rule="nonzero">
            <g id="监控" transform="translate(1372.000000, 205.000000)">
                <g transform="translate(13.000000, 13.000000) scale(-1, 1) translate(-13.000000, -13.000000) ">
                    <rect id="矩形" fill="#FFD37D" opacity="0" x="0" y="0" width="26" height="26"></rect>
                    <g id="编组-17" transform="translate(2.000000, 4.000000)" fill="#F7B500">
                        <path d="M3.0501225,12.0842856 C2.91275431,12.0844322 2.77906947,12.0398706 2.66926313,11.9573321 L0.253852973,10.1459649 C0.0858082175,10.0199029 -0.00898381056,9.81886608 0.00067268731,9.60901514 C0.0103291852,9.39916419 0.123183342,9.20768243 0.302095161,9.09758598 L14.5993022,0.303289105 L14.6020952,0.301765667 C15.5232831,-0.258252489 16.7199669,-0.0185845385 17.3544389,0.852996136 C17.3600248,0.860613323 17.3653569,0.868230511 17.370435,0.876101605 L19.6662553,4.33938285 C19.7613585,4.48282345 19.7941408,4.65873296 19.75709,4.82680159 C19.7200393,4.99487022 19.6163317,5.14069053 19.4697319,5.2308477 L10.9826616,10.448875 C10.717796,10.6137819 10.3720972,10.5597664 10.1701616,10.3219219 C9.87369102,10.0064572 9.52309219,9.74666838 9.13498579,9.55487114 C8.36920454,9.18340629 7.61357954,9.21057426 6.88969282,9.63535942 C4.72006391,10.9081914 3.46576704,11.9296563 3.45332563,11.9398125 C3.33972114,12.0332283 3.19720237,12.0842856 3.0501225,12.0842856 Z M1.76180219,9.68893364 L3.04377485,10.6507305 C3.58967329,10.2394024 4.68426313,9.45737114 6.24680219,8.54051567 C7.35967329,7.8877227 8.56598188,7.8514141 9.73522016,8.43565239 C10.0955216,8.61806951 10.431948,8.84422997 10.7368803,9.10901176 L18.2453959,4.49274223 L16.3212944,1.58932426 C16.0716401,1.26196614 15.6158538,1.17450415 15.2627592,1.38619926 L1.76180219,9.68893364 Z" id="形状"></path>
                        <path d="M8.41211469,14.846024 C8.19874085,14.846024 7.99965331,14.7387789 7.88221235,14.5606329 L5.93551313,11.6092266 C5.81064811,11.4198654 5.79629108,11.1782737 5.89785021,10.9754568 C5.99940933,10.7726399 6.20145536,10.6394105 6.4278795,10.6259548 C6.65430365,10.6124992 6.8707067,10.7208615 6.99557172,10.9102227 L8.59213422,13.3319805 L18.4485209,6.83198051 L17.8241655,5.84733207 C17.6911612,5.65569916 17.6739796,5.40655571 17.7794188,5.19847909 C17.884858,4.99040246 18.0959279,4.8569215 18.3291155,4.85084996 C18.5623031,4.84477842 18.7800332,4.96709465 18.8961577,5.16940239 L19.8546538,6.68090629 C20.0400497,6.97324604 19.9570291,7.36022355 19.6680327,7.5507891 L8.76098188,14.741668 C8.6574309,14.8098869 8.53611714,14.8461751 8.41211469,14.846024 Z" id="路径"></path>
                        <path d="M5.87305219,14.9788169 C5.6464211,14.9787724 5.43700526,14.8579035 5.32359907,14.6616875 L4.24170454,12.7893829 C4.06924488,12.4860538 4.17394866,12.1003953 4.4761271,11.9259273 C4.77830554,11.7514594 5.16465009,11.8536027 5.3411186,12.1546172 L6.09496625,13.4591875 L7.04482954,12.8691094 C7.34260486,12.6840778 7.73399718,12.7754747 7.91902875,13.07325 C8.10406033,13.3710254 8.01266345,13.7624177 7.71488813,13.9474493 L6.20820844,14.8836016 C6.10755752,14.9459796 5.99146506,14.9789605 5.87305219,14.9788169 L5.87305219,14.9788169 Z M14.5934623,14.4278399 C13.6830437,14.4278399 12.8622755,13.8794034 12.5138971,13.0382764 C12.1655187,12.1971494 12.3581409,11.2289864 13.0019404,10.5852595 C13.6457399,9.94153259 14.6139247,9.74901962 15.4550124,10.0974929 C16.2961,10.4459662 16.844444,11.2667963 16.8443413,12.1772149 C16.8428021,13.4196618 15.8359094,14.4264409 14.5934623,14.4278399 L14.5934623,14.4278399 Z M14.5934623,11.1958672 C14.051479,11.1958672 13.6121147,11.6352315 13.6121147,12.1772149 C13.6121147,12.7191982 14.051479,13.1585625 14.5934623,13.1585625 C15.1354457,13.1585625 15.57481,12.7191982 15.57481,12.1772149 C15.5742502,11.6354636 15.1352136,11.196427 14.5934623,11.1958672 L14.5934623,11.1958672 Z" id="形状"></path>
                        <path d="M14.2329155,12.1683282 C14.2329155,12.4067167 14.4261676,12.5999688 14.6645561,12.5999688 C14.9029446,12.5999688 15.0961967,12.4067167 15.0961967,12.1683282 C15.0961967,11.9299396 14.9029446,11.7366875 14.6645561,11.7366875 C14.4261676,11.7366875 14.2329155,11.9299396 14.2329155,12.1683282 Z" id="路径"></path>
                        <path d="M20.9550834,16.122918 L15.7106498,16.122918 C14.4436875,16.121518 13.4170786,15.0945683 13.4160991,13.8276055 C13.4160991,13.7730157 13.4183842,13.7156329 13.4234623,13.6519024 C13.4385259,13.4550468 13.5443292,13.2764082 13.7097184,13.1685869 C13.8751075,13.0607655 14.0812499,13.0360388 14.2674467,13.1016875 C14.5665823,13.207179 14.8982627,13.1615416 15.1577914,12.979181 C15.4173201,12.7968204 15.5726722,12.5002391 15.57481,12.1830547 L15.57481,12.1675664 C15.57481,11.8169951 15.8590043,11.5328008 16.2095756,11.5328008 L20.9550834,11.5328008 C21.3056548,11.5328008 21.5898491,11.8169951 21.5898491,12.1675664 L21.5898491,15.4881524 C21.5898491,15.8387238 21.3056548,16.122918 20.9550834,16.122918 L20.9550834,16.122918 Z M14.8676811,14.4115899 C15.0590149,14.6884776 15.3740857,14.8537948 15.7106498,14.8538946 L20.3203178,14.8538946 L20.3203178,12.8030938 L16.755728,12.8030938 C16.5038516,13.6680524 15.7616716,14.3003426 14.8676811,14.4115899 Z" id="形状"></path>
                        <path d="M20.9550834,18.3235235 C20.6045121,18.3235235 20.3203178,18.0393292 20.3203178,17.6887579 L20.3203178,10.1408868 C20.3203178,9.79031539 20.6045121,9.50612114 20.9550834,9.50612114 C21.3056548,9.50612114 21.5898491,9.79031539 21.5898491,10.1408868 L21.5898491,17.6887579 C21.5898491,18.0393292 21.3056548,18.3235235 20.9550834,18.3235235 L20.9550834,18.3235235 Z" id="路径"></path>
                    </g>
                </g>
            </g>
        </g>
    </g>
</svg>