<?xml version="1.0" encoding="UTF-8"?>
<svg width="26px" height="26px" viewBox="0 0 26 26" version="1.1" xmlns="http://www.w3.org/2000/svg" xmlns:xlink="http://www.w3.org/1999/xlink">
    <title>传输</title>
    <g id="页面-1" stroke="none" stroke-width="1" fill="none" fill-rule="evenodd">
        <g id="TADS首页" transform="translate(-1479.000000, -304.000000)" fill-rule="nonzero">
            <g id="传输" transform="translate(1479.000000, 304.000000)">
                <rect id="矩形" fill="#000000" opacity="0" x="0" y="0" width="26" height="26"></rect>
                <path d="M23.374,5.291 C23.374,4.147 22.438,3.211 21.294,3.211 L4.719,3.211 C3.575,3.211 2.639,4.147 2.639,5.291 L2.639,16.497 L23.361,16.497 L23.361,5.291 L23.374,5.291 Z M21.645,14.768 L4.381,14.768 L4.381,5.291 C4.381,5.096 4.537,4.94 4.732,4.94 L21.307,4.94 C21.502,4.94 21.658,5.096 21.658,5.291 L21.658,14.768 L21.645,14.768 Z M23.53,17.03 L2.47,17.03 C1.365,17.03 0.455,17.927 0.455,19.045 C0.455,20.15 1.352,21.06 2.47,21.06 L23.53,21.06 C24.635,21.06 25.545,20.163 25.545,19.045 C25.545,17.927 24.648,17.03 23.53,17.03 Z M4.381,19.318 L2.47,19.318 C2.314,19.318 2.184,19.188 2.184,19.045 C2.184,18.889 2.314,18.759 2.47,18.759 L4.381,18.759 L4.381,19.318 L4.381,19.318 Z M14.365,19.318 L11.57,19.318 L11.57,18.759 L14.365,18.759 L14.365,19.318 Z M20.007,19.318 L17.693,19.318 L17.693,18.759 L20.007,18.759 L20.007,19.318 Z M23.53,19.318 L21.541,19.318 L21.541,18.759 L23.53,18.759 C23.686,18.759 23.803,18.889 23.803,19.045 C23.816,19.188 23.686,19.318 23.53,19.318 Z" id="形状" fill="#FF9000"></path>
                <polygon id="路径" fill="#FF9000" points="14.352 8.658 10.114 8.645 11.986 12.389 12.597 11.427 15.184 13.065 16.328 11.245 13.741 9.62"></polygon>
            </g>
        </g>
    </g>
</svg>