<svg id="图层_1" data-name="图层 1" xmlns="http://www.w3.org/2000/svg" viewBox="0 0 100.01 32"><defs><style>.cls-1,.cls-2{fill:#fff;}.cls-1{opacity:0.37;}.cls-3{fill:#3f20b1;}</style></defs><title>logo</title><rect class="cls-1" x="13.87" y="20.36" width="72.05" height="11.79" rx="5.9"/><path class="cls-2" d="M22.57,24.64v4.22l.88-.84.25,1a13.58,13.58,0,0,1-1.92,1.57l-.36-.85a.68.68,0,0,0,.24-.53V25.55h-1.4v-.91Zm.68-1.43-.65.66A9.64,9.64,0,0,0,21,22.39l.67-.65A12.62,12.62,0,0,1,23.25,23.21Zm2.75.42V23C25.36,23,24.67,23,24,23l-.27-.83a18.8,18.8,0,0,0,4.93-.56l.45.76a11.77,11.77,0,0,1-2.14.46v.77H29.4v.9H27.9a4.18,4.18,0,0,0,1.7,1.1l-.4.83A4.84,4.84,0,0,1,27,24.53h-.12v1.8H26v-1.8h-.07a5.63,5.63,0,0,1-2.26,2l-.5-.8a5.36,5.36,0,0,0,1.91-1.16H23.46v-.9Zm-2.06,3.85v-.9h4.25V27c-.07.3-.14.57-.22.82h1.28v.52a5.06,5.06,0,0,1-.41,2.08.94.94,0,0,1-.75.4l-1.5,0-.3-.93c.55.06,1,.1,1.24.1a.74.74,0,0,0,.54-.19,2.93,2.93,0,0,0,.24-1.18H26.87a12,12,0,0,0,.34-1.19H25.9a4.06,4.06,0,0,1-2.21,3.39l-.5-.79a3.1,3.1,0,0,0,1.8-2.6Z"/><path class="cls-2" d="M30.64,30.8l-.21-.92a6.76,6.76,0,0,0,.76.05.32.32,0,0,0,.36-.35V27.46l-1.07.35-.24-.95c.44-.1.87-.22,1.31-.36V24.41H30.41V23.5h1.14V21.69h.94V23.5h.93v.91h-.93v1.73c.32-.14.65-.3,1-.46v1c-.32.16-.65.3-1,.44v2.74a.86.86,0,0,1-1,1Zm5.34-8V21.69h.9v1.09h1.26A8.18,8.18,0,0,0,37.5,22l.64-.4a5.45,5.45,0,0,1,.76.92l-.36.26h.93v.88H36.88v.77h2.21v5.42c0,.65-.31,1-.93,1h-.71L37.2,30l.68,0a.31.31,0,0,0,.34-.34v-.9H36.88v2.07H36V28.76H34.69v2.11h-.87V24.43H36v-.77H33.52v-.88Zm-1.29,2.5v.91H36v-.91Zm0,2.66H36V27H34.69Zm3.53-2.66H36.88v.91h1.34Zm0,1.73H36.88v.93h1.34Z"/><path class="cls-2" d="M43.87,22v.75c-.29.86-.63,1.76-1,2.71a5.36,5.36,0,0,1,1,2.43,1.36,1.36,0,0,1-.31,1,2.54,2.54,0,0,1-1.57.39l-.31-1a3.62,3.62,0,0,0,.51.05,1.45,1.45,0,0,0,.58-.12.42.42,0,0,0,.14-.35,3.87,3.87,0,0,0-1-2.29,26.47,26.47,0,0,0,1-2.71H41.54v8h-.93V22Zm2.43,1.07a13.27,13.27,0,0,0-.45-1.27l1-.16c.15.42.3.89.44,1.43h2.1V24H46.15c0,.37,0,.88-.07,1.54h2.84a23.35,23.35,0,0,1-.28,4.27,1.4,1.4,0,0,1-1.43,1,6.15,6.15,0,0,1-.79-.06l-.3-.88c.39,0,.72,0,1,0a.77.77,0,0,0,.74-.68c.06-.37.09-1.29.11-2.77H46a7.81,7.81,0,0,1-.58,2.16,8.55,8.55,0,0,1-1.65,2.33l-.71-.67a7.23,7.23,0,0,0,1.64-2.42,8.7,8.7,0,0,0,.44-2.5c0-.59,0-1,0-1.36H43.91v-.92Z"/><path class="cls-2" d="M52.72,24.6A7.33,7.33,0,0,1,52,25.94v4.95h-.88V27.05c-.2.2-.4.4-.61.59l-.27-.91a6.61,6.61,0,0,0,1.63-2.51Zm-.28-2.4a6.84,6.84,0,0,1-1.82,2.71L50.34,24a6,6,0,0,0,1.3-2.16Zm.85,2.25L52.51,24a7.25,7.25,0,0,0,1-2.32l.88.19c-.08.32-.18.62-.28.9h2v.85h-1V25h1.19v.86H55.14v1h1v.85h-1v1.44l1.21-.31v.83a37.19,37.19,0,0,1-3.81.84l-.22-.88.54-.07v-3h.8v2.9l.61-.11v-3.5H52.78V25h1.49V23.59h-.5C53.62,23.89,53.46,24.18,53.29,24.45Zm4.53,5.28-.24-.89.46,0c.14,0,.22-.11.22-.32V23.15h-.81v7.76h-.88V22.28h2.57v6.47c0,.65-.27,1-.81,1Z"/><path class="cls-2" d="M63.5,28.51A10.11,10.11,0,0,1,61,30.64l-.6-.78a10,10,0,0,0,2.44-1.95Zm-.1,2.35-.22-.93a9.26,9.26,0,0,0,1,.06.29.29,0,0,0,.32-.33V27.45c-1,.06-2,.11-3.08.16l-.26-.83a3.83,3.83,0,0,0,.82-.17,12.58,12.58,0,0,0,2.43-1.45l-2.56.17-.2-.84a2,2,0,0,0,.64-.17,5.46,5.46,0,0,0,1.44-1.23c-.79,0-1.62.05-2.5.05L61,22.32a39,39,0,0,0,7.25-.58l.47.79a26.82,26.82,0,0,1-3.76.49,9.36,9.36,0,0,1-1.62,1.5l2.1-.13c.42-.35.86-.73,1.31-1.14l.88.43a26.4,26.4,0,0,1-4.14,3.05c1.39-.09,2.6-.2,3.63-.32-.22-.29-.44-.58-.68-.87l.7-.44A19.93,19.93,0,0,1,69,27.63l-.76.53c-.18-.32-.39-.65-.62-1-.66.08-1.38.15-2.17.21v2.51a.85.85,0,0,1-.94,1ZM69.32,30l-.68.68a15,15,0,0,0-2.45-2.22l.63-.62A16.85,16.85,0,0,1,69.32,30Z"/><path class="cls-2" d="M72.87,22a17.35,17.35,0,0,1-1.44,2.9l1-.15c.17-.32.35-.67.53-1l.85.32a25.29,25.29,0,0,1-2,3.36,13.83,13.83,0,0,0,1.89-.67v.87a13.94,13.94,0,0,1-3.08.91l-.25-.88a1.68,1.68,0,0,0,.43-.28A10,10,0,0,0,72,25.61l-1.44.22L70.29,25a1,1,0,0,0,.41-.37,18.41,18.41,0,0,0,1.26-3Zm.83,7.38a14.36,14.36,0,0,1-3.11,1.12l-.11-.95a14.47,14.47,0,0,0,3.22-1.08Zm2-2.9a8.16,8.16,0,0,1-.47,2.79,4,4,0,0,1-1.45,1.62l-.6-.75a3.19,3.19,0,0,0,1.2-1.29,6.47,6.47,0,0,0,.4-2.37Zm-1.87-1.15.19-.07a5.45,5.45,0,0,0,1.16-1.69H73.59v-.91H76a9.36,9.36,0,0,0-.39-.9l1-.16c.13.32.26.67.38,1.06h2.19v.91h-3a12.79,12.79,0,0,1-1,1.67c.81-.08,1.62-.18,2.42-.3l-.6-.82.72-.45a18.83,18.83,0,0,1,1.53,2.24l-.74.51c-.12-.23-.26-.46-.4-.7-1.24.19-2.59.34-4,.45Zm4,5.4c-.71,0-1.06-.32-1.06-.95V26.35h.91v3.23c0,.16.06.26.18.28h.56c.18,0,.29-.15.31-.39a11,11,0,0,0,0-1.16l.82.29a4.18,4.18,0,0,1-.22,1.76,1.21,1.21,0,0,1-.91.35Z"/><path class="cls-3" d="M45.26.93v17.4H41.71V5.05A4.16,4.16,0,0,1,45.26.93Z"/><path class="cls-3" d="M50,5.05V18.33H46.48V.93A4.13,4.13,0,0,1,48.81,2.1,4.19,4.19,0,0,1,50,5.05Z"/><rect class="cls-3" x="51.58" y="0.93" width="3.76" height="17.4"/><path class="cls-3" d="M56,.93h.46a4,4,0,0,1,4,4v9.42a4,4,0,0,1-4,4H56a0,0,0,0,1,0,0V.93A0,0,0,0,1,56,.93Z"/><polygon class="cls-3" points="70.09 0.96 70.09 10.04 66.07 0.96 70.09 0.96"/><polygon class="cls-3" points="61.76 8.98 65.88 18.32 61.76 18.32 61.76 8.98"/><path class="cls-3" d="M70.09,13.21v1.6a3.52,3.52,0,0,1-2.85,3.45L61.76,5.84V4.47A3.51,3.51,0,0,1,64.71,1Z"/><rect class="cls-3" x="33.21" y="0.93" width="3.53" height="17.4"/><path class="cls-3" d="M37.27.93h3a0,0,0,0,1,0,0V8.27a0,0,0,0,1,0,0h0a3,3,0,0,1-3-3V.93A0,0,0,0,1,37.27.93Z"/><path class="cls-3" d="M32.67.93h0a0,0,0,0,1,0,0V8.27a0,0,0,0,1,0,0h-3a0,0,0,0,1,0,0V3.89a3,3,0,0,1,3-3Z" transform="translate(62.38 9.2) rotate(180)"/></svg>